<?xml version="1.0" standalone="no"?>
<!DOCTYPE svg PUBLIC "-//W3C//DTD SVG 1.1//EN" "http://www.w3.org/Graphics/SVG/1.1/DTD/svg11.dtd" >
<svg xmlns="http://www.w3.org/2000/svg" xmlns:xlink="http://www.w3.org/1999/xlink" version="1.1">
<metadata>
Created by FontForge 20170910 at Tue Apr 12 04:41:48 2005
 By Jimmy Wärting
Part of the digitally encoded machine readable outline data for producing the Typefaces provided is copyrighted (c) 1992,2005 Linotype Library GmbH, www.linotype.com. All rights reserved. This software is the property of Linotype Library GmbH, and may not be reproduced, used, displayed, modified, disclosed or transferred without the express written approval of Linotype Library GmbH. Copyright (c) 1992 Adobe Systems Incorporated. All rights reserved. All Cyrillic characters are designed for Linotype Library by Double Alex.
</metadata>
<defs>
<font id="WiesbadenSwingLTCYR-Roman" horiz-adv-x="296" >
  <font-face 
    font-family="Wiesbaden Swing LT CYR"
    font-weight="400"
    font-stretch="normal"
    units-per-em="1000"
    panose-1="2 0 5 3 2 0 0 2 0 3"
    ascent="800"
    descent="-200"
    x-height="260"
    cap-height="470"
    bbox="-65 -284 960 786"
    underline-thickness="50"
    underline-position="-100"
    unicode-range="U+000D-F8FF"
  />
<missing-glyph horiz-adv-x="512" 
d="M222 117v67h56v-67h-56zM225 234l-2 17q0 56 13 81q7 13 18 27.5t28 31.5q16 15 26 26.5t15 21t7 18t2 17.5q0 36 -22.5 60.5t-53.5 24.5t-53.5 -22t-28.5 -73l-50 8q7 72 44 104.5t91 32.5t89 -35.5t35 -95.5q0 -32 -12.5 -58.5t-50.5 -61.5q-37 -33 -43 -52
q-6 -20 -6 -72h-46zM462 50v617h-412v-617h412zM512 718v-718h-512v718h512z" />
    <glyph glyph-name=".notdef" horiz-adv-x="512" 
d="M222 117v67h56v-67h-56zM225 234l-2 17q0 56 13 81q7 13 18 27.5t28 31.5q16 15 26 26.5t15 21t7 18t2 17.5q0 36 -22.5 60.5t-53.5 24.5t-53.5 -22t-28.5 -73l-50 8q7 72 44 104.5t91 32.5t89 -35.5t35 -95.5q0 -32 -12.5 -58.5t-50.5 -61.5q-37 -33 -43 -52
q-6 -20 -6 -72h-46zM462 50v617h-412v-617h412zM512 718v-718h-512v718h512z" />
    <glyph glyph-name=".null" horiz-adv-x="0" 
 />
    <glyph glyph-name=".null" horiz-adv-x="0" 
 />
    <glyph glyph-name="nonmarkingreturn" unicode="&#xd;" horiz-adv-x="185" 
 />
    <glyph glyph-name="space" unicode=" " horiz-adv-x="185" 
 />
    <glyph glyph-name="exclam" unicode="!" horiz-adv-x="259" 
d="M115 388q1 17 1.5 22.5t2.5 9.5q1 3 6 5t11 4t11.5 3t8.5 1q7 0 7 -7v-5t-2 -11q-8 -46 -13 -92t-5 -93q0 -17 1 -30.5t3 -28.5q2 -17 7 -23.5t16 -6.5q7 0 7 -6q0 -2 -5 -6t-11 -8t-11.5 -6.5t-7.5 -2.5q-11 0 -20 13.5t-11 23.5q-2 8 -2.5 23t-0.5 43q0 48 2 90.5
t5 87.5zM216 -8q0 -13 -19 -13q-22 0 -38 22.5t-16 52.5q0 6 1 7t6 3.5t11 4.5t11.5 3.5t7.5 1.5q7 0 7 -8q0 -5 -0.5 -8.5t-0.5 -8.5q0 -16 5.5 -28.5t13.5 -17.5q4 -2 7.5 -4t3.5 -7z" />
    <glyph glyph-name="quotedbl" unicode="&#x22;" horiz-adv-x="204" 
d="M124 382q-1 5 -1 8v6q0 27 21 27q20 0 20 -27v-5t-1 -8q-2 -14 -3 -32.5t-3 -35.5q-2 -20 -4 -41h-18zM40 382q-1 5 -1 8v6q0 27 21 27q20 0 20 -27v-5t-1 -8q-2 -14 -3 -32.5t-3 -35.5q-2 -20 -4 -41h-18z" />
    <glyph glyph-name="numbersign" unicode="#" horiz-adv-x="426" 
d="M74 0l46 134h-70l9 25h69l36 107h-69l9 25h69l46 134h26l-45 -134h80l45 134h27l-45 -134h69l-9 -25h-69l-36 -107h69l-9 -25h-69l-46 -134h-26l45 134h-80l-45 -134h-27zM271 266h-80l-36 -107h80z" />
    <glyph glyph-name="dollar" unicode="$" horiz-adv-x="407" 
d="M171 -38q-5 -17 -7 -23.5t-4 -8.5q-4 -4 -12 -4q-6 0 -11 2.5t-5 5.5t1.5 8.5t3.5 12.5t3.5 12.5t2.5 8.5l7 28q-106 47 -106 157q0 11 6.5 19.5t15.5 8.5q7 0 7 -10v-20q0 -26 10 -51t30 -45q12 -12 28.5 -22.5t34.5 -18.5t36 -12.5t34 -4.5q39 0 39 53q0 22 -8.5 49.5
t-21.5 56t-27 55t-24 44.5q-4 7 -13.5 23t-19.5 34.5t-17.5 36t-7.5 27.5q0 17 18 29t46 12q11 0 19 -1.5l24 -4.5l11 43q4 14 8.5 25t22.5 11q12 0 12 -7q0 -3 -2 -9l-3 -9l-20 -64q5 -2 16 -8t22.5 -13t20 -14t8.5 -11q0 -3 -9 -11t-12 -8q-4 0 -8 4t-7 6q-23 20 -51 31.5
t-53 11.5q-24 0 -24 -16q0 -6 6 -20.5t14.5 -30.5t16.5 -30.5t11 -20.5q14 -26 28 -53t27 -54q29 -66 29 -113q0 -38 -19.5 -59.5t-54.5 -21.5q-17 0 -28.5 2.5t-35.5 10.5z" />
    <glyph glyph-name="percent" unicode="%" horiz-adv-x="444" 
d="M399 397q8 0 8 -5q0 -4 -7 -11q-10 -10 -28 -30.5t-42 -49.5q-14 -16 -25 -29.5t-22.5 -27.5t-24 -30t-27.5 -36t-26.5 -36t-20.5 -29.5t-17 -26t-17 -27.5q-29 -47 -29 -59q0 -7 8 -12q6 -5 6 -9q0 -7 -9.5 -10.5t-14.5 -3.5q-11 0 -19 6.5t-8 17.5q0 13 13 41
q8 17 17.5 33.5t22 35.5t29.5 42.5t40 53.5q22 28 43.5 56.5t41 53t35.5 43.5t26 30q5 5 10 12t13 7h24v0zM396 111q0 -37 -29 -74q-32 -40 -74 -40q-23 0 -37 14.5t-14 40.5q0 22 8 42.5t21.5 36.5t31.5 25t38 9q26 0 40.5 -14.5t14.5 -39.5zM214 340q0 -36 -29 -73
q-33 -40 -74 -40q-23 0 -37 14.5t-14 40.5q0 22 8 42.5t21.5 36t31.5 24.5t38 9q26 0 40.5 -14t14.5 -40zM368 110q0 14 -8.5 21.5t-21.5 7.5q-21 0 -40 -19q-11 -12 -18 -29.5t-7 -33.5q0 -34 27 -34q16 0 37 19q12 12 21.5 31.5t9.5 36.5zM186 340q0 14 -8.5 21.5
t-21.5 7.5q-22 0 -40 -20q-11 -11 -18 -28.5t-7 -33.5q0 -34 27 -34q18 0 37 19q12 12 21.5 31.5t9.5 36.5z" />
    <glyph glyph-name="ampersand" unicode="&#x26;" horiz-adv-x="537" 
d="M388 111q-24 -23 -52.5 -46t-57.5 -42q-42 -27 -85.5 -41.5t-82.5 -14.5t-63 17t-24 45q0 42 54 105q13 15 32 34t40.5 39t44.5 39.5t44 36.5q-18 24 -35 49.5t-33 51.5q-3 -2 -7 -4.5t-8 -2.5q-5 0 -10 7.5t-5 12.5q0 6 15.5 20.5t35.5 27.5q65 40 128 40q42 0 67 -18
t25 -47q0 -24 -14.5 -42.5t-31.5 -33.5q-20 -18 -42.5 -34.5t-43.5 -31.5q25 -32 51.5 -64t59.5 -56q9 12 14.5 20.5t11 16.5t11 18.5t14.5 25.5q4 6 7.5 13t11.5 7q14 0 14 -14q0 -11 -17 -40.5t-43 -64.5q18 -11 36.5 -21t38.5 -16q14 -4 14 -6q0 -1 -3.5 -8l-5.5 -11
q-2 -5 -6 -12t-9 -7q-8 0 -38 17q-18 10 -28.5 17t-24.5 18zM364 130q-32 29 -59 61.5t-52 67.5q-29 -23 -59.5 -50t-50.5 -47q-11 -11 -24.5 -25t-25.5 -29.5t-20.5 -32.5t-8.5 -32q0 -42 58 -42q55 0 118.5 34t123.5 95zM194 408q17 -27 33.5 -54.5t35.5 -51.5
q35 27 54.5 42t30.5 26q22 22 22 41q0 20 -16.5 31.5t-44.5 11.5q-32 0 -61.5 -13t-53.5 -33z" />
    <glyph glyph-name="quotesingle" unicode="'" horiz-adv-x="205" 
d="M78 382q-1 5 -1 8v6q0 27 21 27q20 0 20 -27v-5t-1 -8q-2 -14 -3 -32.5t-3 -35.5q-2 -20 -4 -41h-18z" />
    <glyph glyph-name="parenleft" unicode="(" horiz-adv-x="333" 
d="M312 423q0 -7 -9.5 -14.5t-14.5 -7.5t-8 8q-12 35 -31 35t-40.5 -29t-40.5 -79q-23 -60 -36 -123t-13 -126q0 -52 11.5 -74t38.5 -22q36 0 80 51q10 10 12 10t4 -2.5t2 -4.5q0 -7 -9.5 -20.5t-23.5 -27.5q-19 -17 -39 -27t-39 -10q-35 0 -54 32t-19 94q0 33 5.5 74
t15 82.5t22.5 80t28 67.5q43 83 97 83q13 0 24.5 -4.5t19.5 -14.5q5 -5 11 -14t6 -17z" />
    <glyph glyph-name="parenright" unicode=")" horiz-adv-x="333" 
d="M145 445q0 8 16 19q19 12 36 12q38 0 58.5 -37.5t20.5 -106.5q0 -45 -10 -101t-28 -115q-24 -77 -54 -117.5t-62 -40.5q-40 0 -68 43q-11 17 -19 40.5t-8 38.5q0 12 8 12q3 0 4.5 -3t4.5 -12q12 -41 30 -62.5t41 -21.5q18 0 34.5 18t33.5 58q13 30 24 64.5t18.5 70.5
t12 72t4.5 69q0 45 -11 72.5t-28 27.5q-15 0 -34 -21q-4 -4 -8 -4q-6 0 -11 10t-5 15z" />
    <glyph glyph-name="asterisk" unicode="*" horiz-adv-x="333" 
d="M195 313q-15 -27 -29.5 -53.5t-27.5 -54.5q-3 -7 -10 -7q-5 0 -8.5 3t-3.5 8t3 10l46 89q-9 -2 -19 -6q-8 -3 -19 -6.5t-23 -8.5t-19 -6.5t-13 -1.5q-18 0 -18 14q0 13 15 13q3 0 6 -0.5t6 -0.5t16.5 4t29.5 9t30.5 9.5t19.5 6.5q-5 6 -12.5 14.5t-16 17l-16.5 16.5
t-14 12l-7.5 4.5t-3.5 2.5q-5 5 -5 10q0 12 13 12q5 0 16 -9q17 -13 32 -29.5t29 -32.5q12 21 25 41.5t27 40.5q2 4 6.5 11t9.5 7t9 -3t4 -8q0 -2 -1 -4l-2 -4q-13 -20 -28 -43.5t-27 -44.5q24 5 49.5 8t41.5 3q28 0 28 -16q0 -14 -13 -14q-7 0 -12.5 3.5t-16.5 3.5
q-8 0 -24.5 -1.5t-40.5 -6.5l-10 -2q30 -31 56 -68q10 -14 13 -19.5t3 -9.5q0 -10 -13 -10q-3 0 -5.5 2t-7.5 8q-15 23 -32 45t-36 42z" />
    <glyph glyph-name="plus" unicode="+" horiz-adv-x="426" 
d="M195 194v45t-0.5 21.5t-0.5 13.5v20v19.5t1 19.5q2 14 5 17.5t13 3.5q13 0 13 -19q0 -2 -0.5 -5.5t-0.5 -7.5v-44v-38t0.5 -18.5t0.5 -11v-16.5h136q5 0 8 0.5t6 0.5q14 0 14 -14q0 -20 -23 -20h-7q-9 0 -13 0.5t-9.5 0.5t-16 0.5t-33.5 0.5h-62v-134q0 -5 0.5 -8.5
t0.5 -5.5q0 -15 -14 -15q-20 0 -20 22v8q0 9 0.5 13t0.5 9.5t0.5 16.5t0.5 34v60h-67h-21t-10 -0.5t-5 -0.5h-6q-32 0 -41 3t-9 13q0 16 20 16q2 0 5 -0.5t7 -0.5h44h38.5t18.5 0.5t10.5 0.5h15.5z" />
    <glyph glyph-name="comma" unicode="," horiz-adv-x="185" 
d="M88 56q7 0 15 -11q13 -19 13 -46q0 -32 -17 -66q-11 -22 -20 -22q-4 0 -7 3t-3 6q0 1 2 9q10 28 10 46q0 15 -3.5 29t-14.5 26q-3 4 -3 7q0 1 4 4.5t9 6.5t9.5 5.5t5.5 2.5z" />
    <glyph glyph-name="hyphen" unicode="-" horiz-adv-x="333" 
d="M67 114q-5 -1 -11 -1q-5 0 -9.5 6t-4.5 14q0 9 8 12t33 4q12 0 22 0.5t21 1t24 1t30 0.5q30 0 53.5 -1t39.5 -3q5 -1 12 -1.5t7 -8.5q0 -13 -18 -13q-17 0 -33.5 1t-33.5 1q-22 0 -43.5 -1t-43.5 -4q-1 0 -8.5 -1t-16.5 -2.5t-17.5 -3t-10.5 -1.5z" />
    <glyph glyph-name="period" unicode="." horiz-adv-x="185" 
d="M96 51q11 0 19.5 -8.5t8.5 -19.5q0 -12 -8 -20t-20 -8q-11 0 -19.5 8t-8.5 20q0 11 8.5 19.5t19.5 8.5z" />
    <glyph glyph-name="slash" unicode="/" horiz-adv-x="333" 
d="M196 226q-15 -28 -34.5 -68t-37.5 -77q-21 -44 -42 -90q-2 -5 -11 -5h-12q-12 0 -16.5 1t-4.5 4t2 5q20 40 42 78.5t42 78.5l85 172q16 32 29.5 61t30.5 67q5 11 16 11.5t21 0.5q14 0 14 -5q0 -2 -0.5 -3l-3.5 -7q-19 -35 -28 -51t-15 -27t-12.5 -24t-21.5 -41z" />
    <glyph glyph-name="zero" unicode="0" horiz-adv-x="352" 
d="M326 207q0 -45 -13.5 -85t-36 -70t-52 -48t-61.5 -18q-52 0 -81.5 61.5t-29.5 169.5q0 100 31 153t88 53q25 0 50 -12t47 -34q37 -37 47.5 -78t10.5 -92zM291 209q0 41 -6.5 69t-22.5 54q-18 29 -44 45.5t-52 16.5q-29 0 -45 -20t-23.5 -47.5t-9 -57.5t-1.5 -49
q0 -21 3.5 -55t13.5 -65.5t28.5 -54.5t49.5 -23q21 0 40.5 15.5t35 42t24.5 60t9 69.5z" />
    <glyph glyph-name="one" unicode="1" 
d="M186 332q-20 -22 -42.5 -42.5t-46.5 -37.5q-17 -12 -36.5 -21.5t-27.5 -9.5q-13 0 -13 16q0 5 2 7.5t10 4.5q10 3 23 10t27 16q10 7 25 19.5t30.5 26.5t29 28t21.5 24q0 4 1 11.5t2 15.5t2 15.5t2 11.5q5 29 32 29q14 0 14 -13q0 -2 -3 -17t-6.5 -34.5t-7.5 -41t-5 -37.5
q-6 -71 -6 -142q0 -35 1.5 -55t3.5 -40q3 -28 18 -53q5 -8 6 -10.5t1 -4.5q0 -7 -10 -12.5t-16 -5.5q-37 0 -37 173q0 43 0.5 85.5t5.5 83.5z" />
    <glyph glyph-name="two" unicode="2" horiz-adv-x="389" 
d="M142 79q-32 -28 -68 -50q-19 -12 -38 -21t-26 -9q-5 0 -12.5 6.5t-7.5 11.5q0 3 2.5 8t5.5 10.5t6 10t4 6.5q9 16 22 35t25 35q17 23 25 30t18 7t16.5 -6.5l13.5 -13.5l18 -18l22.5 22.5t24.5 26.5q16 19 36.5 44.5t37.5 53.5t29 56.5t12 53.5q0 28 -19 28
q-17 0 -41 -12.5t-48 -33.5l-17.5 -17.5l-18.5 -18.5q-4 -5 -4.5 -7t-2.5 -8q-6 -20 -27 -20q-15 0 -15 11q0 4 6 12.5t14 17.5t16 17l11 11q36 36 72.5 56.5t65.5 20.5q21 0 33 -13t12 -36q0 -24 -8.5 -50t-22.5 -51t-31 -49t-34 -45q-20 -24 -40.5 -47t-40.5 -43
q16 -14 38 -31t46.5 -33t49.5 -26.5t46 -10.5q24 0 38 22q8 13 16 13q11 0 11 -13q0 -18 -22 -32.5t-50 -14.5q-26 0 -53.5 10t-53.5 25.5t-49.5 34t-42.5 34.5zM121 98q-7 7 -15 14.5t-14 15.5q-17 -25 -35 -48.5t-32 -50.5q14 8 29 18t29 21q10 8 19.5 15t18.5 15z" />
    <glyph glyph-name="three" unicode="3" horiz-adv-x="444" 
d="M234 250q39 0 74 -11.5t62 -31.5t42.5 -46t15.5 -55q0 -27 -13.5 -50.5t-38 -40.5t-58 -26.5t-73.5 -9.5q-97 0 -166 69q-23 23 -37.5 48t-14.5 42q0 12 6.5 20.5t17.5 8.5q10 0 10 -8q0 -5 -2.5 -8t-2.5 -8q0 -13 9 -29t21.5 -31.5t26.5 -28.5t23 -19q24 -17 49 -24.5
t57 -7.5q67 0 109 29t42 75q0 24 -13 45.5t-35 37.5t-52 25t-64 9q-24 0 -46.5 -3.5t-37.5 -10.5q-2 -1 -4 -1t-4 2q-5 5 -9 11t-4 8q0 3 6 5q33 14 67 29t66 34q78 46 78 76q0 11 -11.5 17.5t-31.5 6.5q-25 0 -51.5 -8.5t-51.5 -22t-47.5 -30t-40.5 -33.5q-11 -10 -15 -10
q-5 0 -9 4t-4 9q0 6 4 10l8 8q20 19 45.5 37t53.5 31.5t57 22t57 8.5q34 0 54.5 -13.5t20.5 -34.5q0 -13 -11.5 -29t-32 -32.5t-49.5 -33t-64 -31.5h12z" />
    <glyph glyph-name="four" unicode="4" horiz-adv-x="444" 
d="M270 211q-5 -30 -8 -60.5t-3 -61.5q0 -46 21 -67q3 -3 6 -5t3 -7t-4 -8.5t-10 -6t-12 -4t-10 -1.5q-7 0 -12 8q-9 16 -12 36t-3 53q0 25 1.5 53.5t6.5 60.5q-53 -14 -103 -33.5t-97 -47.5q-7 -4 -9 -4q-4 0 -8 5t-4 9q0 3 5 7t12 8.5t13.5 8t8.5 4.5q35 70 74.5 136
t81.5 132q5 7 7.5 10t7.5 5l14 4t10 2q9 0 9 -10q0 -4 -5.5 -11t-8.5 -11q-36 -45 -76.5 -108t-75.5 -132q35 17 72 29t74 22q3 21 6.5 46.5t7.5 45.5q2 11 5.5 15.5t14.5 9.5q5 2 11 5t9 3q6 0 6 -6q0 -2 -2.5 -12t-5.5 -23.5l-6 -27t-4 -20.5l-4 -25q11 3 26.5 6t33.5 5.5
t36 4.5t35 2q46 0 46 -15q0 -10 -20 -22q-5 -3 -16.5 -9t-16.5 -6q-8 0 -8 11q0 4 4 6.5t21 9.5q-6 1 -9 1h-6q-21 0 -58 -5.5t-72 -14.5z" />
    <glyph glyph-name="five" unicode="5" horiz-adv-x="426" 
d="M165 339q-8 -20 -14.5 -41t-11.5 -42q47 19 99 19q36 0 67 -8.5t54 -24t36 -36.5t13 -45q0 -67 -84 -122q-91 -58 -186 -58q-54 0 -89 18t-35 46q0 17 13 17q6 0 6.5 -3.5t1.5 -8.5q1 -9 10 -17t24 -14.5t34 -10t39 -3.5q54 0 107 22t89 61q29 32 29 70q0 40 -37.5 66
t-95.5 26q-33 0 -71 -11.5t-65 -31.5q-2 -2 -6.5 -5.5t-8.5 -3.5q-3 0 -8.5 7.5t-5.5 9.5q0 4 8 9l24 15l35 125q3 10 5 12t12 4q8 1 14 2t8 1q5 0 5 -4q0 -2 -2 -7t-3 -7q38 2 74 16t68 34q11 7 15.5 9.5t9.5 2.5q8 0 8 -9q0 -8 -13.5 -18.5t-31 -20t-34.5 -16.5t-25 -10
q-17 -6 -36 -9t-45 -5z" />
    <glyph glyph-name="six" unicode="6" horiz-adv-x="315" 
d="M180 406q-8 0 -24 -16.5t-29 -38.5q-12 -21 -22 -49t-17.5 -59t-12 -62.5t-4.5 -58.5q0 -48 12 -73.5t35 -25.5q14 0 30.5 9t31.5 22.5t28 27.5t20 25q31 44 31 83q0 44 -39 44q-19 0 -37 -8.5t-32.5 -22.5t-24.5 -33.5t-13 -41.5q0 -8 -5 -8q-3 0 -6 3.5t-5.5 8.5
t-4.5 10t-2 8q0 10 8.5 25.5t22.5 31.5q46 52 107 52q29 0 45.5 -17.5t16.5 -49.5q0 -43 -41 -104q-11 -15 -26.5 -32t-34 -31t-39 -23t-39.5 -9q-74 0 -74 125q0 51 13 109t36 104q7 14 18 32.5t25 35t30.5 28t34.5 11.5q21 0 21 -16q0 -6 -4.5 -15.5t-12.5 -9.5
q-5 0 -8.5 4.5t-8.5 4.5z" />
    <glyph glyph-name="seven" unicode="7" horiz-adv-x="333" 
d="M183 215q-25 -46 -45 -101q-4 -11 -8.5 -26t-9 -30.5t-7.5 -31t-3 -27.5q0 -9 5 -15.5t5 -10.5q0 -7 -9 -12t-21 -5q-20 0 -20 28q0 18 5.5 44t16 56.5t24 63.5t30.5 64q-12 -1 -27.5 -2.5t-29.5 -3.5q-17 -3 -34 -5q-5 -1 -12 -1q-11 0 -11 14q0 3 4 5t15 4q26 4 53 7.5
t53 6.5q21 42 43.5 81.5t49.5 77.5q-8 1 -12.5 1h-13.5q-30 0 -62 -2.5t-51 -7.5q-10 -2 -16.5 -7.5t-6.5 -11.5q0 -7 12 -14q6 -3 6 -7q0 -3 -4 -6.5t-9.5 -6.5t-11 -4.5t-8.5 -1.5q-10 0 -16.5 8.5t-6.5 20.5q0 15 9 28t25 20q12 5 32.5 9t43.5 6.5t45 3.5t36 1
q5 0 11 -0.5t16 -0.5l9 11q4 5 7 6.5t14 2.5q7 1 14.5 2t14.5 1q6 0 6 -4q0 -2 -16 -17.5t-42 -51.5q-23 -32 -43.5 -65.5t-37.5 -69.5q11 1 22.5 1.5t23.5 0.5q42 0 69 -4.5t27 -12.5q0 -3 -12.5 -8.5t-27.5 -10.5q-2 0 -3 -0.5t-3 -0.5q-1 0 -2 1q-13 12 -51 12h-27
t-27 -2z" />
    <glyph glyph-name="eight" unicode="8" horiz-adv-x="333" 
d="M238 164q8 -32 12.5 -63.5t4.5 -54.5q0 -76 -47 -76q-12 0 -25.5 7.5t-26.5 18.5t-24.5 22.5l-19.5 19.5q-7 7 -18.5 19.5t-23 26t-19.5 27.5t-8 25q0 14 9 25.5t18 20.5q25 25 52 47.5t54 45.5q-11 45 -25 88l-28 86l-2 6t-1 5q0 8 8 11.5t14 3.5q5 0 7.5 -3t6.5 -13
l10 -28q37 15 67 15q32 0 50.5 -14t18.5 -37q0 -17 -9.5 -35t-23.5 -35t-30 -31.5t-28 -24.5zM184 247q-18 -13 -38 -30t-37 -34q-20 -20 -26 -28t-6 -16q0 -10 9 -23t39 -47q6 -6 17 -18.5t23.5 -24.5t24.5 -21t20 -9q9 0 12.5 10.5t3.5 35.5q0 29 -5 57.5t-12 57.5
q-5 23 -11.5 45t-13.5 45zM172 406q9 -26 16 -53.5t15 -54.5q30 24 48.5 50t18.5 43q0 14 -11 22.5t-28 8.5q-28 0 -59 -16z" />
    <glyph glyph-name="nine" unicode="9" horiz-adv-x="352" 
d="M275 343q-18 -20 -34 -41t-35 -40q-11 -11 -25 -23.5t-30 -23.5t-33.5 -18t-33.5 -7q-14 0 -22 7.5t-8 19.5q0 30 56 105q22 29 40 49t38 36q14 11 27.5 19t31.5 10q-8 15 -8 21q0 4 4.5 8t10.5 6t12 3.5t9 1.5q6 0 8 -6q3 -9 7 -25t7.5 -34t6.5 -35t4 -26
q4 -26 5.5 -51.5t1.5 -48.5q0 -135 -41 -207.5t-117 -72.5q-39 0 -66.5 18t-47.5 50q-17 28 -17 45q0 7 8.5 16t15.5 9q8 0 9 -10l3 -16q3 -18 13 -33.5t24 -27t31 -18.5t34 -7q70 0 98 88q21 67 21 151q0 29 -1.5 56t-6.5 52zM263 392q0 15 -15 15t-39 -18t-53 -53
q-28 -33 -47 -63.5t-19 -42.5q0 -10 11 -10q9 0 21.5 7t25 17t23 20t16.5 16q7 7 20 21.5t25.5 30.5t21.5 32t9 28z" />
    <glyph glyph-name="colon" unicode=":" horiz-adv-x="222" 
d="M91 47q11 0 19.5 -8t8.5 -20t-8.5 -20t-19.5 -8q-12 0 -20 8t-8 20q0 11 8 19.5t20 8.5zM112 222q12 0 20 -8t8 -20q0 -11 -8 -19.5t-19 -8.5q-12 0 -20 8.5t-8 19.5q0 12 8 20t19 8z" />
    <glyph glyph-name="semicolon" unicode=";" horiz-adv-x="222" 
d="M107 223q12 0 20 -8t8 -20q0 -11 -8 -19t-20 -8q-11 0 -19.5 8t-8.5 19q0 12 8.5 20t19.5 8zM107 47q14 11 19 11q7 0 15 -11q13 -19 13 -46q0 -32 -17 -66q-11 -22 -20 -22q-4 0 -7 3t-3 6q0 1 2 9q10 28 10 46q0 15 -3.5 29t-14.5 26q-3 4 -3 7q0 2 4 4.5t5 3.5z" />
    <glyph glyph-name="less" unicode="&#x3c;" horiz-adv-x="426" 
d="M357 66q10 -4 18 -6.5t14 -5.5q6 -2 6 -11q0 -17 -1 -21.5t-4 -4.5t-11.5 4t-37.5 16l-292 117q-18 7 -18 23q0 11 6 15t23 12l280 117q8 3 24.5 10.5t23.5 7.5q5 0 5 -11v-12q0 -4 -2 -8q-2 -2 -7 -4t-29 -12l-281 -116z" />
    <glyph glyph-name="equal" unicode="=" horiz-adv-x="426" 
d="M82 231q-29 0 -38 3t-9 13q0 16 20 16q2 0 5 -0.5t7 -0.5h44h30t16 0.5t16.5 0.5h30.5h157q5 1 8 1h6q14 0 14 -14q0 -20 -23 -20h-4h-3.5t-7 0.5t-13.5 0.5q-20 1 -41 1h-41h-56q-29 0 -59 -0.5t-59 -0.5zM83 90q-29 0 -37.5 3t-8.5 13q0 15 20 15l305 1q5 1 8.5 1h6.5
q14 0 14 -14q0 -20 -23 -20h-4h-3.5t-7 0.5t-13.5 0.5q-20 1 -41 1h-41h-56q-30 0 -59.5 -0.5t-59.5 -0.5z" />
    <glyph glyph-name="greater" unicode="&#x3e;" horiz-adv-x="426" 
d="M395 177q0 -16 -18 -23l-292 -117q-29 -12 -37.5 -16t-11.5 -4t-4 4.5t-1 21.5q0 5 1 7t5 4q6 2 14 5t18 7l283 110l-281 116q-24 10 -29 12t-7 4q-2 4 -2 8v12q0 11 5 11q7 0 23.5 -7.5t24.5 -10.5l280 -117q17 -8 23 -12t6 -15z" />
    <glyph glyph-name="question" unicode="?" horiz-adv-x="370" 
d="M273 415q0 8 -14 8q-18 0 -39 -5t-41.5 -13t-39.5 -18.5t-33 -22.5q-7 -6 -7 -13q0 -4 5 -5t5 -5q0 -5 -5.5 -8.5t-13.5 -3.5q-21 0 -21 21q0 14 12.5 26.5t42.5 29.5q37 20 73 31.5t65 11.5q51 0 51 -31q0 -20 -31.5 -51.5l-74.5 -74.5q-8 -8 -24.5 -24t-33 -35t-29 -37
t-12.5 -29q0 -25 26 -25q27 0 69.5 20.5t93.5 56.5q7 6 13 6q8 0 8 -7q0 -10 -21 -26q-47 -35 -93.5 -55t-81.5 -20q-23 0 -38 11.5t-15 28.5q0 15 9.5 32.5t23 34.5t28.5 32t25 26q6 6 25 25.5t40 41.5t37 41t16 25zM230 -6q0 -13 -19 -13q-22 0 -38 22.5t-16 52.5
q0 6 3 8.5t17 6.5q2 0 8.5 2t8.5 2q7 0 7 -8q0 -5 -0.5 -8.5t-0.5 -7.5q0 -17 5.5 -29.5t13.5 -17.5q3 -2 7 -3.5t4 -6.5z" />
    <glyph glyph-name="at" unicode="@" horiz-adv-x="574" 
d="M336 265q-41 -69 -100 -132q-20 -21 -36 -21q-9 0 -15.5 6t-6.5 15q0 8 3.5 21.5t10 29t14.5 31.5t17 31q24 40 51.5 66t44.5 26q2 0 6 -2q-1 6 -3.5 15.5t-2.5 14.5q0 8 9.5 12.5t15.5 4.5q10 0 10 -13q0 -7 0.5 -13t0.5 -13q0 -29 5.5 -64t10.5 -63q10 -52 25.5 -73
t42.5 -21q12 0 21.5 4.5t20.5 13.5q27 26 44 65t17 81q0 45 -17 78t-45.5 55t-66 32.5t-78.5 10.5q-54 0 -102.5 -17t-85 -48.5t-57.5 -77t-21 -102.5q0 -51 17.5 -92.5t49 -71t75.5 -46t98 -16.5q89 0 176 54q8 4 11 4q7 0 7 -10q0 -6 -9 -11q-53 -29 -96 -42t-92 -13
q-59 0 -107.5 17.5t-83.5 50t-54 77.5t-19 99q0 62 23.5 111.5t63.5 84t92.5 53t111.5 18.5q46 0 88 -12t74.5 -36t52 -61t19.5 -88q0 -36 -11.5 -69t-30.5 -58.5t-44 -41t-52 -15.5q-51 0 -72 64q-8 22 -12.5 45t-8.5 52zM323 301q0 13 -11 13t-32.5 -22.5t-41.5 -56.5
q-3 -6 -9.5 -18t-13 -25.5t-11 -26t-4.5 -18.5q0 -5 4 -5q5 0 14 9q38 41 70 88q2 3 8 11t12 17.5t10.5 18.5t4.5 15z" />
    <glyph glyph-name="A" unicode="A" horiz-adv-x="556" 
d="M318 244q16 -52 36.5 -95t53.5 -85q26 -33 47.5 -48t42.5 -15q29 0 45 19q8 9 13 9q7 0 7 -7q0 -11 -14 -25q-21 -21 -55 -21q-55 0 -107 63q-35 42 -57.5 89.5t-40.5 98.5q-14 -8 -33 -19t-38.5 -23.5t-37 -25t-28.5 -23.5q-25 -43 -53.5 -85.5t-63.5 -78.5
q-10 -10 -17 -14.5t-21 -4.5q-23 0 -23 9q0 2 6 7q23 16 44.5 39.5t41 49.5t36.5 53t30 51q10 19 24.5 51.5t27.5 67t22 66t9 50.5q0 4 -0.5 7t-0.5 6q0 5 4.5 8t17.5 9l-6 24q-2 5 -3 12t-1 12q0 4 3.5 8.5t8.5 8.5t10.5 6.5t9.5 2.5q5 0 5 -8q0 -17 3 -33q2 -11 3 -17.5
t2 -12.5t2.5 -12.5t3.5 -16.5q14 -69 33 -134q15 8 38.5 18t48.5 18.5t48 14.5t38 6q13 0 13 -10q0 -6 -4.5 -9t-19.5 -6q-44 -8 -80.5 -22.5t-73.5 -32.5zM281 252q-11 34 -19 68l-16 68q-14 -59 -33 -113q-8 -23 -17 -45t-20 -44q26 16 52 33t53 33z" />
    <glyph glyph-name="B" unicode="B" horiz-adv-x="611" 
d="M271 382q-66 -24 -124 -60.5t-112 -80.5q-7 -6 -10 -6q-4 0 -13.5 5t-9.5 10t6.5 10.5t10.5 7.5q51 36 103.5 69.5t109.5 57.5q24 10 52 20t57.5 18t58.5 13t56 5q84 0 84 -38q0 -13 -9 -27.5t-32 -35.5q-29 -27 -60.5 -49.5t-66.5 -40.5q17 2 26 2.5t20 0.5q37 0 69 -8
t55.5 -22.5t37 -34t13.5 -42.5q0 -28 -20.5 -53.5t-65.5 -53.5q-48 -29 -102 -45t-108 -16h-13t-14 2q-8 41 -9 87t-1 81q0 57 3 114.5t8 109.5zM305 247q42 25 79 47t74 53q25 20 36 33.5t11 24.5q0 23 -50 23q-38 0 -76.5 -8.5t-73.5 -24.5q-3 -36 -5.5 -76t-6.5 -79z
M299 19q8 -1 12.5 -1h10.5q42 0 87.5 14.5t86.5 40.5q63 40 63 82q0 32 -38 57q-20 14 -47 20.5t-63 6.5q-64 0 -120 -31q0 -11 -0.5 -16.5t-0.5 -16.5q0 -57 2 -92t7 -64z" />
    <glyph glyph-name="C" unicode="C" horiz-adv-x="370" 
d="M332 127q5 7 11 7q9 0 9 -11t-24 -38q-39 -46 -86 -70.5t-95 -24.5q-50 0 -79.5 35.5t-29.5 95.5q0 31 8 64.5t22.5 67.5t35 67.5t46.5 63.5q42 48 81 72.5t71 24.5q17 0 26.5 -8.5t9.5 -22.5q0 -26 -16 -53.5t-51 -57.5q-4 -3 -14 -12.5t-17 -9.5q-4 0 -7.5 4t-3.5 9
q0 2 4 6.5t9 9t9.5 8.5t6.5 6q6 6 15 15.5t17 20t13.5 21.5t5.5 20q0 16 -16 16q-23 0 -55.5 -23.5t-64.5 -62.5q-19 -24 -37.5 -52t-32.5 -58t-23 -62t-9 -63q0 -51 25 -80.5t70 -29.5q35 0 73 21.5t69 56.5l24 27v0z" />
    <glyph glyph-name="D" unicode="D" horiz-adv-x="667" 
d="M198 62q-18 -35 -36.5 -70t-41.5 -68q-14 -20 -26 -20q-8 0 -13.5 5.5t-5.5 13.5q0 4 2.5 16t3.5 16q15 61 15 128q0 34 -2 68t-8 68q-2 7 -2.5 10.5t-0.5 5.5v3.5v5.5q0 13 18 13q7 0 10 -1.5t5 -7.5q8 -23 14.5 -46t19.5 -45q8 -14 19 -27t22 -24q19 38 38 75.5
t39 76.5q21 42 43 83.5t42 83.5q-36 11 -61 14.5t-57 3.5q-135 0 -175 -67q-6 -10 -11 -10q-4 0 -7.5 5.5t-3.5 9.5q0 8 9.5 20t23.5 22q56 42 163 42q34 0 62.5 -4t65.5 -15q10 20 23.5 45t22.5 41q23 38 43 38q9 0 16 -8t7 -19q0 -12 -10 -12q-4 0 -5.5 2t-4.5 5
q-2 2 -4 2q-5 0 -13 -14q-12 -23 -24 -45t-23 -45q33 -13 71.5 -34t72.5 -50q105 -90 105 -190q0 -43 -21 -74t-54 -51t-72.5 -29.5t-76.5 -9.5q-65 0 -115 15t-102 49zM211 87q48 -29 101 -46.5t110 -17.5q30 0 62 8t57.5 24.5t42 42t16.5 60.5q0 45 -21.5 91.5t-59.5 82.5
q-27 26 -59 45t-81 37q-20 -39 -42 -84.5t-45 -89.5q-20 -39 -40.5 -77t-40.5 -76zM176 78q-20 19 -33 35.5t-25 41.5q2 -24 2.5 -37.5t0.5 -30.5q0 -38 -4 -71t-13 -69q9 14 14.5 24t12 21t14.5 26.5t21 40.5l10 19v0z" />
    <glyph glyph-name="E" unicode="E" horiz-adv-x="481" 
d="M77 145q23 15 54 32.5t65 31.5t68 23.5t63 9.5q38 0 38 -14q0 -12 -19 -12h-23q-27 0 -62 -10.5t-70 -26t-66 -35t-50 -37.5q6 -85 94 -85q30 0 65.5 11.5t70.5 28.5t66.5 37.5t54.5 38.5l3.5 3.5t8.5 7t10 6.5t8 3q9 0 9 -7q0 -6 -8.5 -16t-20 -20t-22.5 -18t-15 -11
q-25 -17 -54.5 -33.5t-60.5 -29.5t-63.5 -20.5t-63.5 -7.5q-25 0 -46.5 5.5t-38 17.5t-26 30t-9.5 44q0 31 10 66.5t29 72t44.5 72t57.5 66.5q15 14 35.5 30.5t44 30.5t48 23.5t46.5 9.5q21 0 37.5 -7.5t16.5 -16.5q0 -8 -11.5 -16t-19.5 -8q-5 0 -8 3.5t-5 5.5q-8 8 -23 8
q-13 0 -30.5 -6.5t-36.5 -17.5t-38.5 -26.5t-37.5 -33.5q-42 -43 -72.5 -94t-46.5 -109z" />
    <glyph glyph-name="F" unicode="F" horiz-adv-x="537" 
d="M333 213q-2 -26 -2 -39.5v-30.5q0 -39 2.5 -68t8.5 -54q11 -41 36 -41q3 0 13 0.5t10 -7.5q0 -7 -10 -11.5t-25 -4.5q-35 0 -51.5 42t-16.5 133v35t2 35q-22 -9 -42 -18q-17 -8 -36 -16t-33 -15l-6 -2q-5 0 -8 5.5t-3 9.5q0 3 3.5 6.5t15.5 8.5l110 48q0 10 0.5 17l1 14
t1 15.5t1.5 20.5q3 43 9 89q2 14 2.5 19t2.5 7q1 2 6.5 4.5t11.5 4.5t12 3t8 1q4 0 4 -3q0 -2 -5 -22.5t-11 -58.5q-5 -26 -8 -50.5t-3 -50.5q42 11 69.5 15t52.5 4q61 0 61 -24q0 -8 -7.5 -14.5t-17.5 -6.5q-6 0 -9.5 2t-5.5 10q-2 5 -6.5 7t-16.5 2q-31 0 -61.5 -6.5
t-59.5 -14.5zM607 468q0 -10 -12 -21.5t-21 -11.5q-7 0 -8 8q-5 31 -22.5 37t-46.5 6q-53 0 -116.5 -14t-126 -38.5t-118.5 -57t-93 -68.5q-8 -8 -12.5 -10.5t-9.5 -2.5q-6 0 -10.5 5.5t-4.5 10.5q0 8 12 19q43 36 101 68.5t121.5 57.5t128.5 40t122 15q62 0 91 -16
q11 -7 18 -14t7 -13z" />
    <glyph glyph-name="G" unicode="G" horiz-adv-x="389" 
d="M287 147q-19 -24 -42.5 -49.5t-48.5 -47.5q-30 -26 -53.5 -38t-48.5 -12q-58 0 -58 62q0 31 12 72t33 84.5t49.5 86.5t60.5 79q86 95 167 95q27 0 27 -19q0 -6 -3 -16.5t-11 -10.5q-3 0 -5.5 2.5l-4.5 4.5q-9 10 -24 10q-26 0 -60 -22.5t-70 -64.5q-29 -33 -53.5 -72
t-42.5 -78t-28 -75.5t-10 -64.5q0 -40 35 -40q19 0 42.5 15.5t46 37.5t41.5 45t30 38q-2 3 -2.5 4t-2 2.5t-3.5 4t-7 7.5q-3 3 -3 7q0 3 5 6.5t11 6.5t11.5 5t7.5 2q5 0 8.5 -4t11.5 -20q30 -58 43.5 -120t13.5 -127q0 -119 -44 -184q-29 -43 -86 -43q-33 0 -62 12.5t-54 33
t-45.5 46.5t-36.5 52q-6 10 -7.5 13.5t-1.5 6.5q0 2 4 5.5t9 7.5t10.5 6.5t7.5 2.5q3 0 6 -10q12 -36 27 -59q13 -19 30.5 -35.5t38 -28.5t41.5 -19t41 -7q39 0 58 34q33 57 33 151q0 61 -9 112.5t-35 106.5z" />
    <glyph glyph-name="H" unicode="H" horiz-adv-x="537" 
d="M196 205q0 -12 -0.5 -24t-0.5 -24q0 -39 1.5 -67t4.5 -52q8 -63 34 -84q7 -6 7 -8q0 -4 -11 -12.5t-15 -8.5q-14 0 -26.5 19t-17.5 48q-8 44 -9 88.5t-1 89.5v27q-24 -5 -47.5 -13t-46.5 -16q-18 -7 -24.5 -9t-10.5 -2q-6 0 -13.5 8t-10.5 13q0 3 7 5t9 3q16 5 35 11
t38 11.5t36 10t29 6.5v8q0 12 0.5 29.5t1 37t2 40t3.5 39.5l5 56q2 13 2.5 17t3.5 8q1 2 6.5 5t12.5 5.5t13 4.5t8 2q5 0 5 -5q0 -2 -1.5 -7.5t-3 -12.5t-3.5 -14.5t-3 -12.5q-5 -21 -8.5 -47t-5.5 -53t-3.5 -52t-1.5 -42q37 8 77.5 12t85.5 4h10.5h6.5t7 -0.5t13 -0.5
q14 -1 19 -3.5t5 -7.5q0 -7 -7 -17.5t-14 -10.5q-2 0 -5.5 1t-4.5 2q-14 6 -34 8t-35 2q-64 0 -124 -15zM433 401q0 8 5 12q7 5 19.5 9.5t20.5 4.5q6 0 6 -5q0 -7 -3 -17.5t-5 -18.5q-5 -23 -7 -44.5t-4 -52.5q-2 -36 -3 -72.5t-1 -72.5q0 -35 1.5 -55t6.5 -32q3 -9 7 -13
t18 -13q6 -3 6 -7q0 -6 -9.5 -16t-15.5 -10q-5 0 -15 7q-11 8 -17.5 17.5t-10.5 24t-5.5 36t-1.5 54.5q0 26 1 52l2 52q1 40 1.5 80t3.5 80z" />
    <glyph glyph-name="I" unicode="I" horiz-adv-x="185" 
d="M115 245q0 -31 0.5 -54t1 -41t2 -33t3.5 -30q4 -28 8.5 -40t14.5 -23q4 -3 4 -5q0 -5 -11 -14t-17 -9q-11 0 -18 13t-12 42q-3 15 -4.5 39.5t-3 53t-2 58t-0.5 53.5q0 47 2 93.5t4 93.5q0 8 5 12q9 7 20 12t16 5q10 0 10 -10q0 -5 -1 -9q-14 -51 -18 -103t-4 -104z" />
    <glyph glyph-name="J" unicode="J" horiz-adv-x="370" 
d="M249 436q-4 11 -6.5 15.5t-9.5 12.5q-4 5 -4 9t4.5 7.5t10.5 6t12 4t9 1.5q7 0 9 -6q13 -29 21 -71t12.5 -87.5t6 -89t1.5 -75.5q0 -149 -25.5 -224t-76.5 -75q-76 0 -136 116q-20 39 -31.5 83.5t-11.5 83.5q0 37 21 37q8 0 14.5 -8t6.5 -19q0 -5 -4 -8.5t-7 -5.5
q-5 -3 -5 -9q0 -21 5.5 -46t14.5 -49.5t21 -47.5t24 -40q42 -60 85 -60q23 0 35 17t18 37q11 33 16.5 77.5t5.5 98.5q0 67 -5.5 140.5t-19.5 139.5q-8 2 -12.5 2h-12.5q-20 0 -43.5 -4t-43.5 -12q-14 -5 -19.5 -8.5t-5.5 -6.5q0 -5 11 -12.5t25 -13.5q2 -1 7.5 -2.5
t5.5 -5.5q0 -5 -7.5 -14.5t-12.5 -9.5q-10 0 -32 14q-16 11 -25 21.5t-9 19.5q0 11 13.5 22.5t36 20.5t52 15.5t61.5 8.5z" />
    <glyph glyph-name="K" unicode="K" horiz-adv-x="463" 
d="M112 191q0 -32 2 -64t6 -64q3 -23 5.5 -38t7 -24.5t10 -15t14.5 -9.5q10 -3 10 -11q0 -7 -5.5 -16t-13.5 -9q-17 0 -32.5 24.5t-21.5 58.5q-4 19 -7 47t-5.5 59t-3.5 63.5t-1 62.5q0 9 0.5 39t1 63.5t2.5 62t5 35.5q4 8 17 13t21 5q6 0 6 -4q0 -1 -2 -11l-2 -10
q-6 -32 -9 -70.5t-5 -74.5q-1 -20 -1.5 -40.5t0.5 -36.5q52 42 97 96q30 36 52 66.5t43 65.5q2 5 9 17t12 14q2 1 8.5 2.5t13 2t12 -1t5.5 -5.5q0 -2 -4 -9q-23 -35 -46.5 -68.5t-49.5 -65.5q-26 -33 -56 -66.5t-59 -56.5q40 -44 82 -81.5t81.5 -64.5t74 -42.5t58.5 -15.5
q5 0 11 1t11 1q9 0 9 -9q0 -18 -38 -18q-21 0 -43.5 7t-43.5 17.5t-41 23.5t-37 26q-42 31 -81 67.5t-71 67.5l-8 -6v0z" />
    <glyph glyph-name="L" unicode="L" horiz-adv-x="389" 
d="M38 -57q12 35 22 78.5t17.5 89t12 91t4.5 83.5q0 102 -35 137q-5 5 -11.5 10.5t-6.5 13.5q0 14 37 14q14 0 24.5 -14.5t16.5 -39.5q5 -22 8.5 -52.5t3.5 -58.5q0 -30 -4.5 -72.5t-12 -88t-17.5 -89.5t-21 -77q24 16 53 33t60 30.5t62.5 22t61.5 8.5q19 0 36 -3.5t27 -8.5
q6 -3 15.5 -10.5t9.5 -15.5q0 -7 -10.5 -14.5t-16.5 -7.5q-5 0 -8 2t-15 13q-19 16 -48 16q-50 0 -138 -46q-42 -22 -84 -51t-69 -54q-8 -8 -14 -8q-5 0 -13.5 7t-8.5 12q0 4 12 13l50 37v0z" />
    <glyph glyph-name="M" unicode="M" horiz-adv-x="889" 
d="M585 40q0 -2 1.5 -4t1.5 -4q0 -1 -2 -5q-2 -2 -5 -7t-7 -10t-7.5 -9t-4.5 -4q-4 0 -17 20.5t-29 52.5q-31 60 -55 122.5t-47 126.5q-12 -61 -30 -121t-46 -117q-21 -42 -47 -76t-55.5 -58.5t-61 -37.5t-61.5 -13q-35 0 -66 21t-54 59q-18 30 -18 49q0 27 30 27
q21 0 21 -14q0 -8 -7 -10q-5 -1 -9.5 -2.5t-4.5 -7.5q0 -8 10 -28q16 -32 44.5 -51t59.5 -19q25 0 52 13t53.5 36t49.5 55.5t41 70.5q10 22 22.5 58t24 75t19 75.5t7.5 60.5q0 15 -4 28t-14 33q-2 6 -3.5 8.5t-1.5 4.5q0 3 4.5 7.5t10.5 8t11.5 6.5t8.5 3q7 0 8 -9
q0 -1 1.5 -6t3.5 -10.5t3.5 -10.5t2.5 -7q14 -45 28.5 -89t31.5 -88t36 -86.5t44 -82.5q5 17 9.5 32t10.5 31t13.5 33t17.5 39q23 51 49 100.5t58 94.5q0 24 0.5 38t2.5 34q0 15 13 18q5 1 12 2.5t12 1.5q8 0 8 -7q0 -5 -1 -8q-9 -51 -9 -151q-1 -94 9.5 -158.5t32.5 -107.5
q12 -23 28 -36t33 -13q15 0 22.5 6t15.5 6q6 0 6 -7t-6.5 -12.5t-15 -9t-17.5 -5t-15 -1.5q-49 0 -80 56q-14 24 -24.5 59.5t-15.5 77.5q-2 13 -3.5 31.5t-2.5 38t-1.5 39.5t-0.5 37v22q-11 -14 -23 -34.5t-23 -42.5t-21 -43.5t-17 -38.5q-6 -15 -14.5 -35t-16 -41.5
t-13.5 -42.5t-7 -37z" />
    <glyph glyph-name="N" unicode="N" horiz-adv-x="722" 
d="M422 357q-14 -57 -31 -123t-43 -126q-41 -95 -99.5 -146.5t-126.5 -51.5q-54 0 -84 38t-30 106q0 13 1.5 28.5t3.5 28.5q4 20 13 20q7 0 7 -8q0 -5 -2 -21.5t-2 -30.5q0 -24 4.5 -48t15.5 -43t29.5 -31t47.5 -12q37 0 68 17t55 44t42 59.5t30 63.5q10 25 21.5 61t22.5 75
t19.5 77.5t11.5 68.5q-9 19 -17.5 32t-19.5 25q-5 5 -6 7t-1 4t4.5 5.5t10 6.5t11 5.5t7.5 2.5t5 -4t4 -6t3.5 -6t5.5 -10q32 -59 62 -117.5t59 -118.5q21 -42 42 -83t45 -81q-2 15 -2.5 23.5t-0.5 25.5q0 37 3.5 81.5t9 89t12.5 83.5t13 66q7 28 13 50t10 32q4 9 16 11.5
t21 2.5q5 0 5 -3q0 -1 -5 -15q-11 -26 -22.5 -70.5t-20.5 -96.5q-11 -62 -16.5 -124t-5.5 -125q0 -23 0.5 -43.5t2.5 -28.5t8 -16q2 -4 2 -5q0 -2 -4 -6t-9 -7.5t-10 -6t-7 -2.5q-4 0 -10 9q-31 55 -60 109t-58 111q-19 37 -36.5 74t-37.5 73z" />
    <glyph glyph-name="O" unicode="O" horiz-adv-x="593" 
d="M192 338q-4 0 -4 4q0 6 17 15q32 15 71.5 23.5t81.5 8.5q48 0 88 -11t69 -30.5t45 -46t16 -58.5q0 -48 -28.5 -95t-83.5 -90q-107 -83 -228 -83q-45 0 -83 14.5t-65 40.5t-42.5 63.5t-15.5 83.5q0 57 26 112t74 100q44 42 98 66.5t101 24.5q34 0 54 -11t20 -29
q0 -10 -11.5 -18.5t-20.5 -8.5q-6 0 -10 5.5t-7 10.5q-8 13 -21.5 20t-28.5 7q-16 0 -35.5 -6.5t-39.5 -17.5t-40.5 -26t-37.5 -33q-39 -40 -60 -87t-21 -95q0 -41 14 -75.5t39 -60t59.5 -40t74.5 -14.5q53 0 101.5 21.5t88.5 54.5q86 71 86 161q0 61 -47.5 96.5
t-128.5 35.5q-38 0 -78 -7t-70 -19q-1 0 -7.5 -3t-9.5 -3z" />
    <glyph glyph-name="P" unicode="P" horiz-adv-x="537" 
d="M288 187q-1 -8 -1 -13.5v-9.5q0 -54 6 -108q5 -44 24 -44q8 0 16 7q6 5 8 5.5t5 0.5q10 0 10 -9q0 -6 -5 -12t-12 -10t-15 -6.5t-13 -2.5q-20 0 -32 15t-18 48q-6 34 -6.5 74t-0.5 75q0 53 1.5 105t9.5 103q-62 -29 -118.5 -66t-110.5 -78q-6 -5 -15 -5q-12 0 -12 8
q0 6 10 15q27 21 57 42t62 41t64.5 37.5t62.5 30.5q20 9 45.5 16.5t52.5 13t53 9t48 3.5q45 0 70 -14.5t25 -41.5q0 -31 -23 -66t-56 -66.5t-70.5 -55.5t-65.5 -32q-13 -4 -23 -5.5t-33 -3.5zM289 214q20 2 28.5 3.5t18.5 3.5q19 5 42.5 17.5t44.5 28.5q12 10 29 26.5
t32.5 36t26 40t10.5 37.5q0 21 -14.5 30t-48.5 9q-14 0 -34 -2t-41 -5.5t-41 -8.5t-36 -10q-3 -15 -5 -26t-3.5 -22.5t-3 -26t-2.5 -35.5q-1 -17 -1.5 -29t-1 -22t-0.5 -20.5v-24.5z" />
    <glyph glyph-name="Q" unicode="Q" horiz-adv-x="593" 
d="M360 -2q-63 -23 -125 -23q-45 0 -83 14.5t-65 40.5t-42.5 63.5t-15.5 83.5q0 55 26 109t68.5 97t96 70t108.5 27q34 0 54 -11t20 -29q0 -10 -11.5 -18.5t-20.5 -8.5q-7 0 -10.5 5.5t-6.5 10.5q-8 13 -21.5 20t-28.5 7q-16 0 -35.5 -6.5t-40 -17.5t-40.5 -26t-38 -33
q-38 -40 -59 -87t-21 -95q0 -41 14 -76t39.5 -60.5t60 -39.5t75.5 -14q25 0 40.5 3t39.5 11l-63 49q-10 7 -10 11q0 3 4.5 7.5t11 9t12.5 7.5t9 3t5 -1q1 -1 2.5 -2t5 -4.5l10.5 -10.5l19 -19q8 -8 17.5 -16t17.5 -16q73 38 113 91.5t40 113.5q0 61 -47.5 96.5t-128.5 35.5
q-38 0 -78 -7t-70 -19q-1 0 -7.5 -3t-9.5 -3q-4 0 -4 4q0 6 17 15q32 15 71.5 23.5t81.5 8.5q48 0 88 -11t69 -30.5t45 -46t16 -58.5q0 -36 -16.5 -70.5t-42 -64.5t-57 -53.5t-61.5 -38.5l4 -4t4 -3.5t10 -8.5t22 -19q13 -11 28 -23t32 -21.5t34.5 -16t35.5 -6.5q7 0 12 1.5
t10 1.5t5 -6q0 -8 -11 -13.5t-26 -5.5q-17 0 -37.5 6t-40.5 17q-32 17 -61.5 39t-58.5 44z" />
    <glyph glyph-name="R" unicode="R" horiz-adv-x="648" 
d="M326 407q-3 -9 -4.5 -15.5t-3.5 -11.5q-3 -11 -6.5 -27.5t-7 -35.5t-7.5 -39t-7 -37q-4 -26 -7.5 -55t-6.5 -57t-4.5 -52t-1.5 -39q0 -37 5 -54q3 -9 3 -13q0 -6 -6.5 -10.5t-14.5 -4.5q-14 0 -17.5 13.5t-3.5 57.5q0 54 6 107.5t14 107.5q5 38 11.5 76t13.5 76
q-43 -14 -82 -31t-71 -35t-55 -35.5t-34 -33.5q-5 -8 -8.5 -10.5t-9.5 -2.5q-5 0 -10 3.5t-5 8.5q0 6 15 23q19 22 50 42t65.5 37.5t69.5 31.5t63 23q56 19 107 28t102 9q134 0 134 -59q0 -20 -13 -41t-33.5 -40.5t-47 -37.5t-53 -32t-50.5 -23t-41 -12q37 -46 81.5 -83.5
t96.5 -65.5q29 -15 55.5 -25.5t37.5 -10.5q3 0 5.5 0.5t6.5 0.5q8 0 8 -7t-11 -12t-25 -5q-28 0 -86 30q-71 36 -126.5 82t-100.5 111q-2 4 -2 5q0 3 4.5 5.5t10.5 4t11.5 2.5t8.5 1q5 0 7 -4l4 -8h4q21 0 55 15t67 38q39 29 60 55t21 47q0 22 -22.5 33.5t-64.5 11.5
q-38 0 -78 -4.5t-76 -16.5z" />
    <glyph glyph-name="S" unicode="S" horiz-adv-x="389" 
d="M168 442q0 20 19 31.5t48 11.5q18 0 41.5 -5.5t46.5 -15.5q19 -8 36.5 -19t31 -22t21.5 -21t8 -17q0 -4 -4 -9.5t-9.5 -10t-11 -7.5t-9.5 -3q-13 0 -13 13q0 4 1 7t1 7q0 11 -20 28.5t-48 31.5q-18 8 -35.5 13t-34.5 5q-26 0 -26 -18q0 -13 7.5 -40t17.5 -57t20 -57.5
t15 -41.5q17 -48 31 -99.5t14 -102.5q0 -106 -82 -106q-64 0 -137 76q-38 40 -61.5 79t-23.5 64q0 14 9.5 23.5t24.5 9.5q22 0 22 -11q0 -5 -4 -5.5t-8 -0.5q-21 0 -21 -17t21 -48.5t59 -71.5q35 -36 63 -52.5t57 -16.5q15 0 24 6.5t13.5 16.5t6 22.5t1.5 25.5q0 35 -11 84
t-32 109q-5 13 -16 43.5t-23 64.5t-21 63t-9 40z" />
    <glyph glyph-name="T" unicode="T" horiz-adv-x="463" 
d="M261 437q25 -74 37 -151q6 -36 9 -77.5t3 -77.5q0 -83 -19 -126.5t-56 -43.5q-45 0 -71 67q-7 19 -12.5 44.5t-5.5 41.5t11 16q5 0 7 -3t3 -12q3 -26 10.5 -50t16.5 -42t20 -28.5t22 -10.5q19 0 31 38t12 101q0 36 -3.5 75.5t-10.5 78.5t-16 72.5t-23 71.5
q-45 -24 -89.5 -54.5t-74.5 -72.5q-5 -8 -8 -10t-8 -2t-12 3t-7 9q0 3 2 7t10 12q39 41 90 77t108 63t116.5 42.5t116.5 15.5q75 0 75 -24q0 -3 -3.5 -9t-8 -12.5t-10 -11t-8.5 -4.5q-7 0 -10 12q-4 14 -13 18.5t-29 4.5q-44 0 -99.5 -13t-102.5 -35z" />
    <glyph glyph-name="U" unicode="U" horiz-adv-x="630" 
d="M509 267q-22 -54 -50 -112.5t-58 -109.5q-8 -14 -20.5 -33.5t-28 -38t-33 -31.5t-36.5 -13q-18 0 -25 12t-7 44q0 64 6 127l14 150t15 151q-52 -1 -96 -9.5t-75.5 -23t-49 -34.5t-17.5 -43q0 -7 2.5 -15.5t7 -16t11 -12.5t14.5 -5q5 0 7.5 -0.5t2.5 -6.5q0 -8 -5 -15
t-12 -7q-11 0 -21 7t-17 18t-11 23.5t-4 23.5q0 71 99 111q35 14 74 22t91 13v17q0 9 0.5 11.5t3.5 4.5q6 5 17 10t18 5q8 0 8 -8q0 -6 -1.5 -11.5t-2.5 -11.5q-10 -72 -19 -143t-17 -143q-5 -44 -8 -87t-3 -88q0 -4 -0.5 -11t0.5 -14t3.5 -12t8.5 -5q22 0 83 103
q30 51 56 102.5t49 105.5q12 27 17 43t5 27q0 7 -2 21.5t-6 44.5q0 3 -1.5 9.5t-2.5 14t-2 14.5t-1 11t5 8t11.5 7t13 5t10.5 2q7 0 7 -9v-57q0 -34 1.5 -73.5t4.5 -80t8 -79.5t13 -71q3 -11 5.5 -24t7.5 -24.5t13 -20.5t21 -12q2 -1 6.5 -2.5t4.5 -4.5q0 -2 -3 -6.5t-7 -10
t-8.5 -9.5t-8.5 -4q-11 0 -23.5 10.5t-20.5 27.5q-13 26 -19 57.5t-10 60.5q-4 31 -6.5 62t-6.5 62z" />
    <glyph glyph-name="V" unicode="V" horiz-adv-x="556" 
d="M275 399q-42 -1 -75 -7t-60 -17q-39 -16 -61.5 -45t-22.5 -64q0 -14 4 -28t11.5 -25.5t16.5 -19t20 -7.5q8 0 9 1t4 1q9 0 9 -12q0 -9 -6.5 -14.5t-16.5 -5.5q-18 0 -31.5 11.5t-23.5 28t-15 34.5t-5 32q0 45 22.5 75t57 49t75 29t75.5 15l13 2v17q0 8 2.5 12t10.5 11
q10 10 18 10q10 0 10 -12q0 -2 -0.5 -4.5t-0.5 -5.5q-4 -37 -6 -70.5t-2 -80.5q0 -54 3 -107.5t14 -107.5q11 -60 25.5 -86.5t35.5 -26.5q14 0 25.5 14t24.5 45q20 51 31 102.5t11 100.5q0 43 -9 76t-23 51q-4 3 -7 7q-6 8 -6 10q0 3 3.5 6t8.5 5.5t10 4t8 1.5q8 0 21 -19
q14 -20 21.5 -53.5t7.5 -72.5q0 -26 -4 -55t-10.5 -59t-16 -60t-21.5 -56q-20 -45 -39.5 -64.5t-42.5 -19.5q-46 0 -70 78q-9 30 -15.5 70t-10.5 83t-6 85t-2 77v26t1 35z" />
    <glyph glyph-name="W" unicode="W" horiz-adv-x="593" 
d="M285 258q-42 -70 -83.5 -140t-86.5 -139q-6 -9 -14.5 -21.5t-18 -24.5t-20.5 -20t-23 -8q-17 0 -17 16v7t1 9q14 78 29 155t34 154q14 58 30 116.5t30 116.5q2 11 11 13q5 2 16.5 6t17.5 4q5 0 5 -4q0 -2 -2 -8q-10 -23 -24 -66t-29 -97q-11 -36 -20.5 -74t-18.5 -73.5
t-16 -68t-11 -58.5q-1 -5 -3.5 -18t-5.5 -28t-5.5 -28.5t-2.5 -19.5q0 -4 3 -4q4 0 19 22q28 42 53.5 84t50.5 85q21 35 42 71t38 74q6 13 6 20q0 5 -1.5 7.5t-1.5 5.5q0 2 -0.5 3t-0.5 2q0 3 6 7.5t14 8.5t16 6.5t11 2.5q7 0 7 -8t-0.5 -16.5t-0.5 -16.5q0 -20 2.5 -46
t6.5 -51.5t8.5 -48t8.5 -35.5q4 -16 10 -37.5t16 -40.5t24.5 -32.5t35.5 -13.5q18 0 34 11t27 31t17.5 47t6.5 59q0 38 -9.5 78.5t-27.5 74.5q-12 23 -26.5 38.5t-25.5 15.5q-4 0 -6.5 -1.5t-6.5 -1.5q-7 0 -12.5 10t-5.5 16q0 13 18 13q37 0 71 -45q15 -20 27.5 -45
t21.5 -51.5t14 -53.5t5 -51q0 -36 -10 -67.5t-27.5 -55t-41 -37t-50.5 -13.5q-38 0 -63 27q-13 14 -23.5 37.5t-18.5 49t-13.5 50.5t-8.5 43q-5 25 -7 37t-3 17.5t-1 8t-1 8.5z" />
    <glyph glyph-name="X" unicode="X" horiz-adv-x="481" 
d="M210 186q-32 -49 -55 -104t-43 -110q-17 -44 -25.5 -78.5t-14.5 -74.5q-1 -6 -1.5 -13t-3 -13t-7 -10t-12.5 -4q-17 0 -17 18q0 10 4 29.5t11.5 45t17 54t20.5 56.5q10 26 23 56.5t27 60.5t29 58.5t30 51.5q-19 27 -34 50.5t-28.5 45t-27.5 42t-30 41.5q-2 2 -6.5 8
t-4.5 8t5 6t11.5 7.5t13 6t8.5 2.5q4 0 8 -7q27 -44 53.5 -87.5t54.5 -87.5q29 44 61.5 85.5t73.5 75.5q66 57 124 57q52 0 52 -53q0 -23 -10 -23q-5 0 -7.5 5.5t-4.5 8.5q-9 19 -19.5 26.5t-24.5 7.5q-41 0 -96 -49q-39 -35 -72 -78t-62 -87q22 -32 46 -62t52 -57
q14 -14 24.5 -24t21 -18t22.5 -16t29 -18q10 -6 13 -8.5t3 -7.5q0 -11 -14 -11q-17 0 -42.5 14.5t-55 40t-61 60t-59.5 73.5z" />
    <glyph glyph-name="Y" unicode="Y" horiz-adv-x="537" 
d="M257 412q-32 -1 -74 -9.5t-74 -22.5q-26 -11 -40.5 -24t-14.5 -25q0 -14 19 -19q11 -3 11 -13q0 -15 -20 -15q-17 0 -28.5 12t-11.5 29q0 75 218 115l11 2l-2.5 7.5t-1.5 6.5q0 3 4.5 6t10.5 5.5t12 3.5t9 1q7 0 8 -7q1 -8 1 -23t1 -42q1 -102 6 -206q2 -35 4.5 -68.5
t4.5 -68.5q0 -4 1 -10.5t6 -6.5q4 0 12.5 12.5t17 28t16 30t9.5 19.5q19 40 35.5 80.5t29.5 82.5q-5 14 -10.5 27.5t-12.5 26.5q-4 6 -4.5 7.5t-0.5 3.5q0 3 5 6.5t11 6.5t12 5.5t8 2.5q5 0 8 -6.5t11 -34.5q8 -31 12.5 -53t7.5 -48q4 -32 6.5 -65t2.5 -66q0 -24 -2 -56.5
t-8.5 -67.5t-17.5 -69t-28 -60.5t-42 -43t-58 -16.5q-44 0 -82.5 25.5t-67.5 73.5q-9 15 -17 34.5t-15 41t-11 43t-4 38.5q0 21 31 21q9 0 9 -9q0 -8 -1.5 -16t-1.5 -16q0 -41 13.5 -79t36.5 -67.5t52 -47.5t61 -18q27 0 46.5 15t33.5 39t22 54t13 60t6.5 57t1.5 46
q0 38 -3.5 75t-12.5 74q-32 -90 -79 -172q-21 -37 -33.5 -50.5t-28.5 -13.5q-12 0 -18 11t-8.5 26t-2.5 30t-1 24q-7 80 -9 159.5t-10 160.5z" />
    <glyph glyph-name="Z" unicode="Z" horiz-adv-x="574" 
d="M337 233q-26 -26 -49.5 -51t-49.5 -51q27 -18 59 -36.5t66 -34.5t68.5 -26t66.5 -10q9 0 18 1t17 6q3 2 9 2q3 0 9.5 -1t13.5 -2.5t12 -4t5 -5.5q0 -5 -13 -11q-29 -13 -69 -13t-77 10.5t-72.5 27t-69.5 36.5t-67 39q-23 -20 -46.5 -40t-48.5 -37q-5 -4 -15.5 -11
t-22.5 -14t-22.5 -12.5t-16.5 -5.5q-7 0 -17.5 8t-10.5 15q0 1 2 7q26 53 38 97.5t13 82.5q0 11 10.5 13t19.5 2q7 0 13.5 -4.5t11.5 -7.5l92 -55q20 20 41 39.5t40 42.5q-13 -2 -25 -3t-23 -1q-22 0 -22 12q0 5 3.5 7t14.5 3q19 2 38 3t37 3q15 18 30 35t29 36
q14 18 21.5 29.5t15.5 25.5q5 10 13 11q3 0 9.5 1t13 1t11.5 -2t5 -6q0 -3 -2.5 -6t-8.5 -11q-24 -29 -48 -56t-49 -55q17 2 26.5 2.5t26.5 2.5q10 1 23 2.5t25 3t21 2.5t12 1q12 0 12 -10q0 -16 -28 -17q-13 -1 -32.5 -2t-39.5 -2.5t-38 -3t-29 -2.5zM208 298q0 -8 -19 -8
q-31 0 -31 42q0 46 37 78q26 23 63.5 33t95.5 10q53 0 106 -9q17 -2 23 -4t6 -7t-11 -13.5t-15 -8.5q-2 0 -3 0.5l-3 1.5q-19 10 -42 13.5t-58 3.5q-21 0 -49.5 -3t-53.5 -13t-42.5 -27.5t-17.5 -47.5q0 -14 7 -24q2 -2 4.5 -7.5t2.5 -9.5zM99 182q-6 -42 -19 -83.5
t-30 -79.5q38 21 74 50.5t65 55.5z" />
    <glyph glyph-name="bracketleft" unicode="[" horiz-adv-x="333" 
d="M88 -7q-8 28 -11.5 55.5t-3.5 68.5q0 89 15 176.5t33 174.5q32 14 66.5 21.5t69.5 7.5q38 0 64 -7.5t26 -18.5q0 -5 -4 -8.5t-9 -3.5q-6 0 -15 3q-14 5 -28 7t-31 2q-26 0 -54 -5.5t-51 -16.5q-10 -35 -18.5 -75.5t-15 -83.5t-10 -85t-3.5 -78q0 -29 3.5 -64t9.5 -61
q34 10 57 14t49 4q20 0 38 -1t38 -3q14 -1 14 -9q0 -6 -7 -7.5t-33 -1.5h-25q-36 0 -75.5 -8t-71.5 -26q-5 -3 -7 -3t-6 3t-9 7t-8.5 8t-3.5 5q0 2 7.5 5t9.5 4z" />
    <glyph glyph-name="backslash" unicode="\" horiz-adv-x="333" 
d="M42 450q-4 7 -4 10q0 5 14 5q11 0 21.5 -0.5t15.5 -11.5q26 -53 50.5 -105t50.5 -105q29 -58 57.5 -114t60.5 -113q2 -4 7 -13.5t5 -11.5q0 -6 -19 -5q-16 1 -19.5 1.5t-5.5 3.5q-1 1 -2 4t-5 11q-26 56 -52 111t-55 109q-23 43 -36 67.5t-20.5 38.5t-12 22.5t-10 19
t-15 27.5t-26.5 49z" />
    <glyph glyph-name="bracketright" unicode="]" horiz-adv-x="333" 
d="M253 465q8 -28 11.5 -55.5t3.5 -68.5q0 -88 -14.5 -176t-33.5 -175q-32 -14 -66.5 -21.5t-69.5 -7.5q-37 0 -63.5 7.5t-26.5 18.5q0 12 13 12q6 0 15 -3q14 -5 28.5 -6.5t31.5 -1.5q26 0 53 4.5t51 16.5q9 35 17.5 76t15 83.5t10.5 84.5t4 78q0 32 -2.5 63t-10.5 63
q-20 -6 -35 -10t-29 -6t-29.5 -2.5t-35.5 -0.5q-12 0 -27 1.5t-26 2.5q-14 1 -14 9q0 6 7 7.5t33 1.5h25q35 0 75.5 8.5t71.5 26.5q3 2 7 2q1 0 5.5 -2.5t9 -6.5t8 -7.5t4.5 -5.5q0 -3 -7.5 -6t-9.5 -4z" />
    <glyph glyph-name="asciicircum" unicode="^" horiz-adv-x="426" 
d="M195 397h35l120 -297h-34l-103 257l-103 -257h-34z" />
    <glyph glyph-name="underscore" unicode="_" horiz-adv-x="500" 
d="M0 -75h500v-50h-500v50z" />
    <glyph glyph-name="grave" unicode="`" horiz-adv-x="148" 
d="M41 380q-9 6 -9 13q0 10 12 10q4 0 8 -1.5t11 -6.5l49 -37q13 -10 18 -16t5 -11q0 -4 -3 -7.5t-8 -3.5t-12 5l-71 55v0z" />
    <glyph glyph-name="a" unicode="a" 
d="M186 253q-2 6 -4.5 18t-2.5 16q0 8 11 13.5t17 5.5q12 0 12 -14q0 -45 4.5 -85.5t14.5 -88.5q9 -45 18 -67t20 -30q3 -2 7 -4q2 -2 4.5 -4t2.5 -4q0 -5 -5 -9t-10 -4q-12 0 -24 9.5t-18 23.5q-11 23 -20 61.5t-15 82.5q-11 -18 -25 -39.5t-30 -41.5q-6 -8 -18 -23.5
t-26 -31t-28.5 -27t-25.5 -11.5t-18.5 7t-7.5 17q0 14 7.5 37t20.5 48.5t29.5 51.5t34.5 47.5t35.5 34.5t32.5 13q4 0 7 -2zM188 212q0 14 -14 14t-35.5 -24t-41.5 -56t-34.5 -63.5t-14.5 -45.5q0 -6 4 -6q7 0 21.5 15t29.5 34t28 37.5t17 24.5q2 3 8.5 12t13.5 20
t12.5 21.5t5.5 16.5z" />
    <glyph glyph-name="b" unicode="b" horiz-adv-x="278" 
d="M73 188q24 40 58 64.5t65 24.5q51 0 51 -64q0 -33 -13 -65.5t-28 -61.5q-23 -44 -47 -70t-43 -26q-15 0 -29 17t-24 46q-17 51 -17 149q0 52 4 103.5t8 103.5q1 15 8 20t16 9t15 4q8 0 8 -8q0 -2 -2 -10.5t-4 -19t-5 -21.5t-4 -19q-7 -38 -10.5 -76t-5.5 -76l-1 -24v0z
M80 123q0 -19 3.5 -37t9 -32.5t13 -23t15.5 -8.5q12 0 28.5 19.5t34.5 55.5q17 32 26 62.5t9 50.5q0 38 -32 38q-12 0 -29 -9t-34 -26q-20 -20 -32 -40.5t-12 -49.5z" />
    <glyph glyph-name="c" unicode="c" horiz-adv-x="204" 
d="M182 112q4 6 10 6q8 0 8 -8q0 -9 -14 -30q-30 -45 -57 -65.5t-54 -20.5q-55 0 -55 75q0 42 18 87t49 80q34 37 63 37q11 0 17.5 -5t6.5 -13t-10 -20t-19 -12q-7 0 -7 5q0 3 3.5 7.5t3.5 9.5q0 3 -4 3q-7 0 -25 -19q-28 -29 -45 -72.5t-17 -81.5q0 -54 28 -54q9 0 19.5 6
t20.5 15t18.5 18.5t14.5 16.5q7 8 14 17t13 18z" />
    <glyph glyph-name="d" unicode="d" horiz-adv-x="315" 
d="M220 176q-10 -23 -25.5 -46t-32.5 -45q-32 -41 -65 -66.5t-53 -25.5q-23 0 -23 26q0 18 8 42.5t22 51.5t32 53.5t38 47.5t40.5 34t39.5 13q9 0 15 -5q-1 39 -2.5 78t-1.5 78v18t2 6q2 6 10.5 10.5t17.5 4.5q14 0 14 -7t-2.5 -20t-3.5 -21q-2 -14 -3 -25.5t-2 -23.5
t-1 -27v-35q0 -53 3.5 -105t14.5 -104q8 -38 15 -52.5t18 -14.5h7t4 -5q0 -8 -8.5 -13t-15.5 -5q-14 0 -24 13.5t-16 32t-9.5 37t-4.5 28.5q-3 18 -4.5 36t-3.5 36zM192 232q-18 0 -42.5 -24.5t-46.5 -57t-37.5 -66t-15.5 -51.5q0 -10 7 -10q11 0 35 22.5t50 55.5
q6 7 16.5 22t21.5 32.5t19 33.5t8 26q0 4 -2 10.5t-13 6.5z" />
    <glyph glyph-name="e" unicode="e" horiz-adv-x="222" 
d="M67 96q0 -11 1 -24t5.5 -24.5t13.5 -19t24 -7.5q23 0 46 16t40 29q19 15 24 15q7 0 7 -8q0 -5 -4.5 -11t-15.5 -16q-31 -27 -55.5 -39.5t-48.5 -12.5q-34 0 -52 25t-18 70q0 39 8 74t22 61.5t32.5 42t38.5 15.5q33 0 33 -35q0 -18 -8 -38.5t-21.5 -41t-32 -39
t-39.5 -32.5zM67 129q11 7 16 12t13 14q20 23 31.5 46t11.5 37q0 16 -12 16t-22 -16.5t-18.5 -37.5t-13.5 -41.5t-6 -29.5z" />
    <glyph glyph-name="f" unicode="f" horiz-adv-x="222" 
d="M121 253q29 13 60 21t53 8q13 0 13 -5q0 -11 -6 -15l-15 -10q-5 -3 -10 -3t-8 2.5t-7 2.5q-12 0 -36 -8t-44 -19q0 -11 1 -42t3 -70t5.5 -80.5t8.5 -74.5q8 -54 22.5 -83t32.5 -29q6 0 11.5 3t10.5 3q8 0 8 -7q0 -8 -12.5 -13t-19.5 -5q-25 0 -44.5 21t-30.5 60
q-10 35 -16 79t-9 87.5t-3.5 80t-0.5 56.5l-28 -16q-5 -3 -16 -10t-16 -7t-10 4.5t-5 9.5q0 3 3.5 6t8.5 6t9.5 5.5t6.5 3.5q11 8 23 14t24 11v12q0 34 3 72t14 70q23 68 68 68q21 0 21 -16q0 -7 -5.5 -16.5t-12.5 -9.5q-1 0 -5 2t-6 2q-9 0 -17 -13.5t-14 -36t-9.5 -53
t-3.5 -64.5v-4v0z" />
    <glyph glyph-name="g" unicode="g" 
d="M209 151q-13 -24 -28 -43t-34 -38q-74 -76 -107 -76q-8 0 -14 6t-6 14q0 16 6.5 38t16 43.5t20 41.5t18.5 34q26 42 47.5 65.5t34.5 23.5q2 0 4 -1q-2 4 -4.5 8.5t-2.5 9.5q0 8 12 13.5t18 5.5q9 0 14 -12q7 -15 15 -38t14 -46q14 -54 23.5 -110.5t9.5 -113.5
q0 -96 -34.5 -152t-92.5 -56q-40 0 -71.5 24t-54.5 54q-11 15 -11 23q0 5 3 8.5t8 3.5t9 -3.5t10 -13.5q48 -72 106 -72q46 0 71 43t25 121q0 24 -2 50.5t-5.5 52t-8 49.5t-9.5 43zM186 220q-2 2 -3.5 8t-6.5 6q-12 0 -32.5 -23.5t-43.5 -61.5q-5 -8 -12.5 -23t-15 -32.5
t-13 -33t-5.5 -23.5q0 -6 4 -6q8 0 28 16.5t46 45.5q8 9 18.5 21.5t20.5 27t16.5 29t6.5 26.5q0 8 -2 12t-6 11z" />
    <glyph glyph-name="h" unicode="h" horiz-adv-x="278" 
d="M83 -3q-10 -23 -14 -28.5t-16 -5.5q-10 0 -13 1.5t-3 7.5t1 26.5t2.5 47t3 55t3.5 51.5q2 30 5.5 71.5t6.5 79.5q4 44 7 91q1 11 2 14t6 5q18 10 28 10q7 0 7 -7q0 -5 -1 -11.5t-2 -12.5q-7 -43 -12 -85.5t-10 -86.5q-5 -51 -9 -101t-9 -101q11 29 22.5 57.5t22.5 57.5
q1 3 7.5 21t15 38.5t18 38t15.5 20.5q5 2 11 4t9 2q6 0 6 -4t-1 -11.5t-1 -27.5q0 -34 4 -61t12 -56l6 -18t9.5 -23t12.5 -19.5t15 -8.5q9 0 15 7t12 7q8 0 8 -8q0 -6 -4.5 -11.5t-11 -9t-14 -6t-12.5 -2.5q-16 0 -30 14t-25 39t-18.5 58.5t-8.5 72.5z" />
    <glyph glyph-name="i" unicode="i" horiz-adv-x="148" 
d="M69 129q0 -67 11 -98q7 -16 23 -17q11 0 11 -7q0 -9 -11.5 -13.5t-18.5 -4.5q-24 0 -34 34q-9 33 -10.5 71t-1.5 73q0 23 1 45t5 27q5 5 13.5 13t17.5 3q10 -4 10 -9q0 -4 -1 -7q-8 -32 -11.5 -58t-3.5 -52zM84 389q-5 -18 -5 -36v-14.5t1 -8.5l1.5 -4.5t0.5 -3.5
q0 -9 -16 -9q-10 0 -13 5t-4 22q-1 11 -1.5 22t-0.5 22q0 9 2 12t9 6q10 4 21 4q8 0 8 -6q0 -2 -2 -6q-1 -3 -1 -5z" />
    <glyph glyph-name="j" unicode="j" horiz-adv-x="167" 
d="M113 2q0 -228 -85 -228q-21 0 -39.5 13t-29.5 36q-10 20 -17 45.5t-7 42.5q0 15 12 15q8 0 11 -13q5 -20 10 -39t14 -37q19 -36 46 -36q13 0 21.5 10t14 24.5t7.5 29.5t4 26q4 25 5.5 45.5t1.5 52.5q0 27 -1 59t-3.5 64t-7 62t-12.5 53q-2 4 -3 7t-1 7q0 8 12.5 11.5
t18.5 3.5q7 0 9 -11q11 -60 15 -121t4 -122zM64 353q2 -8 2.5 -16t0.5 -12q0 -12 -15 -12q-12 0 -13 10q-3 16 -7 31.5t-12 29.5l-4 6t-2 7q0 10 20 10q16 0 20 -13q3 -11 5.5 -20.5t4.5 -20.5z" />
    <glyph glyph-name="k" unicode="k" horiz-adv-x="278" 
d="M76 67q-1 -4 -1 -9q0 -14 4.5 -26.5t12.5 -17.5q5 -3 6 -4t1 -3q0 -7 -7.5 -11.5t-12.5 -4.5q-18 0 -25.5 29t-7.5 101q0 33 2 71.5t4.5 75.5t5 67.5t4.5 48.5q1 12 2.5 16t6.5 7q6 4 15.5 7.5t16.5 3.5q6 0 6 -6q0 -8 -2.5 -17.5t-4.5 -17.5q-16 -79 -24 -161
q-2 -27 -3.5 -50t-1.5 -54v-10q15 16 28.5 33.5t26.5 35.5q11 16 20.5 32.5t18.5 33.5q3 7 14 10.5t19 3.5q9 0 9 -8q0 -5 -6 -12l-80 -108q34 -26 69.5 -49.5t72.5 -46.5q2 -2 12.5 -7.5t10.5 -7.5q0 -3 -8.5 -12t-11.5 -9q-2 0 -9.5 4t-16 9.5t-16 10t-9.5 6.5
q-29 19 -56.5 38.5t-56.5 39.5z" />
    <glyph glyph-name="l" unicode="l" horiz-adv-x="130" 
d="M126 9q0 -5 -6.5 -8.5t-15.5 -3.5q-22 0 -34.5 18.5t-20.5 63.5q-5 26 -7.5 61.5t-4.5 74.5q0 12 -0.5 39.5t0 57t2 54t5.5 30.5q4 5 15 9t17 4q9 0 9 -9v-4.5t-2 -8.5q-5 -19 -8 -44t-4.5 -49t-2 -43.5t-0.5 -28.5q0 -82 9 -140q1 -8 3 -19.5t6.5 -22t11.5 -18t19 -7.5
q3 0 6 -1t3 -5z" />
    <glyph glyph-name="m" unicode="m" horiz-adv-x="426" 
d="M429 22q0 -5 -4 -9t-10 -7t-12.5 -4.5t-10.5 -1.5q-39 0 -53 53q-12 48 -12 108v15t1 21q-8 -15 -18.5 -37.5t-22 -45t-23.5 -43t-22 -31.5q-10 -10 -26 -10q-10 0 -15 8t-6.5 19t-1.5 23v20q0 23 2 47t5 46q-27 -38 -48.5 -79t-44.5 -81q-2 -3 -5.5 -10.5t-8 -15
t-8.5 -13.5t-7 -6q-6 0 -15.5 4.5t-9.5 11.5q0 5 1 10.5t2 10.5q3 22 7.5 51.5t8 58t6 52t2.5 33.5q0 8 -6 8q-5 0 -10 -6t-13 -22q-7 -13 -10 -16.5t-9 -3.5q-12 0 -12 8q0 3 2 8t10 18q14 25 27 36t27 11q25 0 25 -32q0 -17 -2 -39.5t-5.5 -47.5t-7.5 -50t-8 -48
q5 11 9 19l7.5 15t7.5 14.5t10 17.5q18 32 36.5 65t44.5 60q9 10 23 10t14 -8q0 -3 -2.5 -15t-5.5 -31t-5.5 -43t-2.5 -51v-18.5t3 -8.5q4 0 17 20.5t27 46.5t26.5 50.5t16.5 33.5q8 20 12 26.5t9 10.5q9 6 19 6q9 0 9 -7q0 -6 -1 -11q-2 -16 -3 -30.5t-1 -28.5
q0 -162 44 -162q5 0 10 2.5t10 2.5q7 0 7 -8z" />
    <glyph glyph-name="n" unicode="n" horiz-adv-x="278" 
d="M60 47q14 29 29.5 58t29.5 57q7 13 15.5 27.5t25.5 46.5q18 33 40 33q10 0 10 -9q0 -2 -2 -8.5t-4 -11.5q-3 -13 -5.5 -32.5t-2.5 -39.5q0 -67 14.5 -107.5t37.5 -40.5q13 0 21 8t14 8q8 0 8 -9q0 -6 -5.5 -11t-13 -8.5t-16 -5.5t-14.5 -2q-38 0 -57.5 43t-19.5 128
q0 9 0.5 14t1.5 14q-11 -19 -21.5 -40.5t-21.5 -41.5q-14 -28 -29 -56t-27 -57q-4 -9 -6.5 -12t-6.5 -3q-5 0 -10 3.5t-10 5.5t-5 6v9t2 30.5t5 58l6 65t5 52.5q1 11 8 14q6 3 11 6q5 2 9 4.5t6 2.5q4 0 5 -5t1 -7q0 -7 -3 -21t-5 -25q-7 -35 -12 -70.5t-8 -70.5z" />
    <glyph glyph-name="o" unicode="o" horiz-adv-x="259" 
d="M123 253q11 7 25 7q18 0 35 -9t29.5 -24.5t20 -36t7.5 -43.5q0 -30 -10 -57t-27.5 -48t-40 -33t-47.5 -12q-42 0 -68 34.5t-26 89.5q0 27 7.5 52t19.5 44.5t27.5 31t32.5 11.5q8 0 15 -7zM129 235q-2 -9 -7.5 -15t-10.5 -6t-8 5.5t-12 5.5q-7 0 -14 -7.5t-12.5 -20.5
t-9 -29t-3.5 -33q0 -47 21 -77.5t53 -30.5q16 0 30.5 9t26 23.5t18.5 33.5t7 40t-5.5 40t-15 33t-22 22t-27.5 8q-5 0 -9 -1z" />
    <glyph glyph-name="p" unicode="p" 
d="M84 177q13 13 29.5 28t35 27.5t37.5 20.5t39 8q26 0 40.5 -12.5t14.5 -34.5q0 -15 -7.5 -35.5t-20.5 -42t-30 -43t-36 -37.5q-30 -27 -60 -43t-53 -17q-1 -20 -1 -31v-26q0 -60 5.5 -86t16.5 -26q6 0 10.5 4t9.5 4q6 0 6 -9q0 -11 -11.5 -17.5t-21.5 -6.5q-22 0 -33 25
q-6 13 -8.5 31t-4 37.5t-1.5 38v32.5q0 57 3.5 114t8.5 114q1 16 2 24t1 12.5t0.5 8.5t0.5 13q0 8 1.5 11t6.5 5q6 2 14 4t13 2q10 0 10 -7q0 -2 -0.5 -5t-1.5 -8l-15 -77v0zM80 133q-2 -24 -4.5 -52.5t-3.5 -57.5q50 6 98 54q33 32 54.5 69.5t21.5 65.5q0 24 -25 24
t-79 -42q-16 -13 -32 -29t-30 -32z" />
    <glyph glyph-name="q" unicode="q" 
d="M199 149q-13 -25 -29.5 -47t-37.5 -45q-30 -32 -49.5 -45t-36.5 -13q-24 0 -24 23q0 28 22.5 70.5t62.5 90.5q27 32 45.5 46t35.5 14q6 0 12 -3q0 11 -1 23t-1 24q0 3 -0.5 4.5t-0.5 3.5q0 3 4 6.5t9.5 6.5t11 4.5t8.5 1.5q9 0 9 -8q0 -7 -1 -18t-2 -21
q-2 -33 -4.5 -66.5t-2.5 -66.5q0 -51 4 -106t11 -95q4 -23 7.5 -35.5t8.5 -20.5q3 -5 6 -7.5t10 -5.5q7 -4 7 -9q0 -7 -8 -14t-15 -7q-12 0 -20.5 11t-13.5 26t-8 30t-4 23q-8 54 -11.5 108.5t-3.5 108.5v8v0zM59 29q7 0 18 9t22.5 20.5t21 22.5t13.5 16q6 7 16.5 21
t20.5 30t17.5 31t7.5 25q0 12 -11 12q-18 0 -57 -47q-16 -19 -29.5 -38.5t-24 -37.5t-16.5 -32.5t-6 -23.5q0 -8 7 -8z" />
    <glyph glyph-name="r" unicode="r" horiz-adv-x="259" 
d="M115 112q7 32 22 65t35 58q17 22 35 34t33 12q12 0 21 -10t9 -24q0 -8 -5 -13t-13 -5q-14 0 -19 15q-1 2 -2.5 6t-3.5 4q-5 0 -16.5 -11t-22.5 -25q-23 -30 -35.5 -65t-12.5 -62q0 -13 3 -31t8 -32q3 -8 3 -12q0 -6 -7 -14t-13 -8q-16 0 -22 29q-3 15 -9.5 36.5t-15 45
t-17.5 44.5t-16 34q-8 13 -17 20.5t-9 10.5q0 7 12.5 14t18.5 7q7 0 11 -5t7 -10q4 -8 9.5 -23t11 -31t10 -31t7.5 -23z" />
    <glyph glyph-name="s" unicode="s" horiz-adv-x="241" 
d="M102 159q-5 8 -12 18.5t-13.5 22t-11 22.5t-4.5 20q0 24 33 24q18 0 38.5 -5.5t37.5 -15.5q19 -11 31.5 -24.5t12.5 -23.5q0 -5 -7.5 -10.5t-12.5 -5.5q-8 0 -13 12q-9 20 -30.5 34.5t-41.5 14.5q-10 0 -10 -7q0 -3 1 -7t4 -9l56 -90q5 -8 14.5 -20.5t18.5 -26.5
t15.5 -28t6.5 -25q0 -20 -15.5 -32.5t-40.5 -12.5q-20 0 -45 7.5t-47 21t-37.5 32t-15.5 40.5q0 12 7 21t17 9q9 0 9 -9q0 -5 -3 -10t-3 -12q0 -15 14 -28.5t33 -24t39 -16.5t32 -6q25 0 25 15q0 8 -13 30.5t-37 57.5l-32 47v0z" />
    <glyph glyph-name="t" unicode="t" horiz-adv-x="241" 
d="M87 191q-11 -8 -26.5 -16.5t-24.5 -15.5q-6 -5 -10 -5q-5 0 -8 6.5t-3 10.5q0 5 7 9q15 10 34 21t32 18v50v45.5t-1 29.5q-1 6 -1 10v7q0 7 2 10t10 8t12.5 7t9.5 2q10 0 10 -12q0 -2 -1 -8.5t-2 -15t-2 -17.5t-2 -16t-1.5 -21t-1.5 -28q-1 -17 -2 -35q16 8 24 11.5
t23 8.5q17 6 27 8.5t20 2.5t10 -7q0 -4 -3.5 -8.5t-8 -8.5t-9 -7t-7.5 -3t-5.5 1t-5.5 1q-5 0 -14 -3t-19 -7.5t-19.5 -9t-13.5 -7.5v-26q0 -28 1.5 -63t4.5 -60q5 -42 32 -42q22 0 45 45q5 11 12 11q9 0 9 -11q0 -12 -13 -31q-27 -38 -62 -38q-39 0 -49 55q-5 26 -7.5 60
t-2.5 73v11v0z" />
    <glyph glyph-name="u" unicode="u" 
d="M202 116q-22 -27 -45 -54t-49 -51q-13 -11 -20 -15t-15 -4q-18 0 -23 13.5t-5 27.5q0 10 0.5 26t1.5 35t2 38.5t2 36.5q0 3 0.5 11.5t1 17.5t1 16.5t1.5 9.5q2 8 13 14t19 6q12 0 12 -9q0 -1 -2 -7q-2 -7 -4 -15.5t-4 -22.5q-12 -74 -12 -148q0 -15 8 -15q3 0 8.5 4.5
t11.5 10.5t11 11.5t7 7.5q13 13 27 29.5t26 33.5q8 11 14 21t6 24v17t-0.5 19.5t-1 17.5t-1.5 11q-1 4 -1 10q0 9 12.5 16.5t20.5 7.5q9 0 9 -11v-4.5t-1 -5.5q-2 -11 -3 -30t-1 -36q0 -29 2 -55.5t5.5 -46.5t8 -32t9.5 -12q2 0 4 1t4 1q8 0 8 -8q0 -7 -9.5 -15t-16.5 -8
q-11 0 -19.5 9.5t-11.5 26.5q-3 13 -6 32.5t-5 41.5z" />
    <glyph glyph-name="v" unicode="v" horiz-adv-x="259" 
d="M45 234q0 11 1 15t6 9q7 7 14 11.5t12 4.5q4 0 7.5 -3.5t3.5 -7.5q0 -3 -1 -5q-5 -17 -6.5 -34.5t-1.5 -35.5q0 -35 3.5 -66t10 -54.5t15 -37t18.5 -13.5t21.5 15t21.5 40q6 15 12.5 44.5t6.5 54.5q0 14 -2 19t-8 5q-7 0 -13.5 2t-6.5 11q0 10 9 16t23 6t20 -13t6 -43
q0 -26 -6 -56t-17 -57q-29 -71 -71 -71q-18 0 -30 11.5t-20 28t-12.5 35t-6.5 33.5q-9 67 -9 136z" />
    <glyph glyph-name="w" unicode="w" horiz-adv-x="370" 
d="M183 142q-9 -23 -20 -48t-22.5 -49t-23.5 -45.5t-23 -37.5q-26 -38 -46 -38q-12 0 -17.5 11.5t-5.5 40.5q0 35 6.5 69.5t15.5 68.5q11 40 26.5 82t37.5 77q5 8 9.5 11.5t12.5 3.5q14 0 14 -7q0 -4 -4.5 -11t-6.5 -10q-20 -40 -35.5 -76t-26.5 -80q-22 -81 -22 -129v-11.5
t4 -9.5q3 0 11.5 13.5t17.5 31t17 33t10 20.5q15 31 29 61t27 62q2 6 3.5 10t6.5 9q2 2 7.5 5t8.5 3q10 0 11 -17q2 -24 7.5 -50t13.5 -46q14 -34 32 -56t33 -22q9 0 14.5 12.5t5.5 32.5q0 24 -4.5 47.5t-12.5 42.5t-18.5 32.5t-21.5 16.5q-5 3 -5 7q0 5 6 15t11 10
q3 0 11 -8t16 -20q22 -29 33 -65t11 -74q0 -75 -45 -75q-24 0 -43 17.5t-33 42t-22.5 51.5t-10.5 46z" />
    <glyph glyph-name="x" unicode="x" horiz-adv-x="278" 
d="M62 -14q-1 -4 -4 -4t-12.5 5.5t-9.5 10.5q0 3 2 7q17 31 33.5 61t34.5 61q-6 7 -14 17t-17 20.5t-18.5 19.5t-17.5 15q-3 2 -9.5 7t-6.5 10q0 7 11 13t17 6q8 0 19 -11t34 -43l20 -28q14 22 31 45t34 42q26 28 44.5 40t38.5 12q34 0 34 -32q0 -23 -13 -23q-11 0 -11 17
q0 13 -10 13q-19 0 -45 -26q-26 -25 -46.5 -53t-39.5 -58q14 -17 27 -33.5t28 -31.5q11 -12 23 -23l24 -22q6 -6 6 -8q0 -5 -9 -12t-14 -7q-6 0 -15.5 10t-13.5 15q-19 21 -39.5 45.5t-33.5 40.5z" />
    <glyph glyph-name="y" unicode="y" 
d="M201 168q-11 -31 -23 -62.5t-27 -60.5q-20 -38 -34 -54.5t-27 -16.5q-21 0 -29 27q-3 10 -5 26.5t-3.5 34.5t-2.5 36t-1 32q0 13 -1 26.5t-1 26.5q0 12 2 16.5t8 9.5q3 2 11.5 6.5t12.5 4.5q5 0 5 -6q0 -5 -1.5 -20t-2.5 -26l-2 -32t-1 -30q0 -7 0.5 -24t2 -34.5t4.5 -31
t7 -13.5q3 0 10.5 11.5t15.5 26.5t15 29.5t9 20.5q5 13 12 29.5t13 34t10 34.5t4 31q0 34 -21 57q-5 5 -6 7t-1 4t4 5.5t9.5 6.5t10 5.5t6.5 2.5q4 0 9.5 -8.5t11.5 -23.5t12.5 -34.5t11.5 -40.5q13 -52 20.5 -105t7.5 -107q0 -29 -3.5 -64t-15 -65t-34 -50.5t-60.5 -20.5
q-30 0 -65.5 17t-62.5 45q-18 18 -31.5 41.5t-13.5 36.5q0 16 13 16q7 0 9.5 -7.5t4.5 -12.5q9 -21 25 -41.5t36.5 -36.5t43.5 -25.5t44 -9.5q27 0 43 17t24 41t10 51t2 47t-1.5 45t-5 51.5t-8 53t-10.5 50.5z" />
    <glyph glyph-name="z" unicode="z" horiz-adv-x="333" 
d="M145 72q-10 -9 -24.5 -22t-28.5 -24q-3 -3 -11.5 -9.5t-18.5 -13.5t-19 -12.5t-12 -5.5q-4 0 -11.5 5.5t-7.5 9.5q0 1 2 5l41 95q5 11 12.5 23.5t22.5 12.5q9 0 19 -5t35 -25q29 29 57.5 58t54.5 61q-6 1 -9 1h-6q-16 0 -34.5 -1.5t-31.5 -3.5q-17 -3 -17 -10q0 -4 8 -7
q11 -3 11 -12q0 -6 -4 -10.5t-11 -4.5q-13 0 -22.5 9.5t-9.5 22.5q0 28 44 36q16 2 40.5 3.5t50.5 1.5h8l6 13q5 10 10 12t20 2q12 0 12 -6q0 -5 -9 -17.5t-20 -26.5t-22 -26.5t-15 -17.5q-22 -25 -45 -48.5t-46 -46.5q19 -14 33.5 -24.5t27.5 -18.5q5 -3 15 -8t21.5 -10
t22 -8.5t16.5 -3.5q5 0 11.5 3.5t11.5 3.5q9 0 9 -10q0 -9 -9 -14.5t-24 -5.5q-29 0 -69.5 21t-84.5 59zM124 87q-2 1 -6.5 5t-10 7.5t-10 6.5t-7.5 3q-2 0 -8 -11.5t-13 -26.5t-14 -29.5t-10 -20.5q21 14 40 32t39 34z" />
    <glyph glyph-name="braceleft" unicode="{" horiz-adv-x="333" 
d="M143 186q9 5 14.5 7t11.5 2q17 0 27 -12t10 -33q0 -15 -2 -32.5t-5 -35.5t-6.5 -36t-6.5 -33q-11 -62 -17.5 -103.5t-6.5 -64.5t12.5 -36.5t32.5 -13.5q35 0 62.5 31.5t35.5 79.5q3 15 12 15q11 0 11 -26q0 -24 -10.5 -47t-28 -41t-40 -28.5t-46.5 -10.5q-32 0 -51.5 21
t-19.5 54q0 45 8.5 90t16.5 90q2 12 5 28.5t6 34t5 33.5t2 28q0 20 -12 20q-6 0 -10.5 -2.5t-15.5 -10.5t-17.5 -11t-11.5 -3q-10 0 -10 9q0 3 2 8l4 10q10 20 15.5 41.5t5.5 43.5q0 20 -1 39t-1 39q0 37 5.5 75.5t13.5 63.5q10 27 31 43t47 16q35 0 69 -26q22 -16 22 -31
q0 -12 -10 -12q-5 0 -14.5 9t-14.5 13q-13 10 -25 16t-29 6q-16 0 -28.5 -12.5t-19.5 -34.5q-9 -29 -12.5 -63t-3.5 -65q0 -18 1.5 -36.5t1.5 -36.5t-4 -35t-10 -34z" />
    <glyph glyph-name="bar" unicode="|" horiz-adv-x="167" 
d="M66 786h34v-1000h-34v1000z" />
    <glyph glyph-name="braceright" unicode="}" horiz-adv-x="333" 
d="M231 110q-9 -5 -14.5 -7t-11.5 -2q-17 0 -27 12t-10 33q0 11 2 28.5t5 36.5t6.5 38t6.5 34q11 62 17.5 104t6.5 64q0 23 -12.5 36.5t-32.5 13.5q-35 0 -62.5 -31.5t-35.5 -79.5q-3 -15 -12 -15q-11 0 -11 26q0 24 10.5 47t28 41t40 28.5t46.5 10.5q32 0 51.5 -21
t19.5 -54q0 -17 -2.5 -39t-6 -46t-8 -48.5t-8.5 -46.5q-2 -12 -5 -30.5l-6 -37t-5 -34t-2 -22.5q0 -20 12 -20q6 0 10.5 2.5t15.5 10.5t17.5 11.5t11.5 3.5q10 0 10 -10q0 -3 -2 -8.5t-4.5 -11.5t-5 -11.5t-3.5 -8.5q-7 -15 -9.5 -32t-2.5 -35t1 -37t1 -37q0 -37 -5.5 -75.5
t-13.5 -63.5q-10 -27 -31 -43t-47 -16q-17 0 -34.5 7t-34.5 19q-22 16 -22 31q0 12 10 12q5 0 14.5 -9t14.5 -13q13 -10 25 -16t29 -6q22 0 35 20.5t19.5 49t8 58t1.5 47.5q0 25 -1.5 54t0.5 44q2 13 4.5 21.5t7.5 22.5z" />
    <glyph glyph-name="asciitilde" unicode="~" horiz-adv-x="426" 
d="M399 225q-2 -17 -8 -33.5t-16.5 -29t-25.5 -20t-35 -7.5q-22 0 -49 8.5t-49 16.5q-11 3 -24.5 8t-28 9.5t-28 7.5t-23.5 3q-23 0 -39 -16t-21 -43h-25q5 43 28 67t58 24q12 0 26 -3t28 -7.5l28 -9t26 -8.5q20 -7 45 -16t48 -9q49 0 61 58h24v0z" />
    <glyph glyph-name="uni00A0" unicode="&#xa0;" horiz-adv-x="185" 
 />
    <glyph glyph-name="sterling" unicode="&#xa3;" horiz-adv-x="407" 
d="M159 127q16 -23 36.5 -50.5t45 -51.5t52.5 -40t58 -16q15 0 28.5 3.5t27.5 13.5q1 1 7 5t9 4q8 0 8 -7t-14 -17q-32 -23 -72 -23q-33 0 -62.5 14.5t-55 36.5t-47 48.5t-39.5 49.5l-79 -127q-4 -6 -9 -14t-11 -15.5t-12.5 -12.5t-13.5 -5q-17 0 -17 12q0 3 1 6t3 11
q16 56 30.5 111.5t26.5 112.5q3 15 6 21t9 10q14 9 28 9q7 0 10 -3t8 -14q9 -19 23 -43l63 102l-37 -6q-7 -1 -7.5 -1h-3.5t-5.5 7.5t-2.5 10.5q0 6 8 7l63 8q25 38 49.5 76.5t57.5 70.5q18 18 39 18q17 0 28 -10t11 -27q0 -6 -3 -16t-8 -19.5t-11.5 -16.5t-12.5 -7
q-5 0 -8.5 3t-3.5 7q0 3 5 11q14 20 14 33t-13 13q-7 0 -14.5 -5.5t-14 -13t-12.5 -15t-9 -12.5q-16 -22 -31 -44t-29 -45q24 2 52 2.5t44 0.5q6 0 6 -7t-5 -10q-7 -5 -26 -5t-29 -1q-15 -1 -22 -1.5t-11.5 -0.5t-9 -0.5t-14.5 -0.5zM124 121q-19 31 -34 59
q-14 -51 -27 -101t-28 -101q26 35 46 70.5t43 72.5z" />
    <glyph glyph-name="currency" unicode="&#xa4;" horiz-adv-x="426" 
d="M99 103q-35 41 -35 94q0 50 35 95l-47 46l20 21l47 -47q43 34 93 34q52 0 95 -34l46 47l21 -21l-47 -47q35 -44 35 -94q0 -26 -9.5 -50t-25.5 -44l47 -46l-21 -21l-46 46q-43 -33 -94 -33t-94 34l-47 -48l-20 22zM213 315q-24 0 -45.5 -9.5t-37.5 -25.5t-25.5 -37.5
t-9.5 -45.5t9.5 -45.5t25.5 -37.5t37.5 -25t45.5 -9t45.5 9t37.5 25t25.5 37.5t9.5 45.5t-9.5 45.5t-25.5 37.5t-37.5 25.5t-45.5 9.5z" />
    <glyph glyph-name="section" unicode="&#xa7;" horiz-adv-x="407" 
d="M136 141q34 -26 68.5 -53.5t63.5 -59.5q52 -57 52 -97q0 -26 -23 -41t-61 -15q-44 0 -94 14.5t-95 40.5q-52 30 -52 55q0 11 11 18.5t26 7.5t15 -10q0 -6 -8 -9q-9 -3 -11.5 -4.5t-2.5 -5.5q0 -5 9 -13t24 -16q43 -24 91.5 -38t85.5 -14q50 0 50 33q0 12 -7 26t-17.5 27
t-22 24.5l-20.5 20.5q-8 8 -15 14t-14.5 13t-17 15t-22.5 20q-30 25 -48.5 42t-29 28.5t-14 18.5t-3.5 13q0 19 29 30.5t74 11.5q23 0 46.5 -2.5t47.5 -8.5q28 -7 38.5 -12t10.5 -10q0 -4 -6.5 -12.5t-11.5 -8.5q-7 0 -17.5 7t-17.5 10q-16 6 -39.5 10.5t-46.5 4.5
q-32 0 -50.5 -5t-18.5 -13q0 -7 12 -15t28 -15.5t32 -13t24 -8.5q39 -14 61.5 -19t45.5 -5q26 0 41.5 7.5t15.5 21.5q0 12 -7 26.5t-17.5 29t-22 27t-19.5 20.5q-21 21 -48.5 45.5t-58.5 48.5q-6 5 -17 13t-21 17t-17.5 19t-7.5 19q0 19 31 31t82 12q26 0 50.5 -3t43 -8
t30 -11.5t11.5 -13.5q0 -9 -11 -17.5t-19 -8.5q-9 0 -10.5 8t-6.5 13q-4 3 -11 5q-20 6 -40 8.5t-41 2.5q-31 0 -48.5 -5t-17.5 -13q0 -5 9 -15.5t35 -31.5l56 -47q126 -107 126 -167q0 -27 -23.5 -42t-65.5 -15q-44 0 -82 13t-78 30z" />
    <glyph glyph-name="copyright" unicode="&#xa9;" horiz-adv-x="574" 
d="M287 479q52 0 98.5 -20t81 -54t54.5 -80t20 -98t-20 -98t-54.5 -80.5t-81 -54.5t-98.5 -20q-53 0 -99 20t-80.5 54.5t-54.5 80.5t-20 98t20 98t54.5 80t80.5 54t99 20zM287 457q-48 0 -89.5 -18t-72.5 -49.5t-49 -73t-18 -89.5t18 -89.5t49 -73t72.5 -49.5t89.5 -18
t89.5 18t72.5 49.5t49 73t18 89.5t-18 89.5t-49 73t-72.5 49.5t-89.5 18zM336 185q4 3 11 9t12 6q8 0 8 -7t-19 -25q-21 -20 -50.5 -37t-59.5 -17q-57 0 -57 49q0 32 19.5 68t53.5 66q50 45 88 45q14 0 22 -5t8 -13q0 -9 -12 -17.5t-20 -8.5q-9 0 -9 5q0 3 5.5 7.5t5.5 6.5
q0 4 -5 4q-6 0 -18.5 -6.5t-26.5 -17.5q-35 -26 -57.5 -62t-22.5 -68q0 -31 30 -31q12 0 25 5t25.5 12.5t23.5 16t20 15.5z" />
    <glyph glyph-name="guillemotleft" unicode="&#xab;" horiz-adv-x="370" 
d="M89 114q18 -5 34 -13.5t30 -22.5q11 -13 19.5 -29t8.5 -27q0 -14 -13 -14q-5 0 -8 3.5t-9 14.5q-16 31 -40 49t-52 20l-14 1q-14 1 -14 14q0 11 15 14l12 2q18 3 40.5 26.5t42.5 58.5q4 8 9.5 16t15.5 8q13 0 13 -14q0 -6 -6.5 -19t-17.5 -27q-14 -19 -30 -34.5
t-36 -26.5zM228 114q18 -5 34 -13.5t30 -22.5q11 -13 19.5 -29t8.5 -27q0 -14 -13 -14q-5 0 -8 3.5t-9 14.5q-16 31 -40 49t-52 20l-14 1q-14 1 -14 14q0 11 15 14l12 2q18 3 40.5 26.5t42.5 58.5q4 8 9.5 16t15.5 8q13 0 13 -14q0 -6 -6.5 -19t-17.5 -27q-14 -19 -30 -34.5
t-36 -26.5z" />
    <glyph glyph-name="logicalnot" unicode="&#xac;" horiz-adv-x="426" 
d="M35 263h355v-173h-34v142h-321v31z" />
    <glyph glyph-name="registered" unicode="&#xae;" horiz-adv-x="287" 
d="M143 478q27 0 51 -10.5t42 -28t28.5 -41.5t10.5 -51t-10.5 -51t-28.5 -42t-42 -28.5t-51 -10.5t-51 10.5t-41.5 28.5t-28 42t-10.5 51t10.5 51t28 41.5t41.5 28t51 10.5zM143 464q-24 0 -45.5 -9.5t-37.5 -25.5t-25 -37.5t-9 -45.5t9 -45.5t25 -37.5t37.5 -25t45.5 -9
t45.5 9t37.5 25t25.5 37.5t9.5 45.5t-9.5 45.5t-25.5 37.5t-37.5 25.5t-45.5 9.5zM139 343q8 -9 18.5 -18t20.5 -15.5t19 -10.5t15 -4h5t3 -4q0 -2 -3.5 -4t-8.5 -2q-9 0 -22 6.5t-26.5 15.5t-25 20t-17.5 20q-1 1 -1 3q0 3 5 4t7 1q4 0 3.5 -1.5t1.5 -1.5q5 0 14.5 3.5
t18.5 10.5q22 17 22 27q0 11 -23 11q-11 0 -23 -2t-19 -4q-3 -10 -6 -23.5t-5 -27.5t-3.5 -27.5t-1.5 -22.5q0 -5 1 -9t1 -9q0 -6 -7 -6q-5 0 -6.5 4t-1.5 17q0 25 4 49.5t8 49.5q-11 -4 -25.5 -10.5t-21.5 -16.5q-3 -4 -6 -4q-6 0 -6 5q0 3 5.5 9t13.5 11q20 12 47 19.5
t52 7.5q40 0 40 -18q0 -9 -7.5 -17.5t-18 -16t-22 -13t-18.5 -6.5z" />
    <glyph glyph-name="degree" unicode="&#xb0;" 
d="M148 423q21 0 39.5 -8t32 -21.5t21.5 -32t8 -39.5t-8 -39.5t-21.5 -32t-32 -21.5t-39.5 -8t-39.5 8t-32 21.5t-21.5 32t-8 39.5t8 39.5t21.5 32t32 21.5t39.5 8zM148 400q-32 0 -55 -23t-23 -55t23 -54.5t55 -22.5t54.5 22.5t22.5 54.5t-22.5 55t-54.5 23z" />
    <glyph glyph-name="plusminus" unicode="&#xb1;" horiz-adv-x="426" 
d="M83 -1q-29 0 -37.5 3t-8.5 13q0 16 20 16q2 0 5 -0.5t7 -0.5h63t36.5 0.5t21 0.5h15.5h157q5 0 8.5 0.5t6.5 0.5q14 0 14 -14q0 -20 -23 -20h-4h-3.5t-7 0.5t-13.5 0.5q-14 1 -30.5 1h-45.5h-101q-20 0 -40 -0.5t-40 -0.5zM196 333q0 14 3.5 17.5t14.5 3.5q12 0 12 -19
v-109h136q3 0 7.5 0.5t7.5 0.5q14 0 14 -14q0 -20 -23 -20h-7q-9 0 -13 0.5t-9.5 0.5t-16.5 0.5t-34 0.5h-61v-102q0 -3 0.5 -7.5t0.5 -7.5q0 -14 -14 -14q-21 0 -21 22q0 7 1 15.5t1 13.5q1 16 1 30v39v11h-22t-12 -0.5t-11.5 -0.5h-21.5h-42q-32 0 -41 3t-9 13q0 16 20 16
q2 0 5 -0.5t7 -0.5q32 0 63.5 0.5t63.5 0.5v107z" />
    <glyph glyph-name="mu" unicode="&#xb5;" 
d="M73 -6q0 -13 0.5 -25.5t0.5 -25.5t2 -34t7 -32q4 -8 4 -11t-3 -8t-7.5 -9.5t-9 -7.5t-7.5 -3q-5 0 -9 6q-3 6 -5 43q-1 19 -1.5 37.5t-0.5 37.5q0 38 1 83.5t3 83.5q2 45 5 89q0 11 12.5 18.5t21.5 7.5q11 0 11 -9q0 -4 -1 -7q-8 -24 -11 -49.5t-5 -50.5q-3 -26 -4 -46
t-1 -40q0 -15 8 -15q4 0 18 13.5t29 30.5t28 32.5t16 20.5q8 11 14 21t6 24q0 33 -3 65q0 3 -0.5 5.5t-0.5 4.5q0 9 12.5 16.5t20.5 7.5q10 0 10 -11q0 -2 -2 -10q-2 -11 -3 -30t-1 -36q0 -29 2 -55.5t5.5 -46.5t8 -32t9.5 -12q2 0 4 1t4 1q8 0 8 -8q0 -7 -9.5 -15t-16.5 -8
q-14 0 -21.5 13.5t-12 32t-6 37t-2.5 27.5q-20 -27 -41 -51t-48 -49q-5 -5 -15.5 -15t-17.5 -10q-2 0 -6 3z" />
    <glyph glyph-name="paragraph" unicode="&#xb6;" horiz-adv-x="370" 
d="M287 390q-8 -28 -15.5 -68t-13.5 -85t-9.5 -90.5t-3.5 -83.5q0 -13 2 -21.5t4.5 -14.5t4.5 -10.5t2 -8.5q0 -7 -8 -13t-14 -6q-10 0 -16 14t-6 36q0 66 8.5 139t16.5 138q-25 -33 -51 -61.5t-50 -49.5t-44.5 -33t-33.5 -12q-11 0 -18.5 6.5t-7.5 16.5q0 24 25 68.5
t65 91.5q38 45 69.5 65.5t59.5 20.5q20 0 38 -7.5t37 -7.5q10 0 17 2.5t12 2.5q3 0 8.5 -2t5.5 -5q0 -2 -1 -3q-4 -6 -9.5 -16.5t-10.5 -23.5t-10 -27t-8 -26q-5 -17 -9 -38.5t-7 -44.5t-4.5 -46t-1.5 -42q0 -34 4 -60t12 -51q2 -8 2 -10q0 -6 -9 -14.5t-14 -8.5
q-8 0 -13 13.5t-7 31.5t-2.5 35t-0.5 24q0 28 2 65.5t7 76.5t13.5 75.5t20.5 61.5q-11 0 -17 1t-21 5zM253 390q0 13 -13 13q-15 0 -34.5 -15.5t-39 -35.5t-35.5 -40.5t-23 -30.5q-19 -27 -31 -50t-12 -33q0 -7 7 -7q6 0 16.5 6.5t21 15.5t20 18t13.5 13q22 22 42 44.5
t35 42.5t24 35.5t9 23.5z" />
    <glyph glyph-name="periodcentered" unicode="&#xb7;" horiz-adv-x="185" 
d="M96 236q11 0 19.5 -8.5t8.5 -19.5q0 -12 -8 -20t-20 -8q-11 0 -19.5 8t-8.5 20q0 11 8.5 19.5t19.5 8.5z" />
    <glyph glyph-name="guillemotright" unicode="&#xbb;" horiz-adv-x="370" 
d="M331 109q0 -13 -14 -14l-14 -1q-28 -2 -52 -20t-40 -49q-6 -11 -9 -14.5t-8 -3.5q-13 0 -13 14q0 11 8.5 27t19.5 29q14 14 30 22.5t34 13.5q-20 11 -36 26.5t-30 34.5q-11 14 -17.5 27t-6.5 19q0 14 13 14q10 0 15.5 -8t9.5 -16q20 -35 42.5 -58.5t40.5 -26.5l12 -2
q15 -3 15 -14zM192 109q0 -13 -14 -14l-14 -1q-28 -2 -52 -20t-40 -49q-6 -11 -9 -14.5t-8 -3.5q-13 0 -13 14q0 11 8.5 27t19.5 29q14 14 30 22.5t34 13.5q-20 11 -36 26.5t-30 34.5q-11 14 -17.5 27t-6.5 19q0 14 13 14q10 0 15.5 -8t9.5 -16q20 -35 42.5 -58.5
t40.5 -26.5l12 -2q15 -3 15 -14z" />
    <glyph glyph-name="divide" unicode="&#xf7;" horiz-adv-x="426" 
d="M213 83q13 0 22 -9t9 -22q0 -14 -9 -22.5t-22 -8.5t-22 8.5t-9 22.5q0 13 9 22t22 9zM213 336q13 0 22 -9t9 -23q0 -13 -9 -22t-22 -9t-22 9t-9 22q0 14 9 23t22 9zM83 162q-29 0 -38 3t-9 13q0 16 20 16h282q10 0 19 0.5t19 0.5q14 0 14 -14q0 -20 -23 -20h-4h-3.5
t-7 0.5t-13.5 0.5q-14 1 -30 1h-45h-63q-29 0 -59 -0.5t-59 -0.5z" />
    <glyph glyph-name="florin" unicode="&#x192;" horiz-adv-x="444" 
d="M254 244q-12 -44 -25 -86.5t-27 -85.5q-7 -21 -19.5 -59t-29.5 -74.5t-40 -63.5t-51 -27q-17 0 -31.5 13t-25.5 31.5t-17 39t-6 35.5q0 20 12 20q8 0 9 -12q8 -45 25.5 -74t36.5 -29q11 0 22.5 13t22.5 34t21.5 46t19 48.5t14.5 43t9 28.5q12 38 23 75.5t22 75.5
q-23 -8 -45 -16t-45 -17q-25 -11 -34 -14t-14 -3q-12 0 -12 14q0 9 17 16q35 14 70 25l70 22l28 87q6 17 13 39.5t18 42.5t26.5 34t38.5 14q17 0 28 -9t11 -24q0 -8 -5 -19t-14 -11q-3 0 -7 2t-4 6q0 5 2 8.5t2 8.5q0 11 -14 11q-10 0 -18 -7.5t-14 -18t-10 -22t-7 -19.5
l-38 -117q21 4 38.5 6t34.5 2q27 0 48 -5.5t21 -12.5q0 -6 -10.5 -15.5t-15.5 -9.5q-6 0 -11 3.5t-10 5.5q-9 5 -16.5 6t-18.5 1q-15 0 -28.5 -1t-39.5 -5z" />
    <glyph glyph-name="endash" unicode="&#x2013;" horiz-adv-x="500" 
d="M500 148v-26h-500v26h500z" />
    <glyph glyph-name="emdash" unicode="&#x2014;" horiz-adv-x="1000" 
d="M960 148v-26h-920v26h920z" />
    <glyph glyph-name="quoteleft" unicode="&#x2018;" horiz-adv-x="185" 
d="M135 306q0 -2 -4 -5.5t-8.5 -6.5t-9.5 -5.5t-6 -2.5q-6 0 -15 12q-13 19 -13 45q0 17 3.5 32.5t13.5 34.5q6 12 10.5 16.5t9.5 4.5q10 0 10 -9q0 -2 -2 -8q-5 -13 -7.5 -25t-2.5 -21q0 -32 18 -56q3 -3 3 -6z" />
    <glyph glyph-name="quoteright" unicode="&#x2019;" horiz-adv-x="185" 
d="M142 374q0 -17 -3.5 -32.5t-13.5 -34.5q-6 -12 -10.5 -16.5t-9.5 -4.5q-10 0 -10 9q0 2 2 8q5 13 7.5 25t2.5 21q0 32 -18 56q-3 3 -3 6q0 2 4 5.5t8.5 6.5t9 5.5t6.5 2.5q6 0 15 -12q13 -20 13 -45z" />
    <glyph glyph-name="quotesinglbase" unicode="&#x201a;" horiz-adv-x="185" 
d="M116 -1q0 -17 -3.5 -32.5t-13.5 -34.5q-6 -12 -10.5 -16.5t-9.5 -4.5q-10 0 -10 9q0 2 2 8q5 13 7.5 25t2.5 21q0 32 -18 56q-3 3 -3 6q0 2 4 5.5t8.5 6.5t9 5.5t6.5 2.5q6 0 15 -12q13 -20 13 -45z" />
    <glyph glyph-name="quotedblleft" unicode="&#x201c;" horiz-adv-x="278" 
d="M233 307q0 -2 -4 -5.5t-8.5 -6.5t-9.5 -5.5t-6 -2.5q-6 0 -15 12q-13 19 -13 45q0 17 3.5 32.5t13.5 34.5q6 12 10.5 16.5t9.5 4.5q10 0 10 -9q0 -2 -2 -8q-5 -13 -7.5 -25t-2.5 -21q0 -32 18 -56q3 -3 3 -6zM146 306q0 -2 -4 -5.5t-8.5 -6.5t-9.5 -5.5t-6 -2.5
q-6 0 -15 12q-13 19 -13 45q0 17 3.5 32.5t13.5 34.5q6 12 10.5 16.5t9.5 4.5q10 0 10 -9q0 -2 -2 -8q-5 -13 -7.5 -25t-2.5 -21q0 -32 18 -56q3 -3 3 -6z" />
    <glyph glyph-name="quotedblright" unicode="&#x201d;" horiz-adv-x="278" 
d="M232 375q0 -17 -3.5 -32.5t-13.5 -34.5q-6 -12 -10.5 -16.5t-9.5 -4.5q-10 0 -10 9q0 2 2 8q5 13 7.5 25t2.5 21q0 32 -18 56q-3 3 -3 6q0 2 4 5.5t8.5 6.5t9 5.5t6.5 2.5q6 0 15 -12q13 -20 13 -45zM145 374q0 -17 -3.5 -32.5t-13.5 -34.5q-6 -12 -10.5 -16.5t-9.5 -4.5
q-10 0 -10 9q0 2 2 8q5 13 7.5 25t2.5 21q0 32 -18 56q-3 3 -3 6q0 2 4 5.5t8.5 6.5t9 5.5t6.5 2.5q6 0 15 -12q13 -20 13 -45z" />
    <glyph glyph-name="quotedblbase" unicode="&#x201e;" horiz-adv-x="278" 
d="M146 -2q0 -17 -3.5 -32.5t-13.5 -34.5q-6 -12 -10.5 -16.5t-9.5 -4.5q-10 0 -10 9q0 2 2 8q5 13 7.5 25t2.5 21q0 32 -18 56q-3 3 -3 6q0 2 4 5.5t8.5 6.5t9 5.5t6.5 2.5q6 0 15 -12q13 -20 13 -45zM232 -1q0 -17 -3.5 -32.5t-13.5 -34.5q-6 -12 -10.5 -16.5t-9.5 -4.5
q-10 0 -10 9q0 2 2 8q5 13 7.5 25t2.5 21q0 32 -18 56q-3 3 -3 6q0 2 4 5.5t8.5 6.5t9 5.5t6.5 2.5q6 0 15 -12q13 -20 13 -45z" />
    <glyph glyph-name="dagger" unicode="&#x2020;" horiz-adv-x="370" 
d="M208 269q-3 -26 -4 -58.5t-1 -63.5q0 -29 2 -55.5t5 -43.5q2 -9 3 -11.5t5 -2.5q3 0 5 0.5t4 0.5q6 0 6 -6q0 -10 -9.5 -19.5t-19.5 -9.5q-16 0 -21.5 12.5t-7.5 25.5q-5 28 -6 54t-1 55q0 28 0.5 56.5t3.5 54.5q-21 -8 -41.5 -17t-40.5 -19q-23 -12 -29 -14.5t-10 -2.5
t-9.5 5.5t-5.5 9.5q0 3 6.5 7t14.5 7.5t15.5 6.5t9.5 4q23 10 45.5 19t45.5 18l8 105q1 13 4.5 16t12.5 9q7 5 9 6t4 1q8 0 8 -10q0 -5 -0.5 -10t-1.5 -10l-9 -97q33 12 61 16.5t63 4.5q14 0 14 -6q0 -5 -7.5 -15t-12.5 -10q-4 0 -10 2.5t-14 2.5q-24 0 -47.5 -5t-46.5 -13z
" />
    <glyph glyph-name="daggerdbl" unicode="&#x2021;" horiz-adv-x="370" 
d="M203 137q1 -26 2.5 -50.5t4.5 -38.5q2 -9 3 -11.5t5 -2.5q3 0 5 0.5t4 0.5q6 0 6 -6q0 -10 -9.5 -19.5t-19.5 -9.5q-16 0 -21.5 12.5t-7.5 25.5t-3 23.5t-3 26.5q-1 13 -1 19.5v17.5q-17 -6 -45 -18.5t-52 -25.5l-11 -5.5t-6 -1.5q-5 0 -10.5 5.5t-5.5 10.5q0 2 3.5 4.5
t17.5 9.5q27 13 58 25.5t51 19.5q0 16 0.5 31.5t0.5 31.5q1 21 1 28t2 18q-11 -5 -25 -10.5t-27 -11.5l-30 -14q-24 -11 -29.5 -14t-9.5 -3t-9.5 5.5t-5.5 9.5t12 10q11 5 27.5 12t34 14.5t34.5 14t29 11.5l8 105q1 13 4.5 16t12.5 9q7 5 9 6t4 1q8 0 8 -10q0 -5 -0.5 -10
t-1.5 -10l-9 -97q31 11 60 16t64 5q14 0 14 -6q0 -5 -7.5 -15t-12.5 -10l-6 2q-5 2 -8.5 2.5t-9.5 0.5q-24 0 -47.5 -5t-46.5 -13q-1 -7 -1.5 -11.5t-0.5 -10t-0.5 -13.5t-1.5 -21q-1 -23 -1 -30.5v-21.5q29 8 62 13.5t56 5.5q22 0 22 -5t-8 -15t-13 -10q-2 0 -3.5 0.5
l-4.5 1.5q-4 1 -8 1.5t-9 0.5q-20 0 -45 -4.5t-49 -12.5z" />
    <glyph glyph-name="bullet" unicode="&#x2022;" horiz-adv-x="352" 
d="M176 387q27 0 50.5 -10.5t41 -28t28 -41t10.5 -50.5t-10 -50.5t-28 -41.5t-41.5 -28t-50.5 -10t-50.5 10t-41.5 28t-28 41.5t-10 50.5t10 50.5t28 41t41.5 28t50.5 10.5z" />
    <glyph glyph-name="ellipsis" unicode="&#x2026;" horiz-adv-x="1000" 
d="M500 51q11 0 19.5 -8.5t8.5 -19.5q0 -12 -8.5 -20t-19.5 -8t-19.5 8t-8.5 20q0 11 8.5 19.5t19.5 8.5zM166 48q12 0 20 -8.5t8 -19.5t-8 -19.5t-20 -8.5q-11 0 -19.5 8.5t-8.5 19.5t8.5 19.5t19.5 8.5zM833 50q11 0 19.5 -8.5t8.5 -19.5q0 -12 -8.5 -20t-19.5 -8
q-12 0 -20 8t-8 20q0 11 8 19.5t20 8.5z" />
    <glyph glyph-name="perthousand" unicode="&#x2030;" horiz-adv-x="648" 
d="M404 397q8 0 8 -5q0 -4 -7 -11q-17 -17 -38 -41t-44 -52t-45.5 -56.5t-41.5 -53.5q-14 -18 -33 -45t-36 -53t-29 -48.5t-12 -31.5q0 -7 7 -12t7 -9q0 -7 -10 -10.5t-15 -3.5q-11 0 -18.5 6.5t-7.5 17.5q0 18 15 47.5t35.5 60.5t40.5 58t30 40q22 28 43.5 56.5t41 53
t35.5 43.5t26 30q5 5 10.5 11.5t13.5 6.5q6 0 12 0.5t12 0.5zM218 340q0 -19 -8.5 -39t-22.5 -36.5t-32.5 -27t-38.5 -10.5q-24 0 -38 14.5t-14 40.5q0 22 8 42.5t22 36t31.5 24.5t37.5 9q26 0 40.5 -14t14.5 -40zM190 340q0 14 -8 21.5t-22 7.5t-26 -8t-20.5 -20.5
t-13.5 -27t-5 -26.5q0 -34 28 -34q13 0 25 9.5t21.5 23t15 28.5t5.5 26zM400 110q0 -19 -8.5 -39t-22.5 -36.5t-32.5 -27t-38.5 -10.5q-24 0 -38 14.5t-14 40.5q0 22 8 42.5t22 36t31.5 24.5t37.5 9q26 0 40.5 -14t14.5 -40zM372 110q0 14 -8 21.5t-22 7.5t-26 -8
t-20.5 -20.5t-13.5 -27t-5 -26.5q0 -34 28 -34q13 0 25 9.5t21.5 23t15 28.5t5.5 26zM603 110q0 -19 -8.5 -39t-22.5 -36.5t-32.5 -27t-38.5 -10.5q-24 0 -38 14.5t-14 40.5q0 22 8 42.5t22 36t31.5 24.5t37.5 9q26 0 40.5 -14t14.5 -40zM575 110q0 14 -8 21.5t-22 7.5
t-26 -8t-20.5 -20.5t-13.5 -27t-5 -26.5q0 -34 28 -34q13 0 25 9.5t21.5 23t15 28.5t5.5 26z" />
    <glyph glyph-name="guilsinglleft" unicode="&#x2039;" horiz-adv-x="222" 
d="M89 114q18 -5 34 -13.5t30 -22.5q11 -13 19.5 -29t8.5 -27q0 -14 -13 -14q-5 0 -8 3.5t-9 14.5q-16 31 -40 49t-52 20l-14 1q-14 1 -14 14q0 11 15 14l12 2q18 3 40.5 26.5t42.5 58.5q4 8 9.5 16t15.5 8q13 0 13 -14q0 -6 -6.5 -19t-17.5 -27q-14 -19 -30 -34.5
t-36 -26.5z" />
    <glyph glyph-name="guilsinglright" unicode="&#x203a;" horiz-adv-x="222" 
d="M181 110q0 -13 -14 -14l-14 -1q-28 -2 -52 -20t-40 -49q-6 -11 -9 -14.5t-8 -3.5q-13 0 -13 14q0 11 8.5 27t19.5 29q14 14 30 22.5t34 13.5q-20 11 -36 26.5t-30 34.5q-11 14 -17.5 27t-6.5 19q0 14 13 14q10 0 15.5 -8t9.5 -16q20 -35 42.5 -58.5t40.5 -26.5l12 -2
q15 -3 15 -14z" />
    <glyph glyph-name="trademark" unicode="&#x2122;" horiz-adv-x="704" 
d="M145 449q13 -35 19.5 -75t6.5 -78q0 -85 -39 -85q-9 0 -17 6.5t-14.5 17.5t-10.5 24.5t-4 28.5q0 8 6 8q4 0 5 -8q3 -27 13.5 -46t21.5 -19t17 18.5t6 50.5q0 38 -7 76t-21 73q-21 -12 -46 -28t-39 -35q-3 -5 -4.5 -5.5t-3.5 -0.5t-6 1.5t-4 4.5t6 9q20 21 46.5 39
t56.5 31.5t61 21t60 7.5q39 0 39 -12q0 -3 -5.5 -10.5t-10.5 -7.5q-4 0 -5 6q-2 11 -21 11q-23 0 -52.5 -6.5t-53.5 -17.5zM514 251q2 -2 2 -4q0 -3 -6 -10.5t-8 -7.5t-8.5 10.5t-14.5 26.5q-11 19 -24.5 51t-25.5 65l-3 8q-7 -32 -17.5 -63.5t-22.5 -55.5
q-22 -42 -53.5 -67t-63.5 -25q-37 0 -63 40q-9 15 -9 25q0 13 16 13q11 0 11 -7q0 -6 -5.5 -5.5t-5.5 -4.5q0 -4 5 -14q8 -16 23 -25.5t31 -9.5q26 0 54.5 24.5t47.5 62.5q6 12 12.5 29.5t12 36.5t9.5 37.5t4 31.5q0 8 -2 14t-7 16q-3 6 -3 7q0 3 7.5 7.5t10.5 4.5t4 -4
q8 -24 17.5 -51t19 -52.5t20.5 -48t22 -38.5q5 18 14.5 40.5t21 45t23.5 43.5t23 36q0 32 2 40q2 2 7.5 4.5t11.5 2.5q4 0 4 -4t-1 -8.5t-1.5 -13t-1.5 -22t-1 -35.5q0 -73 14 -115.5t39 -42.5q8 0 11.5 3t8.5 3q3 0 3 -4q0 -7 -11 -10t-16 -3q-32 0 -49.5 44t-17.5 125v11
q-9 -9 -20.5 -30t-22 -45t-18.5 -46.5t-10 -35.5z" />
    <glyph glyph-name="Delta" unicode="&#x2206;" horiz-adv-x="370" 
d="M369 0h-368l185 418h18zM34 27h287l-135 348z" />
    <glyph glyph-name="radical" unicode="&#x221a;" horiz-adv-x="333" 
d="M235 -216h-35l-142 377l-34 -16l-10 23l68 30l136 -367l151 953h27z" />
    <glyph glyph-name="infinity" unicode="&#x221e;" horiz-adv-x="518" 
d="M262 149q-23 -32 -51 -55.5t-69 -23.5q-23 0 -42.5 8t-33.5 22.5t-22.5 33.5t-8.5 41t8 42t22.5 34t33.5 22.5t41 8.5q21 0 38 -7t31 -18.5t26 -26.5t23 -30q12 15 23.5 29.5t25 25.5t30 17.5t38.5 6.5q23 0 43 -8t34.5 -21.5t23 -33t8.5 -41.5q0 -23 -8 -42.5t-22.5 -34
t-34 -23t-41.5 -8.5q-21 0 -38 7t-31 18t-25.5 26t-21.5 31zM240 179q-9 13 -19.5 26t-22.5 24t-26.5 18t-31.5 7q-32 0 -54.5 -23t-22.5 -55t22 -54.5t54 -22.5q16 0 30.5 8.5t27 20.5t23.5 26t20 25zM279 170q9 -12 19 -25.5t22.5 -24.5t27 -18t31.5 -7q16 0 30 6.5
t24.5 17t16.5 25t6 30.5q0 32 -22 54.5t-53 22.5q-17 0 -31 -8.5t-27 -21t-24 -26.5t-20 -25z" />
    <glyph glyph-name="approxequal" unicode="&#x2248;" horiz-adv-x="426" 
d="M400 283q-6 -42 -28.5 -65.5t-57.5 -23.5q-23 0 -49 8t-49 16t-52.5 18.5t-51.5 10.5q-23 0 -39.5 -16.5t-21.5 -42.5h-25q3 18 9 34t16.5 29t25.5 20.5t36 7.5q12 0 26 -3t29 -7.5t29 -9.5t25 -9q22 -8 46 -16.5t47 -8.5q26 0 40.5 17.5t20.5 40.5h24v0zM401 167
q-6 -42 -28.5 -65.5t-57.5 -23.5q-23 0 -49 8t-49 16t-52.5 18.5t-51.5 10.5q-23 0 -39.5 -16.5t-21.5 -42.5h-25q3 18 9 34t16.5 29t25.5 20.5t36 7.5q12 0 26 -3t29 -7.5t29 -9.5t25 -9q22 -8 46 -16.5t47 -8.5q26 0 40.5 17.5t20.5 40.5h24v0z" />
    <glyph glyph-name="notequal" unicode="&#x2260;" horiz-adv-x="426" 
d="M361 263q5 0 8 0.5t6 0.5q14 0 14 -14q0 -20 -23 -20h-4h-3.5t-7 0.5t-13.5 0.5q-14 1 -30 1h-46h-6l-58 -110h162q5 0 8 0.5t6 0.5q14 0 14 -14q0 -20 -23 -20h-4h-3.5t-7 0.5t-13.5 0.5q-14 1 -30 1h-47h-77l-21 -44q-14 -29 -23 -42.5t-15 -13.5q-4 0 -10 4t-6 9
q0 4 1 6l39 80h-67q-29 0 -38 3t-9 13q0 15 20 15h110l57 111h-60q-20 0 -39.5 -0.5t-39.5 -0.5q-29 0 -38 3t-9 13q0 16 20 16q2 0 5 -0.5t7 -0.5h90h16.5t22.5 0.5t23 0.5h19l45 83q8 14 10 17t5 3q6 0 14 -5.5t8 -11.5q0 -8 -8 -21l-39 -65h88z" />
    <glyph glyph-name="lessequal" unicode="&#x2264;" horiz-adv-x="426" 
d="M388 96q6 -2 6 -11q0 -17 -1 -21.5t-4 -4.5t-11 4.5t-37 15.5l-293 117q-17 7 -17 23q0 11 5.5 15t22.5 12l307 128q13 5 16 6t5 1q5 0 5 -11q0 -5 0.5 -10t-2.5 -10q-1 -2 -2 -2.5t-4.5 -2t-10.5 -4t-19 -7.5l-280 -115l314 -123v0zM80 -1q-29 0 -38 3t-9 13q0 16 20 16
q2 0 5 -0.5t7 -0.5h44h30t16 0.5t16.5 0.5h30.5h157q5 0 8.5 0.5t5.5 0.5q14 0 14 -14q0 -20 -22 -20h-4h-3.5t-7 0.5t-13.5 0.5q-35 2 -69.5 1.5t-69.5 -0.5q-29 0 -59 -0.5t-59 -0.5z" />
    <glyph glyph-name="greaterequal" unicode="&#x2265;" horiz-adv-x="426" 
d="M394 219q0 -16 -17 -23l-293 -117q-29 -11 -37 -15.5t-11 -4.5t-4 4.5t-1 21.5q0 9 6 11l314 123l-280 115q-24 10 -29.5 11.5t-6.5 4.5q-3 5 -2.5 10t0.5 10q0 11 5 11q2 0 5 -1t16 -6l307 -128q17 -8 22.5 -12t5.5 -15zM392 15q0 -10 -9 -13t-38 -3t-59 0.5t-59 0.5
q-35 0 -69.5 0.5t-69.5 -1.5q-9 0 -13.5 -0.5t-7 -0.5h-3.5h-4q-22 0 -22 20q0 14 14 14q2 0 5.5 -0.5t8.5 -0.5h157h30.5t16.5 -0.5t16 -0.5h30h44q4 0 7 0.5t5 0.5q20 0 20 -16z" />
    <glyph glyph-name="uniF8FF" unicode="&#xf8ff;" horiz-adv-x="512" 
d="M222 117v67h56v-67h-56zM225 234l-2 17q0 56 13 81q7 13 18 27.5t28 31.5q16 15 26 26.5t15 21t7 18t2 17.5q0 36 -22.5 60.5t-53.5 24.5t-53.5 -22t-28.5 -73l-50 8q7 72 44 104.5t91 32.5t89 -35.5t35 -95.5q0 -32 -12.5 -58.5t-50.5 -61.5q-37 -33 -43 -52
q-6 -20 -6 -72h-46zM462 50v617h-412v-617h412zM512 718v-718h-512v718h512z" />
    <glyph glyph-name="brokenbar" unicode="&#xa6;" horiz-adv-x="167" 
d="M66 161h34v-250h-34v250zM66 661h34v-250h-34v250z" />
    <glyph glyph-name="uni00AD" unicode="&#xad;" horiz-adv-x="333" 
d="M67 114q-5 -1 -11 -1q-5 0 -9.5 6t-4.5 14q0 9 8 12t33 4q12 0 22 0.5t21 1t24 1t30 0.5q30 0 53.5 -1t39.5 -3q5 -1 12 -1.5t7 -8.5q0 -13 -18 -13q-17 0 -33.5 1t-33.5 1q-22 0 -43.5 -1t-43.5 -4q-1 0 -8.5 -1t-16.5 -2.5t-17.5 -3t-10.5 -1.5z" />
    <glyph glyph-name="uni0394" unicode="&#x394;" horiz-adv-x="370" 
d="M369 0h-368l185 418h18zM34 27h287l-135 348z" />
    <glyph glyph-name="afii10023" unicode="&#x401;" horiz-adv-x="481" 
d="M316 564q-2 -8 -6.5 -21t-14.5 -13q-12 0 -12 12q0 10 10 43q5 14 8.5 19t10.5 5q12 0 12 -12q0 -2 -1.5 -7.5l-3 -11t-2.5 -10zM366 538q-3 -13 -6.5 -17t-10.5 -4q-12 0 -12 11q0 3 2 11l12 48q2 10 5 13t10 3q13 0 13 -12q0 -5 -1 -8l-12 -45v0zM77 145q23 15 54 32.5
t65 31.5t68 23.5t63 9.5q38 0 38 -14q0 -12 -19 -12h-23q-27 0 -62 -10.5t-70 -26t-66 -35t-50 -37.5q6 -85 94 -85q30 0 65.5 11.5t70.5 28.5t66.5 37.5t54.5 38.5l3.5 3.5t8.5 7t10 6.5t8 3q9 0 9 -7q0 -6 -8.5 -16t-20 -20t-22.5 -18t-15 -11q-25 -17 -54.5 -33.5
t-60.5 -29.5t-63.5 -20.5t-63.5 -7.5q-25 0 -46.5 5.5t-38 17.5t-26 30t-9.5 44q0 31 10 66.5t29 72t44.5 72t57.5 66.5q15 14 35.5 30.5t44 30.5t48 23.5t46.5 9.5q21 0 37.5 -7.5t16.5 -16.5q0 -8 -11.5 -16t-19.5 -8q-5 0 -8 3.5t-5 5.5q-8 8 -23 8q-13 0 -30.5 -6.5
t-36.5 -17.5t-38.5 -26.5t-37.5 -33.5q-42 -43 -72.5 -94t-46.5 -109z" />
    <glyph glyph-name="afii10051" unicode="&#x402;" horiz-adv-x="660" 
d="M605 219q0 -53 -22.5 -110t-53.5 -106q-28 -45 -53.5 -64.5t-38.5 -19.5q-4 0 -8.5 3.5t-8 8t-5 8.5t-0.5 6q2 2 12 6.5t13 6.5q14 7 26 17.5t21 22t15.5 20.5t8.5 13q25 41 41.5 88t16.5 89q0 21 -4 41.5t-13 36.5t-24.5 25.5t-37.5 9.5q-32 0 -61 -13t-52.5 -31
t-41.5 -38t-28 -34q3 -36 3 -74v-23t1 -30.5t2.5 -29.5t3.5 -21q3 -9 3 -13q0 -6 -6.5 -10.5t-14.5 -4.5q-14 0 -17 13.5t-3 57.5v53q0 77 -9 159t-22 150q-17 -8 -42 -22t-52 -32.5t-51.5 -40t-40.5 -43.5q-6 -8 -8.5 -10t-6.5 -2q-5 0 -12.5 3.5t-7.5 8.5q0 1 6 10.5
t20.5 24.5t38 34.5t58.5 41.5q74 47 158.5 76.5t161.5 29.5q8 0 20.5 -0.5t24.5 -3t21 -7t9 -12.5q0 -3 -3.5 -9.5t-8.5 -13t-10.5 -11t-8.5 -4.5q-5 0 -6.5 4t-2.5 8q-2 9 -9.5 16t-32.5 7q-51 0 -100 -12.5t-84 -27.5q4 -26 10.5 -81t14.5 -124q10 15 28.5 34t43.5 36
t55 28.5t65 11.5q37 0 59 -17t33 -39t14 -43.5t3 -31.5z" />
    <glyph glyph-name="afii10052" unicode="&#x403;" horiz-adv-x="444" 
d="M173 528q-7 -5 -12 -5t-8 3.5t-3 7.5q0 5 5 11t18 16l49 37q11 8 19 8q12 0 12 -10q0 -7 -9 -13l-71 -55v0zM18 377q-5 -2 -8.5 -5t-8.5 -3q-8 0 -11 8.5t-3 10.5t5 6t12.5 8.5t16 9t14.5 7.5q39 19 81.5 36.5t77.5 27.5q48 14 101 21.5t105 7.5q8 0 20.5 -0.5t24.5 -3
t21 -7.5t9 -13q0 -3 -3.5 -9.5t-8.5 -13t-10.5 -11t-8.5 -4.5q-5 0 -6.5 4t-2.5 8q-2 9 -9.5 16t-32.5 7q-51 0 -104.5 -8t-95.5 -24q6 -17 15.5 -50t18.5 -75.5t16 -93t7 -103.5q0 -14 -1.5 -42t-8.5 -56.5t-22 -50t-42 -21.5t-44.5 20.5t-27.5 47t-14 51.5t-4 34
q0 5 2 10.5t9 5.5q6 0 7.5 -3t3.5 -17q6 -38 15 -62t18 -38.5t17.5 -20t15.5 -5.5q15 0 24 17t13.5 40t6 46t1.5 36q0 77 -15 162t-43 157q-23 -7 -41.5 -14.5t-35.5 -15.5t-33 -17t-33 -18z" />
    <glyph glyph-name="afii10053" unicode="&#x404;" horiz-adv-x="370" 
d="M305 226q0 -12 -19 -12t-31.5 -0.5t-23.5 -2t-22.5 -5t-28.5 -9.5q-11 -4 -42.5 -17t-65.5 -33q-1 -5 -1 -15q0 -51 25 -80.5t70 -29.5q35 0 73 21.5t69 56.5l24 27q5 7 11 7q9 0 9 -11t-24 -38q-39 -46 -86 -70.5t-95 -24.5q-50 0 -79.5 35.5t-29.5 95.5q0 31 8 64.5
t22.5 67.5t35 67.5t46.5 63.5q42 48 81 72.5t71 24.5q17 0 26.5 -8.5t9.5 -22.5q0 -26 -16 -53.5t-51 -57.5q-4 -3 -14 -12.5t-17 -9.5q-4 0 -7.5 4t-3.5 9q0 2 4 6.5t9 9t9.5 8.5t6.5 6q6 6 15 15.5t17 20t13.5 21.5t5.5 20q0 16 -16 16q-23 0 -55.5 -23.5t-64.5 -62.5
t-59 -88t-38 -101q19 10 42.5 21t49 20t51.5 15t49 6h9.5t12.5 -1.5t10.5 -4.5t4.5 -8z" />
    <glyph glyph-name="afii10054" unicode="&#x405;" horiz-adv-x="389" 
d="M168 442q0 20 19 31.5t48 11.5q18 0 41.5 -5.5t46.5 -15.5q19 -8 36.5 -19t31 -22t21.5 -21t8 -17q0 -4 -4 -9.5t-9.5 -10t-11 -7.5t-9.5 -3q-13 0 -13 13q0 4 1 7t1 7q0 11 -20 28.5t-48 31.5q-18 8 -35.5 13t-34.5 5q-26 0 -26 -18q0 -13 7.5 -40t17.5 -57t20 -57.5
t15 -41.5q17 -48 31 -99.5t14 -102.5q0 -106 -82 -106q-64 0 -137 76q-38 40 -61.5 79t-23.5 64q0 14 9.5 23.5t24.5 9.5q22 0 22 -11q0 -5 -4 -5.5t-8 -0.5q-21 0 -21 -17t21 -48.5t59 -71.5q35 -36 63 -52.5t57 -16.5q15 0 24 6.5t13.5 16.5t6 22.5t1.5 25.5q0 35 -11 84
t-32 109q-5 13 -16 43.5t-23 64.5t-21 63t-9 40z" />
    <glyph glyph-name="afii10055" unicode="&#x406;" horiz-adv-x="185" 
d="M115 245q0 -31 0.5 -54t1 -41t2 -33t3.5 -30q4 -28 8.5 -40t14.5 -23q4 -3 4 -5q0 -5 -11 -14t-17 -9q-11 0 -18 13t-12 42q-3 15 -4.5 39.5t-3 53t-2 58t-0.5 53.5q0 47 2 93.5t4 93.5q0 8 5 12q9 7 20 12t16 5q10 0 10 -10q0 -5 -1 -9q-14 -51 -18 -103t-4 -104z" />
    <glyph glyph-name="afii10056" unicode="&#x407;" horiz-adv-x="185" 
d="M115 245q0 -31 0.5 -54t1 -41t2 -33t3.5 -30q4 -28 8.5 -40t14.5 -23q4 -3 4 -5q0 -5 -11 -14t-17 -9q-11 0 -18 13t-12 42q-3 15 -4.5 39.5t-3 53t-2 58t-0.5 53.5q0 47 2 93.5t4 93.5q0 8 5 12q9 7 20 12t16 5q10 0 10 -10q0 -5 -1 -9q-14 -51 -18 -103t-4 -104z
M118 564q-2 -8 -6.5 -21t-14.5 -13q-12 0 -12 12q0 10 10 43q5 14 8.5 19t10.5 5q12 0 12 -12q0 -2 -1.5 -7.5l-3 -11t-2.5 -10zM168 538q-3 -13 -6.5 -17t-10.5 -4q-12 0 -12 11q0 3 2 11l12 48q2 10 5 13t10 3q13 0 13 -12q0 -5 -1 -8l-12 -45v0z" />
    <glyph glyph-name="afii10057" unicode="&#x408;" horiz-adv-x="370" 
d="M249 436q-4 11 -6.5 15.5t-9.5 12.5q-4 5 -4 9t4.5 7.5t10.5 6t12 4t9 1.5q7 0 9 -6q13 -29 21 -71t12.5 -87.5t6 -89t1.5 -75.5q0 -149 -25.5 -224t-76.5 -75q-76 0 -136 116q-20 39 -31.5 83.5t-11.5 83.5q0 37 21 37q8 0 14.5 -8t6.5 -19q0 -5 -4 -8.5t-7 -5.5
q-5 -3 -5 -9q0 -21 5.5 -46t14.5 -49.5t21 -47.5t24 -40q42 -60 85 -60q23 0 35 17t18 37q11 33 16.5 77.5t5.5 98.5q0 67 -5.5 140.5t-19.5 139.5q-8 2 -12.5 2h-12.5q-20 0 -43.5 -4t-43.5 -12q-14 -5 -19.5 -8.5t-5.5 -6.5q0 -5 11 -12.5t25 -13.5q2 -1 7.5 -2.5
t5.5 -5.5q0 -5 -7.5 -14.5t-12.5 -9.5q-10 0 -32 14q-16 11 -25 21.5t-9 19.5q0 11 13.5 22.5t36 20.5t52 15.5t61.5 8.5z" />
    <glyph glyph-name="afii10058" unicode="&#x409;" horiz-adv-x="710" 
d="M688 244q0 -21 -12 -47.5t-32 -54.5t-45.5 -55t-52.5 -48t-53 -34t-47 -13q-27 0 -40.5 12t-19.5 50q0 3 -1.5 16t-3 32t-2.5 42.5t-1 47.5v15.5v24t0.5 28.5t0.5 27q-21 -53 -55.5 -109.5t-74.5 -103t-82.5 -76t-79.5 -29.5q-58 0 -81.5 26.5t-23.5 66.5q0 8 1 13.5
t3 18.5q4 20 15 20q7 0 7 -8q0 -5 -3 -18t-3 -27q0 -37 23.5 -51t61.5 -14q25 0 54.5 18t59 48t58.5 70.5t53 85t42.5 91.5t27.5 91q1 9 2.5 21t2.5 23t2 19t3 10q4 3 10.5 5t19.5 2q2 0 8 -1t6 -7q0 -2 -2.5 -9.5t-3.5 -9.5q-7 -20 -10 -57t-4.5 -77.5t-1.5 -77.5v-56
q16 14 40.5 32t53.5 34.5t61 28t62 11.5q57 0 57 -47zM648 229q0 16 -5 22.5t-22 6.5q-25 0 -54.5 -11t-57.5 -27t-49.5 -33.5t-29.5 -30.5q-7 -10 -9 -21t-2 -19q0 -14 1 -29t5 -27.5t11.5 -20.5t20.5 -8q23 0 56 22.5t63 54t51 65.5t21 56z" />
    <glyph glyph-name="afii10059" unicode="&#x40a;" horiz-adv-x="751" 
d="M407 212q-7 -5 -8 -5q-3 0 -12.5 3.5t-12.5 4.5q-10 2 -26 3.5t-28 1.5q-32 0 -63 -4t-61 -11q-1 -78 1 -123.5t7.5 -71t14.5 -37.5t21 -23q2 -2 2 -4q0 -1 -3 -4.5t-7.5 -7t-8.5 -6.5t-7 -3q-2 0 -7.5 1.5t-12.5 9.5t-14.5 25t-12.5 49q-6 41 -7 93.5t0 93.5
q-13 -3 -26 -6.5t-24.5 -7t-20 -6.5t-11.5 -4q-2 0 -9 -2.5t-15 -5.5t-15 -5.5t-8 -2.5q-8 0 -16 9.5t-8 11.5q0 1 18.5 8t43.5 14.5t51 14.5t41 10q0 36 2 88.5t10 127.5q1 11 3 15.5t9 8.5q8 4 18.5 8t15.5 4t5 -5q0 -8 -4 -19.5t-9 -37t-10 -69t-7 -115.5q38 8 79 12
t83 4h9t13.5 -0.5t14.5 -1t12 -0.5l2 54t1.5 49.5t1.5 38.5t1 19q1 4 6.5 7.5t13 6.5t15 5t11.5 2q1 0 3 -0.5t2 -4.5q0 -8 -4 -20.5t-9 -45.5q-5 -42 -7 -93t-3 -95q16 14 40.5 32t53.5 34.5t61 28t62 11.5q57 0 57 -47q0 -21 -12 -47.5t-32 -54.5t-45.5 -55t-52.5 -48
t-53 -34t-47 -13q-10 0 -22 6t-22 23.5t-17 48.5t-7 82q0 5 0.5 26.5t1.5 50.5zM675 212q0 16 -5 22.5t-22 6.5q-25 0 -54.5 -11t-57.5 -27t-49.5 -33.5t-29.5 -30.5q-7 -10 -9 -21t-2 -19q0 -14 1 -29t5 -27.5t11.5 -20.5t20.5 -8q23 0 56 22.5t63 54t51 65.5t21 56z" />
    <glyph glyph-name="afii10060" unicode="&#x40b;" horiz-adv-x="591" 
d="M545 488q0 -3 -3.5 -9.5t-8.5 -13t-10.5 -11t-8.5 -4.5q-5 0 -6.5 4t-2.5 8q-2 9 -9.5 16t-32.5 7t-52.5 -4t-54.5 -11t-51.5 -15.5t-43.5 -17.5q6 -17 14 -47.5t16 -70t13.5 -87.5t5.5 -101v-14t1 -13q26 48 46.5 80.5t36.5 55.5q25 37 41 58t26.5 30.5t18 11.5t16.5 2
q5 0 10 -1.5t7 -1.5q-3 -15 -6 -29.5t-5 -28.5q-3 -15 -6.5 -40t-6 -55t-4.5 -63.5t-2 -66.5q0 -13 6 -28.5t18 -15.5q10 0 15.5 6.5t13.5 6.5q10 0 10 -9t-13.5 -20t-31.5 -11q-15 0 -25 7t-16 18.5t-8.5 25t-2.5 27.5q0 35 1 61.5t3 52t5 53.5t7 66q-51 -73 -93.5 -148
t-84.5 -153q-11 -20 -24.5 -29t-15.5 -9q-7 0 -13 9.5t-6 15.5q0 8 9 10.5t18 12.5q8 9 12.5 24t7 31.5t3.5 33t1 29.5q0 77 -12.5 151.5t-40.5 146.5q-14 -8 -35.5 -20t-44.5 -28.5t-45.5 -36.5t-38.5 -42q-6 -8 -8.5 -10t-6.5 -2q-5 0 -12.5 3.5t-7.5 8.5q0 1 6 10.5
t20.5 24.5t38 34.5t58.5 41.5q74 47 158.5 76.5t161.5 29.5q8 0 20.5 -0.5t24.5 -3t21 -7t9 -12.5z" />
    <glyph glyph-name="afii10061" unicode="&#x40c;" horiz-adv-x="463" 
d="M112 191q0 -32 2 -64t6 -64q3 -23 5.5 -38t7 -24.5t10 -15t14.5 -9.5q10 -3 10 -11q0 -7 -5.5 -16t-13.5 -9q-17 0 -32.5 24.5t-21.5 58.5q-4 19 -7 47t-5.5 59t-3.5 63.5t-1 62.5q0 9 0.5 39t1 63.5t2.5 62t5 35.5q4 8 17 13t21 5q6 0 6 -4q0 -1 -2 -11l-2 -10
q-6 -32 -9 -70.5t-5 -74.5q-1 -20 -1.5 -40.5t0.5 -36.5q52 42 97 96q30 36 52 66.5t43 65.5q2 5 9 17t12 14q2 1 8.5 2.5t13 2t12 -1t5.5 -5.5q0 -2 -4 -9q-23 -35 -46.5 -68.5t-49.5 -65.5q-26 -33 -56 -66.5t-59 -56.5q40 -44 82 -81.5t81.5 -64.5t74 -42.5t58.5 -15.5
q5 0 11 1t11 1q9 0 9 -9q0 -18 -38 -18q-21 0 -43.5 7t-43.5 17.5t-41 23.5t-37 26q-42 31 -81 67.5t-71 67.5l-8 -6v0zM217 528q-7 -5 -12 -5t-8 3.5t-3 7.5q0 5 5 11t18 16l49 37q11 8 19 8q12 0 12 -10q0 -7 -9 -13l-71 -55v0z" />
    <glyph glyph-name="afii10062" unicode="&#x40e;" horiz-adv-x="537" 
d="M479 606q-1 -2 -10 -15.5t-25 -29t-38 -28t-48 -12.5q-27 0 -40.5 12.5t-19.5 28t-6.5 28.5t-0.5 15q1 12 9.5 15.5t12.5 3.5q9 0 9.5 -6t0.5 -11q0 -29 7 -43t27 -14q13 0 26 5t24.5 12.5t20 16.5t13.5 16q13 20 19.5 23t11.5 3q7 0 8 -7t-1 -13zM257 412
q-32 -1 -74 -9.5t-74 -22.5q-26 -11 -40.5 -24t-14.5 -25q0 -14 19 -19q11 -3 11 -13q0 -15 -20 -15q-17 0 -28.5 12t-11.5 29q0 75 218 115l11 2l-2.5 7.5t-1.5 6.5q0 3 4.5 6t10.5 5.5t12 3.5t9 1q7 0 8 -7q1 -8 1 -23t1 -42q1 -102 6 -206q2 -35 4.5 -68.5t4.5 -68.5
q0 -4 1 -10.5t6 -6.5q4 0 12.5 12.5t17 28t16 30t9.5 19.5q19 40 35.5 80.5t29.5 82.5q-5 14 -10.5 27.5t-12.5 26.5q-4 6 -4.5 7.5t-0.5 3.5q0 3 5 6.5t11 6.5t12 5.5t8 2.5q5 0 8 -6.5t11 -34.5q8 -31 12.5 -53t7.5 -48q4 -32 6.5 -65t2.5 -66q0 -24 -2 -56.5t-8.5 -67.5
t-17.5 -69t-28 -60.5t-42 -43t-58 -16.5q-44 0 -82.5 25.5t-67.5 73.5q-9 15 -17 34.5t-15 41t-11 43t-4 38.5q0 21 31 21q9 0 9 -9q0 -8 -1.5 -16t-1.5 -16q0 -41 13.5 -79t36.5 -67.5t52 -47.5t61 -18q27 0 46.5 15t33.5 39t22 54t13 60t6.5 57t1.5 46q0 38 -3.5 75
t-12.5 74q-32 -90 -79 -172q-21 -37 -33.5 -50.5t-28.5 -13.5q-12 0 -18 11t-8.5 26t-2.5 30t-1 24q-7 80 -9 159.5t-10 160.5z" />
    <glyph glyph-name="afii10145" unicode="&#x40f;" horiz-adv-x="630" 
d="M417 74q0 -10 -1 -23t-3 -31q-2 -30 -6 -60t-9 -56t-10.5 -45.5t-9.5 -28.5q-4 -10 -15 -10q-8 0 -13 5.5t-5 13.5t3 15t5 14q11 36 20 73t14 80q-9 -15 -20.5 -31t-25 -29.5t-28.5 -22.5t-30 -9q-18 0 -25 12t-7 44q0 64 6 127l14 150t15 151q-52 -1 -96 -9.5t-75.5 -23
t-49 -34.5t-17.5 -43q0 -7 2.5 -15.5t7 -16t11 -12.5t14.5 -5h4q6 0 6 -7q0 -8 -5 -15t-12 -7q-11 0 -21 7t-17 18t-11 23.5t-4 23.5q0 71 99 111q35 14 74 22t91 13v17q0 9 0.5 11.5t3.5 4.5q6 5 17 10t18 5q8 0 8 -8q0 -6 -1.5 -11.5t-2.5 -11.5q-10 -72 -19 -143
t-17 -143q-5 -44 -8 -87t-3 -88q0 -3 -0.5 -10t0.5 -14t3.5 -12.5t8.5 -5.5q22 0 83 103q30 51 56 102.5t49 105.5q12 27 17 43t5 27q0 7 -2 21.5t-6 44.5q0 3 -1.5 9.5t-2.5 14t-2 14.5t-1 11t5 8t11.5 7t13 5t10.5 2q7 0 7 -9v-57q0 -34 1.5 -73.5t4.5 -80t8 -79.5t13 -71
q3 -11 5.5 -24t7.5 -24.5t13 -20.5t21 -12q2 -1 6.5 -2.5t4.5 -4.5q0 -2 -3 -6.5t-7 -10t-8.5 -9.5t-8.5 -4q-11 0 -23.5 10.5t-20.5 27.5q-13 26 -19 57.5t-10 60.5q-4 31 -6.5 62t-6.5 62q-19 -46 -42.5 -96t-49.5 -97z" />
    <glyph glyph-name="afii10017" unicode="&#x410;" horiz-adv-x="556" 
d="M318 244q16 -52 36.5 -95t53.5 -85q26 -33 47.5 -48t42.5 -15q29 0 45 19q8 9 13 9q7 0 7 -7q0 -11 -14 -25q-21 -21 -55 -21q-55 0 -107 63q-35 42 -57.5 89.5t-40.5 98.5q-14 -8 -33 -19t-38.5 -23.5t-37 -25t-28.5 -23.5q-25 -43 -53.5 -85.5t-63.5 -78.5
q-10 -10 -17 -14.5t-21 -4.5q-23 0 -23 9q0 2 6 7q23 16 44.5 39.5t41 49.5t36.5 53t30 51q10 19 24.5 51.5t27.5 67t22 66t9 50.5q0 4 -0.5 7t-0.5 6q0 5 4.5 8t17.5 9l-6 24q-2 5 -3 12t-1 12q0 4 3.5 8.5t8.5 8.5t10.5 6.5t9.5 2.5q5 0 5 -8q0 -17 3 -33q2 -11 3 -17.5
t2 -12.5t2.5 -12.5t3.5 -16.5q14 -69 33 -134q15 8 38.5 18t48.5 18.5t48 14.5t38 6q13 0 13 -10q0 -6 -4.5 -9t-19.5 -6q-44 -8 -80.5 -22.5t-73.5 -32.5zM281 252q-11 34 -19 68l-16 68q-14 -59 -33 -113q-8 -23 -17 -45t-20 -44q26 16 52 33t53 33z" />
    <glyph glyph-name="afii10018" unicode="&#x411;" horiz-adv-x="556" 
d="M229 19q5 -1 10 -1h10q45 0 89 20.5t78.5 50t56 62t21.5 55.5q0 27 -14 47t-57 20q-21 0 -47.5 -5t-54 -13.5t-54 -19.5t-46.5 -22q0 -2 -0.5 -22.5t0 -49.5t2 -62t6.5 -60zM430 300q28 0 46.5 -8t29.5 -21t16 -28.5t5 -30.5q0 -26 -14 -51.5t-34 -48t-41.5 -40.5
t-35.5 -28q-10 -8 -28.5 -17.5t-42.5 -18t-50.5 -14.5t-53.5 -6q-9 0 -15.5 0.5t-11.5 1.5q-6 42 -8 83t-2 83q0 27 1 62.5t3 70t4 65t4 47.5q-48 -23 -90.5 -47.5t-73.5 -49.5q-4 -4 -11.5 -7.5t-11.5 1.5q-11 13 6 26q40 31 86.5 58.5t96 49.5t99 38t94.5 24q26 5 49.5 6
t42.5 -6q1 0 5.5 -2t9.5 -4.5t9 -6.5t5 -9q1 -6 -1.5 -12.5t-7 -12t-9.5 -9.5t-8 -4q-4 -1 -5.5 1.5t-8.5 17.5q-8 19 -28.5 20.5t-41.5 -2.5q-38 -7 -81.5 -21t-88.5 -33q-6 -60 -9.5 -100.5t-5.5 -73.5q14 7 38.5 17t53.5 19t59.5 15t55.5 6z" />
    <glyph glyph-name="afii10019" unicode="&#x412;" horiz-adv-x="611" 
d="M271 382q-66 -24 -124 -60.5t-112 -80.5q-7 -6 -10 -6q-4 0 -13.5 5t-9.5 10t6.5 10.5t10.5 7.5q51 36 103.5 69.5t109.5 57.5q24 10 52 20t57.5 18t58.5 13t56 5q84 0 84 -38q0 -13 -9 -27.5t-32 -35.5q-29 -27 -60.5 -49.5t-66.5 -40.5q17 2 26 2.5t20 0.5q37 0 69 -8
t55.5 -22.5t37 -34t13.5 -42.5q0 -28 -20.5 -53.5t-65.5 -53.5q-48 -29 -102 -45t-108 -16h-13t-14 2q-8 41 -9 87t-1 81q0 57 3 114.5t8 109.5zM305 247q42 25 79 47t74 53q25 20 36 33.5t11 24.5q0 23 -50 23q-38 0 -76.5 -8.5t-73.5 -24.5q-3 -36 -5.5 -76t-6.5 -79z
M299 19q8 -1 12.5 -1h10.5q42 0 87.5 14.5t86.5 40.5q63 40 63 82q0 32 -38 57q-20 14 -47 20.5t-63 6.5q-64 0 -120 -31q0 -11 -0.5 -16.5t-0.5 -16.5q0 -57 2 -92t7 -64z" />
    <glyph glyph-name="afii10020" unicode="&#x413;" horiz-adv-x="444" 
d="M18 377q-5 -2 -8.5 -5t-8.5 -3q-8 0 -11 8.5t-3 10.5t5 6t12.5 8.5t16 9t14.5 7.5q39 19 81.5 36.5t77.5 27.5q48 14 101 21.5t105 7.5q8 0 20.5 -0.5t24.5 -3t21 -7.5t9 -13q0 -3 -3.5 -9.5t-8.5 -13t-10.5 -11t-8.5 -4.5q-5 0 -6.5 4t-2.5 8q-2 9 -9.5 16t-32.5 7
q-51 0 -104.5 -8t-95.5 -24q6 -17 15.5 -50t18.5 -75.5t16 -93t7 -103.5q0 -14 -1.5 -42t-8.5 -56.5t-22 -50t-42 -21.5t-44.5 20.5t-27.5 47t-14 51.5t-4 34q0 5 2 10.5t9 5.5q6 0 7.5 -3t3.5 -17q6 -38 15 -62t18 -38.5t17.5 -20t15.5 -5.5q15 0 24 17t13.5 40t6 46
t1.5 36q0 77 -15 162t-43 157q-23 -7 -41.5 -14.5t-35.5 -15.5t-33 -17t-33 -18z" />
    <glyph glyph-name="afii10021" unicode="&#x414;" horiz-adv-x="667" 
d="M198 62q-4 -7 -5.5 -9.5t-4 -7t-7.5 -14t-15 -30.5q-8 -14 -21 -36t-25 -41q-14 -20 -26 -20q-8 0 -13.5 5.5t-5.5 13.5q0 4 2.5 16t3.5 16q15 61 15 128q0 34 -2 68t-8 68q-2 7 -2.5 10.5t-0.5 5.5v3.5v5.5q0 13 18 13q7 0 10 -1.5t5 -7.5q8 -23 14.5 -46t19.5 -45
q8 -14 19 -27t22 -24q19 38 38 75.5t39 76.5q21 42 43 83.5t42 83.5q-36 11 -61 14.5t-57 3.5q-135 0 -175 -67q-6 -10 -11 -10q-4 0 -7.5 5.5t-3.5 9.5q0 8 9.5 20t23.5 22q56 42 163 42q34 0 62.5 -4t65.5 -15q10 20 23.5 45t22.5 41q23 38 43 38q9 0 16 -8t7 -19
q0 -12 -10 -12q-4 0 -5.5 2t-4.5 5q-2 2 -4 2q-5 0 -13 -14q-12 -23 -24 -45t-23 -45q33 -13 71.5 -34t72.5 -50q105 -90 105 -190q0 -43 -21 -74t-54 -51t-72.5 -29.5t-76.5 -9.5q-65 0 -115 15t-102 49zM211 87q48 -29 101 -46.5t110 -17.5q30 0 62 8t57.5 24.5t42 42
t16.5 60.5q0 45 -21.5 91.5t-59.5 82.5q-27 26 -59 45t-81 37q-20 -39 -42 -84.5t-45 -89.5q-20 -39 -40.5 -77t-40.5 -76zM176 78q-20 19 -33 35.5t-25 41.5q2 -24 2.5 -37.5t0.5 -30.5q0 -38 -4 -71t-13 -69q9 14 14.5 24t12 21t14.5 26.5t21 40.5l10 19v0z" />
    <glyph glyph-name="afii10022" unicode="&#x415;" horiz-adv-x="481" 
d="M77 145q23 15 54 32.5t65 31.5t68 23.5t63 9.5q38 0 38 -14q0 -12 -19 -12h-23q-27 0 -62 -10.5t-70 -26t-66 -35t-50 -37.5q6 -85 94 -85q30 0 65.5 11.5t70.5 28.5t66.5 37.5t54.5 38.5l3.5 3.5t8.5 7t10 6.5t8 3q9 0 9 -7q0 -6 -8.5 -16t-20 -20t-22.5 -18t-15 -11
q-25 -17 -54.5 -33.5t-60.5 -29.5t-63.5 -20.5t-63.5 -7.5q-25 0 -46.5 5.5t-38 17.5t-26 30t-9.5 44q0 31 10 66.5t29 72t44.5 72t57.5 66.5q15 14 35.5 30.5t44 30.5t48 23.5t46.5 9.5q21 0 37.5 -7.5t16.5 -16.5q0 -8 -11.5 -16t-19.5 -8q-5 0 -8 3.5t-5 5.5q-8 8 -23 8
q-13 0 -30.5 -6.5t-36.5 -17.5t-38.5 -26.5t-37.5 -33.5q-42 -43 -72.5 -94t-46.5 -109z" />
    <glyph glyph-name="afii10024" unicode="&#x416;" horiz-adv-x="665" 
d="M665 53q0 -9 -7 -14t-13 -8q-7 -4 -17.5 -8.5t-23 -9t-25.5 -7.5t-24 -3q-60 0 -87 44.5t-27 114.5v10t1 10q-24 -50 -48 -95.5t-42 -67.5q-8 -10 -26 -10q-10 0 -14.5 8t-6.5 19t-2 23v20q0 26 5 73t10 95q-51 -74 -113 -144.5t-128 -127.5q-24 -21 -49.5 -36t-48.5 -15
q-19 0 -19 21q0 6 4.5 10t10.5 4q18 0 39.5 11t42.5 27.5t39.5 36t30.5 37.5q14 21 29 54t27.5 69t20.5 70.5t8 60.5q0 20 -4 38t-13 32t-24 22t-38 8q-44 0 -86 -18q-5 -2 -15.5 -7t-13.5 -5q-5 0 -8.5 3.5t-3.5 8.5q0 9 13.5 17.5t33 15t42 10.5t39.5 4q55 0 83 -31
t28 -85q0 -27 -5 -55.5t-13 -56.5t-18 -55t-21 -50q40 45 76 93.5t61 93.5q2 12 3 23.5t3 13.5q4 7 15 13t19 6q6 0 6 -5q1 -6 -0.5 -13t-2.5 -13q-5 -30 -7.5 -43t-4.5 -23t-4.5 -23t-6.5 -43q-4 -26 -7.5 -61.5t-3.5 -63.5v-18.5t3 -8.5q2 0 5 3q14 22 30.5 50.5t33.5 60
t32.5 63.5t28.5 60q8 16 18.5 37.5t24.5 40t31.5 31.5t38.5 13q18 0 18 -13q0 -6 -5.5 -16t-12.5 -10q-4 0 -6.5 1.5t-6.5 1.5q-11 0 -25.5 -15.5t-26.5 -38.5q-18 -34 -29 -73t-11 -77q0 -63 21.5 -97.5t71.5 -34.5q17 0 30.5 4t24 9.5t18.5 9.5t14 4q10 0 10 -10z" />
    <glyph glyph-name="afii10025" unicode="&#x417;" horiz-adv-x="481" 
d="M463 117q0 -36 -19 -62.5t-48 -43.5t-65 -25t-69 -8q-60 0 -103.5 18.5t-71 43t-41 49.5t-13.5 37q0 13 4.5 21.5t18.5 8.5q5 0 12.5 -2.5t7.5 -10.5q0 -9 -1 -13t-1 -6q0 -16 11.5 -37t41.5 -44q24 -17 56 -29.5t76 -12.5q74 0 119 32t45 85q0 31 -16 55t-41.5 40.5
t-57.5 25t-63 8.5q-16 0 -37 -1.5t-39 -6.5q-3 -2 -11 -5t-10 -3q-3 0 -10 9.5t-7 12.5q0 2 2 3t12 5q31 12 70.5 30.5t73.5 39t57.5 41.5t23.5 39q0 13 -13 20.5t-36 7.5q-31 0 -62 -10.5t-58 -25.5t-48.5 -31.5t-34.5 -28.5q-12 -11 -15.5 -15t-8.5 -4q-4 0 -8.5 4.5
t-4.5 9.5t21 25t55.5 42.5t78.5 40.5t91 18q38 0 60 -14t22 -36q0 -18 -16.5 -37.5t-42 -38t-56 -35t-58.5 -28.5q42 0 82.5 -11t72.5 -32t52 -50.5t20 -64.5z" />
    <glyph glyph-name="afii10026" unicode="&#x418;" horiz-adv-x="630" 
d="M509 267q-22 -54 -50 -112.5t-58 -109.5q-8 -14 -20.5 -33.5t-28 -38t-33 -31.5t-36.5 -13q-18 0 -25 12t-7 44q0 64 6 127l14 150t15 151q-52 -1 -96 -9.5t-75.5 -23t-49 -34.5t-17.5 -43q0 -7 2.5 -15.5t7 -16t11 -12.5t14.5 -5q5 0 7.5 -0.5t2.5 -6.5q0 -8 -5 -15
t-12 -7q-11 0 -21 7t-17 18t-11 23.5t-4 23.5q0 71 99 111q35 14 74 22t91 13v17q0 9 0.5 11.5t3.5 4.5q6 5 17 10t18 5q8 0 8 -8q0 -6 -1.5 -11.5t-2.5 -11.5q-10 -72 -19 -143t-17 -143q-5 -44 -8 -87t-3 -88q0 -4 -0.5 -11t0.5 -14t3.5 -12t8.5 -5q22 0 83 103
q30 51 56 102.5t49 105.5q12 27 17 43t5 27q0 7 -2 21.5t-6 44.5q0 3 -1.5 9.5t-2.5 14t-2 14.5t-1 11t5 8t11.5 7t13 5t10.5 2q7 0 7 -9v-57q0 -34 1.5 -73.5t4.5 -80t8 -79.5t13 -71q3 -11 5.5 -24t7.5 -24.5t13 -20.5t21 -12q2 -1 6.5 -2.5t4.5 -4.5q0 -2 -3 -6.5t-7 -10
t-8.5 -9.5t-8.5 -4q-11 0 -23.5 10.5t-20.5 27.5q-13 26 -19 57.5t-10 60.5q-4 31 -6.5 62t-6.5 62z" />
    <glyph glyph-name="afii10027" unicode="&#x419;" horiz-adv-x="630" 
d="M539 606q-1 -2 -11 -15.5t-26.5 -29t-38 -28t-45.5 -12.5q-26 0 -39.5 10.5t-19.5 24.5t-7 28t-1 21q0 12 9 15.5t13 3.5q9 0 9.5 -6t0.5 -11q0 -29 7.5 -43t36.5 -14q12 0 24 5.5t23 14.5t20.5 20.5t16.5 23.5q6 11 11.5 11.5t9.5 0.5q7 0 8 -7t-1 -13zM613 14
q0 -11 -10.5 -17t-18.5 -6q-16 0 -26.5 13.5t-17.5 32.5t-10.5 38.5t-4.5 30.5q-2 15 -4.5 36t-4.5 43.5t-4 44t-3 37.5q-22 -54 -47.5 -104t-55.5 -101q-8 -14 -21 -33.5t-29 -38t-34 -31.5t-37 -13q-18 0 -25 12t-7 44q0 64 6 127q7 75 13 141.5t14 142.5q-52 -1 -96 -9.5
t-75.5 -23t-49 -34.5t-17.5 -43q0 -7 2.5 -15.5t7 -16t11 -12.5t14.5 -5q5 0 7.5 -0.5t2.5 -6.5q0 -8 -5 -15t-12 -7q-11 0 -21 7t-17 18t-11 23.5t-4 23.5q0 71 99 111q35 14 74 22t91 13v17q0 9 0.5 11.5t3.5 4.5q6 5 17 10t18 5q8 0 8 -8q0 -6 -1.5 -11.5t-2.5 -11.5
q-10 -71 -18.5 -134t-15.5 -135q-5 -44 -8 -87t-3 -88q0 -4 -0.5 -11t0.5 -14t3.5 -12t8.5 -5q25 0 86 103q30 50 53.5 94t46.5 97q12 27 17 43t5 27q0 7 -2 17t-6 40q-1 6 -4 19t-3 21q0 4 5 8t11.5 7t13 5t10.5 2q7 0 7 -9v-48q0 -48 2.5 -96.5t6 -90.5t7.5 -75t8 -51
q9 -39 18.5 -51t17.5 -12h5q11 0 11 -10z" />
    <glyph glyph-name="afii10028" unicode="&#x41a;" horiz-adv-x="463" 
d="M112 191q0 -32 2 -64t6 -64q3 -23 5.5 -38t7 -24.5t10 -15t14.5 -9.5q10 -3 10 -11q0 -7 -5.5 -16t-13.5 -9q-17 0 -32.5 24.5t-21.5 58.5q-4 19 -7 47t-5.5 59t-3.5 63.5t-1 62.5q0 9 0.5 39t1 63.5t2.5 62t5 35.5q4 8 17 13t21 5q6 0 6 -4q0 -1 -2 -11l-2 -10
q-6 -32 -9 -70.5t-5 -74.5q-1 -20 -1.5 -40.5t0.5 -36.5q52 42 97 96q30 36 52 66.5t43 65.5q2 5 9 17t12 14q2 1 8.5 2.5t13 2t12 -1t5.5 -5.5q0 -2 -4 -9q-23 -35 -46.5 -68.5t-49.5 -65.5q-26 -33 -56 -66.5t-59 -56.5q40 -44 82 -81.5t81.5 -64.5t74 -42.5t58.5 -15.5
q5 0 11 1t11 1q9 0 9 -9q0 -18 -38 -18q-21 0 -43.5 7t-43.5 17.5t-41 23.5t-37 26q-42 31 -81 67.5t-71 67.5l-8 -6v0z" />
    <glyph glyph-name="afii10029" unicode="&#x41b;" horiz-adv-x="556" 
d="M547 14q0 -8 -11.5 -14.5t-18.5 -6.5q-20 0 -39 29t-34 67.5t-25 75.5t-14 54q-8 32 -14.5 65t-12.5 64q-9 -39 -26.5 -83.5t-40.5 -89t-50.5 -85.5t-57 -72t-60 -50t-58.5 -19q-58 0 -92.5 35t-34.5 95q0 37 21 37q8 0 14.5 -8t6.5 -19q0 -5 -4 -8.5t-7 -5.5
q-5 -3 -5 -9q0 -37 25 -64.5t77 -27.5q26 0 55.5 21t58.5 56.5t56 81.5t49 96.5t37.5 102t21.5 96.5q-3 22 -5 35.5t-2 15.5q0 3 1.5 8.5t5.5 11t11 9.5t17 4q4 0 4 -7v-16q0 -14 2.5 -40t7.5 -61.5t13 -79t20 -91.5q6 -25 15.5 -59t21.5 -65t27 -52.5t33 -21.5h5q6 0 6 -5z
" />
    <glyph glyph-name="afii10030" unicode="&#x41c;" horiz-adv-x="889" 
d="M585 40q0 -2 1.5 -4t1.5 -4q0 -1 -2 -5q-2 -2 -5 -7t-7 -10t-7.5 -9t-4.5 -4q-4 0 -17 20.5t-29 52.5q-31 60 -55 122.5t-47 126.5q-12 -61 -30 -121t-46 -117q-21 -42 -47 -76t-55.5 -58.5t-61 -37.5t-61.5 -13q-35 0 -66 21t-54 59q-18 30 -18 49q0 27 30 27
q21 0 21 -14q0 -8 -7 -10q-5 -1 -9.5 -2.5t-4.5 -7.5q0 -8 10 -28q16 -32 44.5 -51t59.5 -19q25 0 52 13t53.5 36t49.5 55.5t41 70.5q10 22 22.5 58t24 75t19 75.5t7.5 60.5q0 15 -4 28t-14 33q-2 6 -3.5 8.5t-1.5 4.5q0 3 4.5 7.5t10.5 8t11.5 6.5t8.5 3q7 0 8 -9
q0 -1 1.5 -6t3.5 -10.5t3.5 -10.5t2.5 -7q14 -45 28.5 -89t31.5 -88t36 -86.5t44 -82.5q5 17 9.5 32t10.5 31t13.5 33t17.5 39q23 51 49 100.5t58 94.5q0 24 0.5 38t2.5 34q0 15 13 18q5 1 12 2.5t12 1.5q8 0 8 -7q0 -5 -1 -8q-9 -51 -9 -151q-1 -94 9.5 -158.5t32.5 -107.5
q12 -23 28 -36t33 -13q15 0 22.5 6t15.5 6q6 0 6 -7t-6.5 -12.5t-15 -9t-17.5 -5t-15 -1.5q-49 0 -80 56q-14 24 -24.5 59.5t-15.5 77.5q-2 13 -3.5 31.5t-2.5 38t-1.5 39.5t-0.5 37v22q-11 -14 -23 -34.5t-23 -42.5t-21 -43.5t-17 -38.5q-6 -15 -14.5 -35t-16 -41.5
t-13.5 -42.5t-7 -37z" />
    <glyph glyph-name="afii10031" unicode="&#x41d;" horiz-adv-x="537" 
d="M196 205q0 -12 -0.5 -24t-0.5 -24q0 -39 1.5 -67t4.5 -52q8 -63 34 -84q7 -6 7 -8q0 -4 -11 -12.5t-15 -8.5q-14 0 -26.5 19t-17.5 48q-8 44 -9 88.5t-1 89.5v27q-24 -5 -47.5 -13t-46.5 -16q-18 -7 -24.5 -9t-10.5 -2q-6 0 -13.5 8t-10.5 13q0 3 7 5t9 3q16 5 35 11
t38 11.5t36 10t29 6.5v8q0 12 0.5 29.5t1 37t2 40t3.5 39.5l5 56q2 13 2.5 17t3.5 8q1 2 6.5 5t12.5 5.5t13 4.5t8 2q5 0 5 -5q0 -2 -1.5 -7.5t-3 -12.5t-3.5 -14.5t-3 -12.5q-5 -21 -8.5 -47t-5.5 -53t-3.5 -52t-1.5 -42q37 8 77.5 12t85.5 4h10.5h6.5t7 -0.5t13 -0.5
q14 -1 19 -3.5t5 -7.5q0 -7 -7 -17.5t-14 -10.5q-2 0 -5.5 1t-4.5 2q-14 6 -34 8t-35 2q-64 0 -124 -15zM433 401q0 8 5 12q7 5 19.5 9.5t20.5 4.5q6 0 6 -5q0 -7 -3 -17.5t-5 -18.5q-5 -23 -7 -44.5t-4 -52.5q-2 -36 -3 -72.5t-1 -72.5q0 -35 1.5 -55t6.5 -32q3 -9 7 -13
t18 -13q6 -3 6 -7q0 -6 -9.5 -16t-15.5 -10q-5 0 -15 7q-11 8 -17.5 17.5t-10.5 24t-5.5 36t-1.5 54.5q0 26 1 52l2 52q1 40 1.5 80t3.5 80z" />
    <glyph glyph-name="afii10032" unicode="&#x41e;" horiz-adv-x="593" 
d="M192 338q-4 0 -4 4q0 6 17 15q32 15 71.5 23.5t81.5 8.5q48 0 88 -11t69 -30.5t45 -46t16 -58.5q0 -48 -28.5 -95t-83.5 -90q-107 -83 -228 -83q-45 0 -83 14.5t-65 40.5t-42.5 63.5t-15.5 83.5q0 57 26 112t74 100q44 42 98 66.5t101 24.5q34 0 54 -11t20 -29
q0 -10 -11.5 -18.5t-20.5 -8.5q-6 0 -10 5.5t-7 10.5q-8 13 -21.5 20t-28.5 7q-16 0 -35.5 -6.5t-39.5 -17.5t-40.5 -26t-37.5 -33q-39 -40 -60 -87t-21 -95q0 -41 14 -75.5t39 -60t59.5 -40t74.5 -14.5q53 0 101.5 21.5t88.5 54.5q86 71 86 161q0 61 -47.5 96.5
t-128.5 35.5q-38 0 -78 -7t-70 -19q-1 0 -7.5 -3t-9.5 -3z" />
    <glyph glyph-name="afii10033" unicode="&#x41f;" horiz-adv-x="556" 
d="M253 465q0 -15 -7 -69.5t-15 -164.5q-2 -24 -3.5 -55.5t-3.5 -63.5q8 19 23.5 53.5t35 74t42.5 79.5t46 72q26 36 44.5 45.5t32.5 9.5q22 0 28.5 -14.5t4.5 -43.5q-4 -80 -15 -182q-2 -14 -4 -32t-4.5 -36t-4 -34t-1.5 -25q0 -5 -0.5 -13.5t0.5 -16.5t3 -14.5t7 -6.5
q8 0 16 7q5 4 7 5t6 1q10 0 10 -9t-13.5 -20.5t-32.5 -11.5q-26 -1 -32 17t-6 47q0 32 5.5 71t10.5 76q5 45 9.5 89t6.5 76q2 28 -1.5 35t-10.5 7q-11 0 -31.5 -26t-44.5 -66t-49 -88t-45.5 -92.5t-33.5 -79.5t-13 -48v12q-1 -10 -1.5 -22.5t-1.5 -20.5q1 -1 -0.5 -8
t-1.5 -9q0 -1 -4.5 -2.5t-10.5 -3t-11.5 -1t-7.5 3.5q-1 1 -0.5 7.5t1 14t1.5 15.5t1 12q4 43 7.5 94.5t7.5 114.5q1 28 2.5 49.5t2.5 41.5t2 42t3 51q-28 -3 -59 -10.5t-57.5 -18t-43.5 -23.5t-17 -27q0 -10 5.5 -13t9.5 -5q8 -2 11.5 -4.5t3.5 -8.5q0 -16 -20 -16
q-15 0 -27.5 11t-12.5 29q0 21 24.5 39.5t58.5 33t69 25t56 15.5v5q0 11 2.5 15.5t9.5 8.5q8 4 14.5 4.5t11.5 0.5t5 -5z" />
    <glyph glyph-name="afii10034" unicode="&#x420;" horiz-adv-x="537" 
d="M288 187q-1 -8 -1 -13.5v-9.5q0 -54 6 -108q5 -44 24 -44q8 0 16 7q6 5 8 5.5t5 0.5q10 0 10 -9q0 -6 -5 -12t-12 -10t-15 -6.5t-13 -2.5q-20 0 -32 15t-18 48q-6 34 -6.5 74t-0.5 75q0 53 1.5 105t9.5 103q-62 -29 -118.5 -66t-110.5 -78q-6 -5 -15 -5q-12 0 -12 8
q0 6 10 15q27 21 57 42t62 41t64.5 37.5t62.5 30.5q20 9 45.5 16.5t52.5 13t53 9t48 3.5q45 0 70 -14.5t25 -41.5q0 -31 -23 -66t-56 -66.5t-70.5 -55.5t-65.5 -32q-13 -4 -23 -5.5t-33 -3.5zM289 214q20 2 28.5 3.5t18.5 3.5q19 5 42.5 17.5t44.5 28.5q12 10 29 26.5
t32.5 36t26 40t10.5 37.5q0 21 -14.5 30t-48.5 9q-14 0 -34 -2t-41 -5.5t-41 -8.5t-36 -10q-3 -15 -5 -26t-3.5 -22.5t-3 -26t-2.5 -35.5q-1 -17 -1.5 -29t-1 -22t-0.5 -20.5v-24.5z" />
    <glyph glyph-name="afii10035" unicode="&#x421;" horiz-adv-x="370" 
d="M332 127q5 7 11 7q9 0 9 -11t-24 -38q-39 -46 -86 -70.5t-95 -24.5q-50 0 -79.5 35.5t-29.5 95.5q0 31 8 64.5t22.5 67.5t35 67.5t46.5 63.5q42 48 81 72.5t71 24.5q17 0 26.5 -8.5t9.5 -22.5q0 -26 -16 -53.5t-51 -57.5q-4 -3 -14 -12.5t-17 -9.5q-4 0 -7.5 4t-3.5 9
q0 2 4 6.5t9 9t9.5 8.5t6.5 6q6 6 15 15.5t17 20t13.5 21.5t5.5 20q0 16 -16 16q-23 0 -55.5 -23.5t-64.5 -62.5q-19 -24 -37.5 -52t-32.5 -58t-23 -62t-9 -63q0 -51 25 -80.5t70 -29.5q35 0 73 21.5t69 56.5l24 27v0z" />
    <glyph glyph-name="afii10036" unicode="&#x422;" horiz-adv-x="892" 
d="M331 483q0 -2 -1 -8t-2 -13.5t-2.5 -14t-1.5 -9.5q-5 -48 -17 -117t-24 -173q40 77 71 123.5l51 76.5q25 37 41 58t26.5 30.5t18 11.5t16.5 2q6 0 9.5 -1t5.5 -2q-3 -14 -6.5 -29t-5.5 -29q-6 -31 -12.5 -97.5t-6.5 -171.5q0 -14 5 -25.5t14 -11.5q5 0 14 10.5t20 27.5
q18 30 41.5 76t45.5 90.5t38.5 79t19.5 42.5q18 45 34 62.5t42 17.5h4t2 -2q0 -3 -1.5 -22.5t-3.5 -43.5t-3.5 -46t-1.5 -31q0 -20 -0.5 -52.5t1.5 -70.5t7 -77t16 -70.5t29.5 -51.5t46.5 -20q7 0 16 3.5t16 3.5q6 0 6 -4q0 -8 -7 -13t-16 -9t-18.5 -5.5t-14.5 -1.5
q-29 0 -48.5 17.5t-32.5 45t-20.5 62.5t-11 69.5t-4 65t-0.5 50.5q0 35 1 70.5t3 74.5q-26 -59 -52.5 -114.5t-49 -99.5t-39 -74t-21.5 -39q-15 -25 -26 -39t-20 -20.5t-16 -7.5t-13 -1h-1q-17 0 -26 21.5t-9 80.5q0 36 1.5 68t4 63.5t6 64t7.5 70.5q-53 -75 -98 -150
t-83 -146q-11 -20 -19.5 -50t-8.5 -59q0 -8 5.5 -15t5.5 -11q0 -11 -9.5 -14t-14.5 -3q-11 0 -15.5 9t-4.5 19q1 18 3 34l2 28t2 22q3 34 9.5 85l13 102t12 94.5t7.5 63.5q-38 -1 -79.5 -7.5t-77 -19.5t-58.5 -33.5t-23 -49.5q0 -22 12 -35.5t23 -13.5q7 0 8.5 -0.5
t1.5 -5.5q0 -2 -3 -12.5t-14 -10.5q-7 0 -16 5t-17.5 14.5t-14 23t-5.5 29.5q0 22 8.5 39.5t22.5 31t31.5 23t36.5 17.5q44 17 87 24.5t78 10.5v18t2 12q3 5 16 11.5t21 6.5q2 0 5 -1.5t3 -6.5z" />
    <glyph glyph-name="afii10037" unicode="&#x423;" horiz-adv-x="537" 
d="M257 412q-32 -1 -74 -9.5t-74 -22.5q-26 -11 -40.5 -24t-14.5 -25q0 -14 19 -19q11 -3 11 -13q0 -15 -20 -15q-17 0 -28.5 12t-11.5 29q0 75 218 115l11 2l-2.5 7.5t-1.5 6.5q0 3 4.5 6t10.5 5.5t12 3.5t9 1q7 0 8 -7q1 -8 1 -23t1 -42q1 -102 6 -206q2 -35 4.5 -68.5
t4.5 -68.5q0 -4 1 -10.5t6 -6.5q4 0 12.5 12.5t17 28t16 30t9.5 19.5q19 40 35.5 80.5t29.5 82.5q-5 14 -10.5 27.5t-12.5 26.5q-4 6 -4.5 7.5t-0.5 3.5q0 3 5 6.5t11 6.5t12 5.5t8 2.5q5 0 8 -6.5t11 -34.5q8 -31 12.5 -53t7.5 -48q4 -32 6.5 -65t2.5 -66q0 -24 -2 -56.5
t-8.5 -67.5t-17.5 -69t-28 -60.5t-42 -43t-58 -16.5q-44 0 -82.5 25.5t-67.5 73.5q-9 15 -17 34.5t-15 41t-11 43t-4 38.5q0 21 31 21q9 0 9 -9q0 -8 -1.5 -16t-1.5 -16q0 -41 13.5 -79t36.5 -67.5t52 -47.5t61 -18q27 0 46.5 15t33.5 39t22 54t13 60t6.5 57t1.5 46
q0 38 -3.5 75t-12.5 74q-32 -90 -79 -172q-21 -37 -33.5 -50.5t-28.5 -13.5q-12 0 -18 11t-8.5 26t-2.5 30t-1 24q-7 80 -9 159.5t-10 160.5z" />
    <glyph glyph-name="afii10038" unicode="&#x424;" horiz-adv-x="537" 
d="M521 248q0 -32 -17.5 -66.5t-47.5 -65.5t-70.5 -55.5t-86.5 -37.5q5 -28 13.5 -43t23.5 -30q2 -2 2 -4q0 -1 -3 -4.5t-7.5 -7t-8.5 -6.5t-7 -3q-1 0 -5 0.5t-9 4.5t-11 13t-12 25q-4 12 -6.5 24t-4.5 24q-21 -3 -42 -3q-51 0 -86 15t-56.5 39t-31 52.5t-9.5 55.5
q0 32 8.5 64t25 60.5t40.5 51.5t56 38q19 8 26 9t12 -1t8 -7.5t3 -10.5q0 -2 -2.5 -4.5t-5.5 -2.5h-6.5t-5.5 -1q-7 -2 -18.5 -5.5t-30.5 -16.5q-32 -21 -53.5 -63.5t-21.5 -103.5q0 -69 42.5 -104.5t117.5 -35.5q7 0 13.5 0.5t14.5 1.5q-2 21 -2.5 46t-0.5 49.5v46.5v38
q0 25 1 56.5t4 73.5q-37 -8 -58 -21t-36 -25q-2 -2 -8.5 -7.5t-9.5 -5.5q-11 0 -9 11q0 4 8.5 13t24 20t38 21.5t52.5 16.5q1 15 2 31t3 33q1 11 3 15.5t9 8.5q8 4 18.5 8t15.5 4t5 -5q0 -8 -6 -29.5t-12 -59.5q6 1 12.5 1h13.5q36 0 70.5 -8.5t61.5 -25t43 -42.5t16 -60z
M482 247q0 21 -8 41.5t-26 36.5t-47.5 25.5t-72.5 9.5h-28q-4 -28 -6.5 -63t-2.5 -79q0 -60 1 -100t3 -67q34 9 67.5 27.5t60 44t43 57t16.5 67.5z" />
    <glyph glyph-name="afii10039" unicode="&#x425;" horiz-adv-x="481" 
d="M210 186q-32 -49 -55 -104t-43 -110q-17 -44 -25.5 -78.5t-14.5 -74.5q-1 -6 -1.5 -13t-3 -13t-7 -10t-12.5 -4q-17 0 -17 18q0 10 4 29.5t11.5 45t17 54t20.5 56.5q10 26 23 56.5t27 60.5t29 58.5t30 51.5q-19 27 -34 50.5t-28.5 45t-27.5 42t-30 41.5q-2 2 -6.5 8
t-4.5 8t5 6t11.5 7.5t13 6t8.5 2.5q4 0 8 -7q27 -44 53.5 -87.5t54.5 -87.5q29 44 61.5 85.5t73.5 75.5q66 57 124 57q52 0 52 -53q0 -23 -10 -23q-5 0 -7.5 5.5t-4.5 8.5q-9 19 -19.5 26.5t-24.5 7.5q-41 0 -96 -49q-39 -35 -72 -78t-62 -87q22 -32 46 -62t52 -57
q14 -14 24.5 -24t21 -18t22.5 -16t29 -18q10 -6 13 -8.5t3 -7.5q0 -11 -14 -11q-17 0 -42.5 14.5t-55 40t-61 60t-59.5 73.5z" />
    <glyph glyph-name="afii10040" unicode="&#x426;" horiz-adv-x="691" 
d="M677 96q0 -25 -7 -55.5t-20 -62.5q-13 -30 -30 -60.5t-34 -55t-33 -40t-27 -15.5q-6 0 -14 9.5t-8 15.5q0 8 9 11.5t17 8.5q29 22 56 63.5t44 94.5q-5 -8 -15.5 -12.5t-21.5 -4.5q-17 0 -26.5 8.5t-20.5 34.5q-8 19 -14 47.5t-10.5 60t-7.5 64t-5 59.5q-6 -14 -20 -47
t-34 -73.5t-44.5 -84t-49.5 -78.5q-26 -36 -44.5 -45.5t-32.5 -9.5q-22 0 -27.5 14.5t-5.5 43.5q0 40 2.5 80.5t7.5 90.5q1 15 4.5 51.5t8 77t8 76.5t4.5 50q-38 -1 -79.5 -7.5t-77 -19.5t-58.5 -33.5t-23 -49.5q0 -22 12 -35.5t23 -13.5q7 0 8.5 -0.5t1.5 -5.5
q0 -2 -3 -12.5t-14 -10.5q-7 0 -16 5t-17.5 14.5t-14 23t-5.5 29.5q0 22 8.5 39.5t22.5 31t31.5 23t36.5 17.5q44 17 87 24.5t78 10.5v18t2 12q3 5 16 11.5t21 6.5q2 0 5 -1.5t3 -6.5q0 -2 -1 -8t-2 -13.5t-2.5 -14t-1.5 -9.5q-9 -63 -17 -125t-14 -119t-9.5 -107t-3.5 -88
q0 -28 2.5 -35t9.5 -7q11 0 31 24.5t43 62.5t47.5 83.5t44 88t32 76t12.5 46.5q0 7 -2.5 25.5t-5 38.5t-5 35.5l-2.5 15.5q0 4 5.5 8t12 7t13 5t9.5 2q5 0 6 -9.5t2 -47.5q0 -8 0.5 -30t2 -52.5t4 -66.5t6 -71.5t9 -68.5t12.5 -57q5 -16 12.5 -32t18.5 -16q20 0 29 18t9 36
q2 7 11 15.5t16 8.5q2 0 5.5 -2t3.5 -4z" />
    <glyph glyph-name="afii10041" unicode="&#x427;" horiz-adv-x="574" 
d="M462 463q0 4 6.5 8t14 7t14.5 5t10 2q5 0 3.5 -9.5t-10.5 -46.5q-2 -11 -10.5 -48.5t-16.5 -81.5q12 5 32 12.5t32 7.5q7 0 7 -8q0 -4 -4 -11.5t-10 -14.5t-12.5 -12.5t-11.5 -5.5q-24 0 -40 -6q-6 -32 -10.5 -64t-7 -61t-2.5 -53t5 -39q3 -11 12 -15t11 -5q7 -3 8.5 -4
t1.5 -3q0 -1 -4 -6t-9 -10t-11.5 -9.5t-11.5 -4.5q-1 0 -6 1t-10.5 5.5t-11 14.5t-8.5 29q-3 17 -2 42t4.5 53t8 57.5t9.5 55.5q-28 -14 -56 -28.5t-56 -28.5q-22 -11 -32 -15.5t-22 -4.5q-20 0 -30.5 16t-10.5 54q0 42 7 89t12 85q-27 0 -61.5 -7t-65 -18t-51.5 -25.5
t-21 -30.5q0 -10 5.5 -13t9.5 -5q8 -2 11.5 -4.5t3.5 -8.5q0 -16 -20 -16q-15 0 -27.5 11t-12.5 29q0 26 22 45.5t55.5 33t74 23t77.5 16.5q-1 2 0.5 7t1.5 7q0 4 5 7t11.5 5t12 3t7.5 1q5 0 6.5 -3t1.5 -17q0 -4 -5 -26.5t-11 -55.5t-11 -70.5t-5 -71.5q0 -11 2.5 -19
t15.5 -8q2 0 13.5 5.5t28 14t35.5 18t36.5 18.5t30.5 16t17 9q2 12 6 37.5t8 54t7.5 53.5t3.5 36z" />
    <glyph glyph-name="afii10042" unicode="&#x428;" horiz-adv-x="887" 
d="M503 325q2 19 2.5 34t2.5 31q1 13 -0.5 22.5t-1.5 26.5q0 3 0.5 6t6.5 8q8 6 28 13q8 2 10 -3.5t2 -11.5t-2 -20.5t-3 -21.5q-1 -9 -4 -33.5t-6 -58.5t-6.5 -73.5t-6 -78.5t-4.5 -75t-2 -61q0 -28 2.5 -35t9.5 -7q11 0 30.5 22.5t42 57t46 76t42.5 80.5t31 70.5t12 44.5
q0 7 -1.5 25.5t-3.5 38.5t-3.5 35.5l-1.5 15.5q0 4 5.5 8t12 7t13 5t9.5 2q5 0 6 -9.5t2 -47.5v-35t0.5 -61t2 -76t5.5 -79.5t10.5 -71t16.5 -51.5q6 -11 16 -15t12 -5q8 -3 9.5 -4t1.5 -3q0 -1 -2.5 -6t-6 -10t-8.5 -9.5t-10 -4.5q-1 0 -6 1t-12 5.5t-15.5 14.5t-15.5 28
q-8 20 -13 48.5t-8.5 60t-6 63.5t-4.5 59q-6 -14 -19 -42t-32 -63.5t-42.5 -74t-48.5 -73.5q-26 -36 -44.5 -45.5t-32.5 -9.5q-22 0 -27.5 14.5t-5.5 43.5v35v30.5t1 33t3 42.5q1 13 2.5 33.5t3.5 46.5q-10 -21 -24.5 -51.5t-32.5 -64t-38 -67.5t-41 -63
q-26 -36 -44.5 -45.5t-32.5 -9.5q-22 0 -27.5 14.5t-5.5 43.5q0 40 2.5 76.5t7.5 86.5q1 15 4.5 51.5t8 77t8 76.5t4.5 50q-38 -1 -79.5 -7.5t-77 -19.5t-58.5 -33.5t-23 -49.5q0 -22 12 -35.5t23 -13.5q7 0 8.5 -0.5t1.5 -5.5q0 -2 -3 -12.5t-14 -10.5q-7 0 -16 5
t-17.5 14.5t-14 23t-5.5 29.5q0 22 8.5 39.5t22.5 31t31.5 23t36.5 17.5q44 17 87 24.5t78 10.5v18t2 12q3 5 16 11.5t21 6.5q2 0 5 -1.5t3 -6.5q0 -2 -1 -8t-2 -13.5t-2.5 -14t-1.5 -9.5q-9 -63 -17 -123.5t-14 -116t-9.5 -104.5t-3.5 -87q0 -28 2.5 -35t9.5 -7q10 0 29 23
t41.5 58t46 78t43.5 83t33 72t15 46z" />
    <glyph glyph-name="afii10043" unicode="&#x429;" horiz-adv-x="890" 
d="M876 87q0 -30 -8.5 -62t-23 -63t-33.5 -59.5t-40 -52.5q-32 -38 -62 -58.5t-40 -20.5q-6 0 -15.5 7.5t-9.5 11.5q0 8 10.5 12.5t18.5 9.5q44 23 88 73t71 124q-5 -8 -16.5 -12.5t-22.5 -4.5q-17 0 -26.5 8.5t-20.5 34.5q-8 20 -13 48.5t-8.5 60.5t-6 64t-4.5 59
q-6 -14 -19 -42t-32 -63.5t-42.5 -74t-48.5 -73.5q-26 -36 -44.5 -45.5t-32.5 -9.5q-22 0 -27.5 14.5t-5.5 43.5v35v30.5t1 33t3 42.5q1 13 2.5 33.5t3.5 46.5q-10 -21 -24.5 -51.5t-32.5 -64t-38 -67.5t-41 -63q-26 -36 -44.5 -45.5t-32.5 -9.5q-22 0 -27.5 14.5t-5.5 43.5
q0 40 2.5 76.5t7.5 86.5q1 15 4.5 51.5t8 77t8 76.5t4.5 50q-38 -1 -75.5 -6t-68 -17t-49.5 -31.5t-19 -48.5q0 -22 12 -35.5t23 -13.5q7 0 8.5 -0.5t1.5 -5.5q0 -2 -3 -12.5t-14 -10.5q-7 0 -16 5t-17.5 14.5t-14 23t-5.5 29.5q0 44 27.5 68.5t65.5 39.5q44 17 77 22.5
t68 8.5v18t2 12q3 5 16 11.5t21 6.5q2 0 5 -1.5t3 -6.5q0 -2 -1 -8t-2 -13.5t-2.5 -14t-1.5 -9.5q-9 -63 -17 -123.5t-14 -116t-9.5 -104.5t-3.5 -87q0 -28 2.5 -35t9.5 -7q10 0 29 23t41.5 58t46 78t43.5 83t33 72t15 46q1 9 2 14t1.5 8t0.5 7v12q0 13 -1 26.5t-1 22.5
q0 3 0.5 6t6.5 8q8 6 28 13q8 2 10 -3.5t2 -11.5t-2 -20.5t-3 -21.5q-2 -14 -6.5 -56.5t-9.5 -96.5t-8.5 -109.5t-3.5 -93.5q0 -28 2.5 -35t9.5 -7q11 0 30.5 22.5t42 57t46 76t42.5 80.5t31 70.5t12 44.5q0 7 -1.5 27.5t-3.5 43t-3.5 40.5l-1.5 18q0 4 5.5 8t12 7t13 5
t9.5 2q5 0 5.5 -9.5t1.5 -47.5q0 -8 -0.5 -30t0 -53t1.5 -68t4 -74.5t7.5 -72.5t12.5 -63q5 -16 12.5 -32t18.5 -16q20 0 28.5 14t8.5 32q2 7 11 15.5t16 8.5q2 0 5.5 -2t3.5 -4z" />
    <glyph glyph-name="afii10044" unicode="&#x42a;" horiz-adv-x="416" 
d="M404 270q0 -21 -12 -49.5t-31.5 -59.5t-45 -61t-52 -54t-52 -39t-46.5 -15q-10 0 -22.5 4.5t-23 16.5t-17.5 32.5t-7 52.5q0 24 4 55t13 71q6 26 18.5 59.5t26.5 67.5t29 64t27 50q-16 2 -31.5 2.5t-22.5 0.5q-9 0 -25.5 -0.5t-36 -3.5t-38.5 -9.5t-34 -18.5
q-12 -10 -21 -25.5t-9 -32.5q0 -13 7 -24q7 -14 7 -17q0 -4 -3.5 -6t-16.5 -2q-30 0 -30 42q0 30 14.5 52t35.5 36q22 15 56 24t90 9q18 0 41 -1.5t44 -4t35.5 -6t14.5 -7.5q0 -3 -3.5 -6.5t-8 -7.5t-9 -6.5t-5.5 -2.5t-7.5 2.5t-11.5 4.5q-22 -39 -42.5 -82t-36 -88
t-25 -91.5t-9.5 -91.5q0 -14 1 -28t5 -25.5t11.5 -18.5t20.5 -7q17 0 38 12.5t42.5 32.5t42 45t36.5 51t25.5 49t9.5 40q0 16 -5.5 23.5t-22.5 7.5t-41 -11.5t-48 -32.5q-18 -16 -36 -36q-5 -5 -5 -7t-2 -8q-6 -20 -27 -20q-15 0 -15 11q0 4 6 12.5t14 17.5t16 17l11 11
q36 36 72.5 56.5t65.5 20.5q57 0 57 -47z" />
    <glyph glyph-name="afii10045" unicode="&#x42b;" horiz-adv-x="593" 
d="M384 257q0 -21 -12 -48.5t-32 -57t-45.5 -58t-52.5 -51t-53 -36.5t-47 -14q-10 0 -22.5 4.5t-23 16.5t-18 32.5t-7.5 52.5q0 24 4 55t14 71q7 28 19 68t24 77.5t22 65t13 30.5q2 3 7.5 6.5t13 6.5t15 5t13.5 2q9 0 9 -6q0 -1 -4.5 -8.5t-9.5 -17t-10 -18t-6 -11.5
q-16 -32 -31.5 -72t-27.5 -82.5t-19 -85.5t-7 -80q0 -14 1 -28t5 -25.5t11.5 -18.5t20.5 -7t32.5 10.5t41.5 28.5t43.5 40.5t39 47t28.5 48t11 42.5q0 16 -5 22.5t-22 6.5q-37 0 -73 -11q-11 -6 -16 -3q-4 2 -8 7.5t-2 10.5q6 4 16.5 10.5t22.5 14.5t24.5 17t22.5 18
q18 15 37 32.5t35.5 35t30.5 33.5t23 30v30q0 15 13 18q5 1 12 2.5t12 1.5q8 0 8 -7q0 -5 -1 -8q-5 -26 -7 -74t-2 -97q-1 -94 9.5 -158.5t32.5 -107.5q12 -23 28 -36t33 -13q7 0 13 2t16 7q7 3 9 3q6 0 6 -7t-8 -13q-18 -15 -46 -15q-32 0 -53.5 21.5t-35 51.5t-21 63
t-10.5 57q-6 49 -7.5 109.5t-0.5 118.5q-23 -24 -57 -55t-68 -57q6 1 11.5 1h10.5q57 0 57 -47z" />
    <glyph glyph-name="afii10046" unicode="&#x42c;" horiz-adv-x="371" 
d="M315 242q0 16 -5 22.5t-22 6.5q-42 0 -79.5 -13.5t-66 -36.5t-45 -53.5t-16.5 -63.5q0 -14 1 -28t5 -25.5t11.5 -18.5t20.5 -7t32.5 10.5t41.5 28.5t43.5 40.5t39 47t28.5 48t11 42.5zM113 -8q-10 0 -22.5 4.5t-23 16.5t-18 32.5t-7.5 52.5q0 24 4 55t14 71q7 28 19 68
t24 77.5t22 65t13 30.5q2 3 7.5 6.5t13 6.5t15 5t13.5 2q9 0 9 -6q0 -1 -4.5 -8.5t-9.5 -17t-10 -18t-6 -11.5q-17 -34 -28 -62t-19 -53.5t-13.5 -49.5t-12.5 -51q22 21 48.5 39t53.5 30.5t53.5 19.5t49.5 7q57 0 57 -47q0 -21 -12 -48.5t-32 -57t-45.5 -58t-52.5 -51
t-53 -36.5t-47 -14z" />
    <glyph glyph-name="afii10047" unicode="&#x42d;" horiz-adv-x="451" 
d="M374 256q11 26 17 50t6 43q0 42 -18.5 66t-75.5 24q-26 0 -56.5 -9t-60 -22.5t-55 -28.5t-41.5 -26q-8 -5 -17 -11t-13 -6q-9 0 -9 7q0 10 24 30.5t62.5 41t85.5 36t92 15.5q62 0 91 -29.5t29 -75.5q0 -24 -7.5 -55.5t-24 -67.5t-43 -74.5t-64.5 -75.5q-26 -25 -57 -45
t-60 -34.5t-54 -22t-38 -7.5q-20 0 -37 7t-17 17q0 4 4 8.5t9 8t10 5.5t7 2q3 0 5 -1t9 -8q5 -5 12 -6.5t11 -1.5q13 0 34 6.5t46 19.5t51.5 32.5t51.5 44.5q23 23 43.5 54.5t37.5 65.5q-5 0 -13 0.5t-17 1t-16.5 0.5h-10.5q-35 0 -78 -8t-77 -15q-2 0 -7.5 -1.5t-11.5 -3
t-12 -2.5t-7 -1q-15 0 -15 15q0 3 2 5t8.5 3.5t18.5 4t32 7.5q27 6 64.5 13t72.5 7h16.5t21.5 -0.5t21.5 -1t17.5 -1.5z" />
    <glyph glyph-name="afii10048" unicode="&#x42e;" horiz-adv-x="717" 
d="M703 315q0 -57 -21 -116t-58 -107t-87.5 -78.5t-109.5 -30.5q-44 0 -76 18.5t-52 49t-30 70.5t-10 82q0 26 8 55q-24 -16 -47.5 -29t-47.5 -24v-53.5t2 -64t6 -61.5t12 -46q5 -10 10 -16.5t13 -13.5q2 -2 2 -4t-3.5 -5t-8 -7t-8.5 -6.5t-6 -2.5q-20 0 -31 26t-16 60.5
t-5.5 68t-0.5 48.5v64q-37 -15 -81 -28q-9 -3 -19 -5.5t-20 -2.5q-5 0 -8 5.5t-3 9.5q0 2 7.5 5.5t17 6.5t18.5 5.5t11 3.5q20 7 39.5 13.5t37.5 14.5q1 56 3.5 111t8.5 110q1 9 2.5 14t10.5 10q5 3 16.5 7.5t16.5 4.5t5 -5t-2 -16t-5 -24t-6 -25t-4 -19q-6 -38 -8.5 -77
t-3.5 -78q27 12 53.5 26.5t52.5 32.5q5 12 9.5 23t9.5 21q11 22 23.5 37t23.5 15q5 0 9.5 -8t4.5 -17q0 -6 -4 -10.5t-9 -8.5t-10 -7.5t-7 -7.5q-32 -57 -32 -125q0 -43 7 -79t24 -62.5t44 -41t68 -14.5q46 0 87 28t71.5 70.5t48 93t17.5 97.5q0 30 -5 55t-17.5 44
t-33.5 29.5t-52 10.5q-56 0 -101.5 -32t-80.5 -80q-2 -4 -9.5 -14t-10.5 -10q-4 0 -4 3q0 5 1.5 10.5t3.5 9.5q17 28 39 53t47.5 43.5t55 29t62.5 10.5q67 0 106 -37.5t39 -105.5z" />
    <glyph glyph-name="afii10049" unicode="&#x42f;" horiz-adv-x="500" 
d="M315 266q9 29 13 51t4 35q0 7 -1 25.5t-6 37.5t-16 33.5t-30 14.5q-21 0 -49.5 -19t-55 -48.5t-44.5 -65.5t-18 -70q0 -21 13.5 -34.5t27.5 -13.5q32 0 74.5 13t87.5 41zM385 318q0 6 0.5 9.5t0.5 5.5q1 4 6 8.5t11.5 8.5t13 6.5t10.5 2.5q1 0 3 -0.5t2 -4.5
q0 -8 -4 -20.5t-9 -45.5q-5 -38 -5.5 -78t-0.5 -86q0 -34 2 -53t6 -30t11 -16.5t16 -11.5q6 -4 6 -7q0 -7 -9.5 -16.5t-14.5 -9.5q-7 0 -16 7q-11 8 -18 18t-10.5 25t-5 36t-1.5 51q0 6 0.5 24t1 42.5t1.5 51t2 49.5q-8 -7 -16.5 -13t-17.5 -13q-18 -58 -51.5 -114.5
t-70.5 -104t-71.5 -82.5t-55.5 -49q-18 -12 -29 -16t-20 -4q-16 0 -16 13q0 7 6 11t11 7q51 33 91 72t70 79.5t51.5 81t35.5 75.5q-34 -19 -71.5 -31t-75.5 -12q-34 0 -55.5 20t-21.5 54q0 21 9.5 46.5t26 51.5t38 50.5t45 43.5t47 30.5t44.5 11.5q26 0 41.5 -13t24 -33.5
t11 -44.5t2.5 -45q0 -29 -6 -59q6 5 12.5 10.5t12.5 10.5z" />
    <glyph glyph-name="afii10065" unicode="&#x430;" 
d="M186 253q-2 6 -4.5 18t-2.5 16q0 8 11 13.5t17 5.5q12 0 12 -14q0 -45 4.5 -85.5t14.5 -88.5q9 -45 18 -67t20 -30q3 -2 7 -4q2 -2 4.5 -4t2.5 -4q0 -5 -5 -9t-10 -4q-12 0 -24 9.5t-18 23.5q-11 23 -20 61.5t-15 82.5q-11 -18 -25 -39.5t-30 -41.5q-6 -8 -18 -23.5
t-26 -31t-28.5 -27t-25.5 -11.5t-18.5 7t-7.5 17q0 14 7.5 37t20.5 48.5t29.5 51.5t34.5 47.5t35.5 34.5t32.5 13q4 0 7 -2zM188 212q0 14 -14 14t-35.5 -24t-41.5 -56t-34.5 -63.5t-14.5 -45.5q0 -6 4 -6q7 0 21.5 15t29.5 34t28 37.5t17 24.5q2 3 8.5 12t13.5 20
t12.5 21.5t5.5 16.5z" />
    <glyph glyph-name="afii10066" unicode="&#x431;" horiz-adv-x="249" 
d="M102 402q0 -12 13 -30t22 -31q17 -24 32 -45.5t26 -43.5t17.5 -46.5t6.5 -55.5q0 -27 -14.5 -55t-36.5 -50t-47.5 -36t-46.5 -14q-26 0 -39 17t-13 47q0 26 12 61.5t30 68.5t39 58.5t39 32.5l-31 45q-4 5 -12.5 16.5t-17 23.5t-15 23.5t-6.5 16.5q0 6 4.5 11.5t11.5 9.5
t13.5 6.5t11.5 4.5q7 2 26.5 7t41 10.5t40.5 9.5t27 4q16 0 27 -3t11 -20q0 -4 -3.5 -10.5t-8.5 -12.5t-10.5 -10.5t-8.5 -4.5q-5 0 -6.5 4t-2.5 8q-2 9 -7 11.5t-26 -0.5q-17 -2 -34.5 -5.5t-32 -7.5t-23.5 -8t-9 -7zM190 148q0 11 -2.5 28.5t-7.5 34t-12.5 28t-18.5 11.5
q-12 0 -29 -21.5t-32.5 -51.5t-26 -62t-10.5 -53q0 -17 8 -27.5t23 -10.5q20 0 39.5 12.5t34.5 31.5t24.5 40.5t9.5 39.5z" />
    <glyph glyph-name="afii10067" unicode="&#x432;" 
d="M97 220q20 17 42 44t35 50q17 30 26 59t9 50q0 8 -11 8q-25 0 -43 -23.5t-30.5 -57t-19 -69.5t-8.5 -61zM122 212q-13 -9 -25 -25q1 -25 2.5 -52t5.5 -50q5 -23 13.5 -43t23.5 -20q14 0 30.5 21t31 51t24 62t9.5 54q0 17 -6.5 27.5t-22.5 10.5q-17 0 -39 -8t-47 -28z
M270 215q0 -28 -14 -66.5t-34.5 -73.5t-43 -59.5t-40.5 -24.5q-9 0 -20 6.5t-21.5 24.5t-18 50.5t-10.5 84.5l-38 -33q-2 -2 -5 -2q-9 0 -12 6t-3 13v5q0 1 1 2q12 12 27 24t29 23v9q0 32 9 75.5t27 83t44 67t59 27.5q20 0 27 -12t7 -20q0 -26 -18.5 -69t-51.5 -88
q12 5 24 7.5t23 2.5q26 0 39.5 -17t13.5 -46z" />
    <glyph glyph-name="afii10068" unicode="&#x433;" horiz-adv-x="241" 
d="M226 73q0 -6 -5.5 -12.5t-14.5 -14.5q-35 -32 -68 -42t-60 -10q-24 0 -34.5 13t-10.5 25q0 8 2 16t8 20t16.5 29t27.5 42q4 7 15 22.5t21.5 32.5t19 31.5t8.5 19.5t-4 6t-6 1q-5 0 -14.5 -2.5t-19.5 -8t-19 -13t-15 -17.5q-8 -14 -10 -17t-7 -3q-4 0 -13.5 5t-9.5 13
q0 10 10.5 22t28 22t39 16.5t42.5 6.5q19 0 26.5 -7t7.5 -18q0 -9 -3.5 -18t-11.5 -23.5t-22.5 -35.5t-36.5 -52q-5 -7 -13 -18.5t-16 -23.5t-13.5 -23t-5.5 -17q0 -8 7 -14t21 -6q12 0 26.5 5t28.5 12t26.5 15t20.5 14q5 4 12 9.5t12 5.5q7 0 7 -8z" />
    <glyph glyph-name="afii10069" unicode="&#x434;" 
d="M209 151q-11 -23 -33.5 -50.5t-48.5 -51t-50 -39.5t-36 -16q-6 0 -13.5 4.5t-7.5 15.5q0 18 8.5 44.5t22 55t30 56.5t33 49t30.5 32.5t23 7.5q-5 10 -6 12.5t-1 5.5q0 8 11.5 13.5t18.5 5.5q4 0 7 -1.5t5.5 -6t6 -13.5t8.5 -24q16 -47 25.5 -91t15 -81t7 -63.5t1.5 -39.5
q0 -53 -10.5 -92.5t-27.5 -65t-40.5 -38t-48.5 -12.5q-30 0 -55.5 14t-43.5 32t-28 34.5t-10 20.5q0 5 3.5 8.5t7.5 3.5q5 0 8.5 -4.5l17.5 -22.5q29 -38 52.5 -50t46.5 -12q31 0 49.5 17.5t29 42.5t14 53.5t3.5 50.5q0 36 -3.5 69.5t-7.5 59.5t-8.5 43.5t-5.5 22.5z
M194 198q0 1 -1.5 7t-4 12.5t-6 11.5t-7.5 5q-9 0 -21.5 -12t-26 -31t-26.5 -42t-23.5 -44.5t-17 -40t-6.5 -27.5q0 -6 4 -6q7 0 29 18.5t46 45t42.5 55t18.5 48.5z" />
    <glyph glyph-name="afii10070" unicode="&#x435;" horiz-adv-x="222" 
d="M67 96q0 -11 1 -24t5.5 -24.5t13.5 -19t24 -7.5q23 0 46 16t40 29q19 15 24 15q7 0 7 -8q0 -5 -4.5 -11t-15.5 -16q-31 -27 -55.5 -39.5t-48.5 -12.5q-34 0 -52 25t-18 70q0 39 8 74t22 61.5t32.5 42t38.5 15.5q33 0 33 -35q0 -18 -8 -38.5t-21.5 -41t-32 -39
t-39.5 -32.5zM67 129q11 7 16 12t13 14q20 23 31.5 46t11.5 37q0 16 -12 16t-22 -16.5t-18.5 -37.5t-13.5 -41.5t-6 -29.5z" />
    <glyph glyph-name="afii10072" unicode="&#x436;" horiz-adv-x="398" 
d="M410 83q0 -5 -5 -11.5t-8 -10.5q-16 -17 -36 -32.5t-46 -15.5q-20 0 -32.5 10t-20 25.5t-10.5 33.5t-3 34q-8 -14 -13.5 -24.5t-7.5 -14.5q-12 -20 -20 -24.5t-15 -4.5q-14 0 -16.5 11t-2.5 35q0 29 1.5 47t3.5 33q-8 -11 -22 -31.5t-30 -44t-31 -45.5t-24 -35
q-4 -6 -13 -17.5t-19.5 -22.5t-22.5 -19.5t-22 -8.5q-4 0 -8 2.5t-4 7.5q0 3 2.5 7t10.5 9q15 8 30.5 26.5t28.5 41t23 45.5t15 40q8 25 11 50.5t3 49.5q0 11 -10 11t-18.5 -9t-12.5 -17q-7 -14 -10.5 -17.5t-10.5 -3.5q-4 0 -8 1.5t-4 6.5t6 17t16.5 24t25 21.5t30.5 9.5
q15 0 21.5 -10.5t6.5 -23.5q0 -23 -4.5 -51t-12.5 -56q13 18 23.5 33.5t16.5 23.5q15 20 21.5 26.5t16.5 6.5q2 0 7 -0.5t5 -5.5t-1.5 -12t-2.5 -12q-2 -12 -5.5 -36t-3.5 -66q0 -9 2 -9q3 0 11 13t17 31t17.5 37t12.5 31q4 11 10.5 23t14 22t16.5 16.5t19 6.5q3 0 7.5 -1.5
t4.5 -6.5q0 -8 -6 -12t-12 -7q-14 -8 -24.5 -35.5t-10.5 -67.5q0 -11 1.5 -26.5t6 -30t12 -25t20.5 -10.5q20 0 38 16.5t32 29.5q4 3 7.5 6t6.5 3q5 0 6.5 -4t1.5 -7z" />
    <glyph glyph-name="afii10073" unicode="&#x437;" 
d="M154 -8q-35 0 -60 12.5t-42 29t-25 33.5t-8 26q0 8 6 15t15 6q11 0 11 -10l-2 -10q0 -2 5.5 -14t18 -25.5t32 -25t47.5 -11.5q37 0 60 15.5t23 39.5q0 15 -8 27t-21 21t-29 13.5t-32 4.5q-8 0 -17 -1.5t-16 -3.5q-3 -1 -10 -3.5t-10 -2.5q-5 0 -10 7.5t-5 12.5
q0 4 3.5 6.5t14.5 4.5q14 3 33 12t36 19.5t29 21.5t12 19q0 9 -19 9q-18 0 -35.5 -7t-31 -15t-23 -16t-10.5 -9q-4 -4 -10 -9.5t-11 -5.5t-10 4.5t-5 9.5q0 4 12 16.5t32 25.5t44.5 23t50.5 10q24 0 37 -10t13 -25q0 -11 -8 -21.5t-19.5 -19.5t-24 -16t-21.5 -12
q21 -3 39.5 -10.5t32.5 -19.5t22 -27t8 -33q0 -21 -10.5 -36.5t-27 -25t-36.5 -14.5t-40 -5z" />
    <glyph glyph-name="afii10074" unicode="&#x438;" 
d="M202 116q-23 -30 -44 -54.5t-50 -50.5q-13 -11 -20 -15t-15 -4q-18 0 -23 13.5t-5 27.5q0 10 0.5 26t1.5 35t2 38.5t2 36.5q0 3 0.5 11.5t1 17.5t1 16.5t1.5 9.5q2 8 13 14t19 6q12 0 12 -9q0 -1 -2 -7q-2 -7 -4 -15.5t-4 -22.5q-12 -74 -12 -148q0 -15 8 -15
q3 0 8.5 4.5t11.5 10.5t11 11.5t7 7.5q13 13 27 29.5t26 33.5q8 11 14 21t6 24v14.5t-1 19.5q-1 10 -2 23t-1 18q0 9 12.5 16.5t20.5 7.5q9 0 9 -11v-4.5t-1 -5.5q-2 -11 -3 -30t-1 -36q0 -29 2 -55.5t5.5 -46.5t8 -32t9.5 -12q2 0 4 1t4 1q8 0 8 -8q0 -7 -9.5 -15t-16.5 -8
q-11 0 -19.5 9.5t-11.5 26.5q-3 13 -6 32.5t-5 41.5z" />
    <glyph glyph-name="afii10075" unicode="&#x439;" 
d="M254 399q0 -5 -5 -12.5t-12 -15t-13.5 -13.5t-10.5 -9q-14 -11 -31 -20.5t-37 -9.5q-32 0 -46.5 20.5t-14.5 48.5q0 11 4.5 17.5t15.5 6.5q8 0 9 -5t1 -11q0 -26 6 -38t23 -12q28 0 47.5 15.5t27.5 28.5q5 8 11 15.5t16 7.5q5 0 7 -4.5t2 -9.5zM272 12q0 -7 -9.5 -15
t-16.5 -8q-11 0 -19.5 9.5t-11.5 26.5q-3 13 -7 41t-6 50q-23 -29 -45 -55t-49 -50q-13 -11 -20 -15t-15 -4q-18 0 -23 13.5t-5 27.5q0 10 0.5 26t1.5 35t2 38.5t2 36.5q0 3 1 14t2 23t2 22t2 12q2 8 13 14t19 6q12 0 12 -9q0 -1 -2 -7q-2 -7 -5.5 -23.5t-5.5 -30.5
q-12 -74 -12 -148q0 -15 8 -15q3 0 8.5 4.5t11.5 10.5t11 11.5t7 7.5q13 13 27 29.5t26 33.5q8 11 14 21t6 24v11t-1 16q-1 10 -2.5 16.5t-1.5 16.5q0 9 12.5 16.5t20.5 7.5q9 0 9 -11v-4.5t-1 -5.5q-2 -11 -2.5 -26t-0.5 -32q0 -29 2 -57t6 -50t9 -35.5t10 -13.5q2 0 4 1
t4 1q8 0 8 -8z" />
    <glyph glyph-name="afii10076" unicode="&#x43a;" horiz-adv-x="278" 
d="M104 99q-8 -8 -15.5 -16.5t-12.5 -15.5q-2 -14 1 -26t7 -18q2 -2 8.5 -8t6.5 -8q0 -3 -5 -9.5t-15 -6.5q-7 0 -11.5 4t-7.5 9t-4.5 10t-2.5 8q-5 21 -6 49.5t-1 48.5q0 47 1.5 77.5t1.5 41.5q0 13 1.5 17.5t12.5 9.5q4 2 8 4.5t9 2.5q7 0 7 -7q-6 -38 -9.5 -80t-4.5 -84
q36 39 57.5 72.5t36.5 62.5q4 8 15 11t18 3q5 0 7 -3t2 -5q0 -3 -12 -20.5t-27 -37.5t-29 -38t-18 -24q26 -20 58.5 -43t83.5 -53q7 -4 15 -9t8 -6q0 -2 -7 -11.5t-13 -9.5q-4 0 -26.5 14t-49.5 32.5t-52.5 36.5t-35.5 25z" />
    <glyph glyph-name="afii10077" unicode="&#x43b;" horiz-adv-x="278" 
d="M32 18q19 0 37 14t34.5 36.5t29.5 49.5t21 53q6 17 10.5 36t4.5 47q0 10 11 14.5t16 4.5q8 0 9.5 -4.5t1.5 -9.5q0 -24 3 -55t8 -61.5t10.5 -57t10.5 -41.5q2 -6 5 -11t9 -5q3 0 7 2t6 2q6 0 6 -9q0 -8 -6.5 -14t-19.5 -6q-9 0 -15.5 4t-10.5 10t-6.5 11.5t-3.5 8.5
q-11 32 -17 66l-12 68q-8 -26 -22.5 -57.5t-33.5 -58.5t-43 -45t-51 -18q-22 0 -33 10.5t-11 21.5q0 8 10 20t19 12q7 0 7 -5q0 -3 -3.5 -9.5t-3.5 -10.5t3 -8.5t13 -4.5z" />
    <glyph glyph-name="afii10078" unicode="&#x43c;" horiz-adv-x="400" 
d="M398 22q0 -8 -11.5 -15t-25.5 -7q-16 0 -26 7.5t-16.5 18.5t-9.5 23.5t-5 23.5q-8 40 -8 73t1 51q-18 -38 -33.5 -70.5t-28.5 -55.5t-23.5 -36t-18.5 -13q-6 0 -11.5 2.5t-9.5 9.5t-6 19.5t-2 32.5q0 9 0.5 21t1 25.5t1 26t1.5 22.5q-15 -39 -32.5 -74t-37 -61.5
t-40.5 -42.5t-43 -16t-33 10.5t-11 21.5q0 8 8.5 18t17.5 10q7 0 7 -5q0 -3 -2 -7.5t-2 -8.5t2 -8.5t12 -4.5q33 0 72 54.5t71 156.5q4 13 9.5 18.5t26.5 5.5q2 0 7.5 -1t5.5 -7t-2 -16t-3 -16q-3 -15 -5 -49t-2 -85q0 -13 2.5 -14t4.5 -1q4 0 16.5 23.5t26.5 52.5t25.5 55
t13.5 31q9 21 16 32t24 11q6 0 7.5 -1.5t1.5 -5.5q0 -2 -1 -11.5t-1.5 -21t-1.5 -22.5t-1 -15q0 -15 0.5 -42t5 -53.5t13 -46.5t25.5 -20q2 0 10 2.5t10 2.5q7 0 7 -8z" />
    <glyph glyph-name="afii10079" unicode="&#x43d;" 
d="M112 245q0 -7 -6.5 -28t-11.5 -64l-2 -19q25 10 51 17t53 9l1 11q4 45 8.5 62t9.5 21q8 5 14 9t14 4q10 0 10 -9q0 -4 -3.5 -14.5t-5.5 -13.5q-5 -16 -9.5 -32.5t-6.5 -30.5q-1 -5 -3.5 -26.5t-2.5 -47.5q1 -28 6.5 -50.5t24.5 -22.5q11 0 25 9q8 5 10.5 6t4.5 1
q6 0 6 -6q0 -7 -6 -12.5t-14 -9.5t-17.5 -6t-16.5 -2q-32 0 -43.5 27.5t-11.5 63.5q0 21 3 44q-27 -3 -52.5 -10.5t-51.5 -18.5q-2 -20 -2.5 -35.5t-1.5 -23.5q-1 -20 -2 -39t-6 -19q-1 0 -5 1.5t-8.5 3.5t-8 5.5t-3.5 6.5q0 5 2 29.5t6 56.5q-15 -6 -27 -11t-14 -5
q-5 0 -8.5 6t-3.5 10q0 3 2 4t5 3q16 10 47 23q2 21 4 41.5t3.5 37t3 27t2.5 11.5q1 2 6 5t10.5 5.5t10.5 4l5 1.5q2 0 4 -2.5t2 -7.5z" />
    <glyph glyph-name="afii10080" unicode="&#x43e;" horiz-adv-x="259" 
d="M123 253q11 7 25 7q18 0 35 -9t29.5 -24.5t20 -36t7.5 -43.5q0 -30 -10 -57t-27.5 -48t-40 -33t-47.5 -12q-42 0 -68 34.5t-26 89.5q0 27 7.5 52t19.5 44.5t27.5 31t32.5 11.5q8 0 15 -7zM129 235q-2 -9 -7.5 -15t-10.5 -6t-8 5.5t-12 5.5q-7 0 -14 -7.5t-12.5 -20.5
t-9 -29t-3.5 -33q0 -47 21 -77.5t53 -30.5q16 0 30.5 9t26 23.5t18.5 33.5t7 40t-5.5 40t-15 33t-22 22t-27.5 8q-5 0 -9 -1z" />
    <glyph glyph-name="afii10081" unicode="&#x43f;" horiz-adv-x="278" 
d="M60 47q14 29 29.5 58t29.5 57q7 13 15.5 27.5t25.5 46.5q18 33 40 33q10 0 10 -9q0 -2 -2 -8.5t-4 -11.5q-3 -13 -5.5 -32.5t-2.5 -39.5q0 -67 14.5 -107.5t37.5 -40.5q13 0 21 8t14 8q8 0 8 -9q0 -6 -5.5 -11t-13 -8.5t-16 -5.5t-14.5 -2q-38 0 -57.5 43t-19.5 128
q0 9 0.5 14t1.5 14q-11 -19 -21.5 -40.5t-21.5 -41.5q-14 -28 -29 -56t-27 -57q-4 -9 -6.5 -12t-6.5 -3q-5 0 -10 3.5t-10 5.5t-5 6v9t2 30.5t5 58l6 65t5 52.5q1 11 8 14q6 3 11 6q5 2 9 4.5t6 2.5q4 0 5 -5t1 -7q0 -7 -3 -21t-5 -25q-7 -35 -12 -70.5t-8 -70.5z" />
    <glyph glyph-name="afii10082" unicode="&#x440;" 
d="M84 177q13 13 29.5 28t35 27.5t37.5 20.5t39 8q26 0 40.5 -12.5t14.5 -34.5q0 -15 -7.5 -35.5t-20.5 -42t-30 -43t-36 -37.5q-30 -27 -60 -43t-53 -17q-1 -20 -1 -31v-26q0 -60 5.5 -86t16.5 -26q6 0 10.5 4t9.5 4q6 0 6 -9q0 -11 -11.5 -17.5t-21.5 -6.5q-22 0 -33 25
q-6 13 -8.5 31t-4 37.5t-1.5 38v32.5q0 57 3.5 114t8.5 114q1 16 2 24t1 12.5t0.5 8.5t0.5 13q0 8 1.5 11t6.5 5q6 2 14 4t13 2q10 0 10 -7q0 -2 -0.5 -5t-1.5 -8l-15 -77v0zM80 133q-2 -24 -4.5 -52.5t-3.5 -57.5q50 6 98 54q33 32 54.5 69.5t21.5 65.5q0 24 -25 24
t-79 -42q-16 -13 -32 -29t-30 -32z" />
    <glyph glyph-name="afii10083" unicode="&#x441;" horiz-adv-x="204" 
d="M182 112q4 6 10 6q8 0 8 -8q0 -9 -14 -30q-30 -45 -57 -65.5t-54 -20.5q-55 0 -55 75q0 42 18 87t49 80q34 37 63 37q11 0 17.5 -5t6.5 -13t-10 -20t-19 -12q-7 0 -7 5q0 3 3.5 7.5t3.5 9.5q0 3 -4 3q-7 0 -25 -19q-28 -29 -45 -72.5t-17 -81.5q0 -54 28 -54q9 0 19.5 6
t20.5 15t18.5 18.5t14.5 16.5q7 8 14 17t13 18z" />
    <glyph glyph-name="afii10084" unicode="&#x442;" horiz-adv-x="426" 
d="M391 363q0 -11 -12.5 -17.5t-21.5 -6.5q-5 0 -8 3.5t-14 3.5q-12 0 -31 -3.5t-38.5 -8.5t-37 -10t-27.5 -8q-11 -3 -24.5 -7.5t-25.5 -9t-20.5 -8t-10.5 -3.5q-4 0 -8.5 5t-4.5 10q0 4 13.5 10.5t30.5 13t33.5 11.5t21.5 6q14 3 32 8t37.5 9.5t39 7.5t36.5 3
q1 0 7.5 -0.5t14 -1.5t13 -2.5t5.5 -4.5zM429 22q0 -5 -4 -9t-10 -7t-12.5 -4.5t-10.5 -1.5q-39 0 -53 53q-12 48 -12 108v15t1 21q-8 -15 -18.5 -37.5t-22 -45t-23.5 -43t-22 -31.5q-10 -10 -26 -10q-10 0 -15 8t-6.5 19t-1.5 23v20q0 23 2 47t5 46q-27 -38 -48.5 -79
t-44.5 -81q-2 -3 -5.5 -10.5t-8 -15t-8.5 -13.5t-7 -6q-6 0 -15.5 4.5t-9.5 11.5q0 5 1 10.5t2 10.5q3 22 7.5 51.5t8 58t6 52t2.5 33.5q0 8 -6 8q-5 0 -10 -6t-13 -22q-7 -13 -10 -16.5t-9 -3.5q-12 0 -12 8q0 3 2 8t10 18q14 25 27 36t27 11q25 0 25 -32q0 -17 -2 -39.5
t-5.5 -47.5t-7.5 -50t-8 -48q5 11 9 19l7.5 15t7.5 14.5t10 17.5q18 32 36.5 65t44.5 60q9 10 23 10t14 -8q0 -3 -2.5 -15t-5.5 -31t-5.5 -43t-2.5 -51v-18.5t3 -8.5q4 0 17 20.5t27 46.5t26.5 50.5t16.5 33.5q8 20 12 26.5t9 10.5q9 6 19 6q9 0 9 -7q0 -6 -1 -11
q-2 -16 -3 -30.5t-1 -28.5q0 -162 44 -162q5 0 10 2.5t10 2.5q7 0 7 -8z" />
    <glyph glyph-name="afii10085" unicode="&#x443;" 
d="M201 168q-11 -31 -23 -62.5t-27 -60.5q-20 -38 -34 -54.5t-27 -16.5q-21 0 -29 27q-3 10 -5 26.5t-3.5 34.5t-2.5 36t-1 32q0 13 -1 26.5t-1 26.5q0 12 2 16.5t8 9.5q3 2 11.5 6.5t12.5 4.5q5 0 5 -6q0 -5 -1.5 -20t-2.5 -26l-2 -32t-1 -30q0 -7 0.5 -24t2 -34.5t4.5 -31
t7 -13.5q3 0 10.5 11.5t15.5 26.5t15 29.5t9 20.5q5 13 12 29.5t13 34t10 34.5t4 31q0 34 -21 57q-5 5 -6 7t-1 4t4 5.5t9.5 6.5t10 5.5t6.5 2.5q4 0 9.5 -8.5t11.5 -23.5t12.5 -34.5t11.5 -40.5q13 -52 20.5 -105t7.5 -107q0 -29 -3.5 -64t-15 -65t-34 -50.5t-60.5 -20.5
q-30 0 -65.5 17t-62.5 45q-18 18 -31.5 41.5t-13.5 36.5q0 16 13 16q7 0 9.5 -7.5t4.5 -12.5q9 -21 25 -41.5t36.5 -36.5t43.5 -25.5t44 -9.5q27 0 43 17t24 41t10 51t2 47t-1.5 45t-5 51.5t-8 53t-10.5 50.5z" />
    <glyph glyph-name="afii10086" unicode="&#x444;" horiz-adv-x="337" 
d="M317 159q0 -23 -12 -48t-32 -47t-47 -38.5t-57 -23.5v-19v-73.5t3 -49.5q2 -14 6 -23.5t12 -9.5q3 0 10.5 4t9.5 4q6 0 6 -9q0 -8 -10 -16t-23 -8q-9 0 -15.5 4t-11 10t-6.5 11.5t-3 8.5q-2 6 -4 14t-3.5 22.5t-2.5 37t-1 55.5v33q-32 0 -54 10t-36 26t-20.5 35.5
t-6.5 38.5q0 45 21.5 87t60.5 62q11 6 16.5 7t10.5 -1t7 -7t2 -9q0 -2 -2 -6q4 2 14 6q2 20 3 40t3 40q1 11 2 15t6 6q9 5 17.5 5.5t9.5 0.5q2 0 6 -1t4 -6q0 -2 -2 -10t-4 -19t-4.5 -23.5t-3.5 -21.5l-2 -18h15q22 0 43 -5.5t37.5 -17.5t27 -30t10.5 -43zM283 158
q0 12 -4 24.5t-13.5 22.5t-26 16.5t-41.5 6.5q-11 0 -16 -1q-2 -23 -4.5 -50.5t-4.5 -50.5t-2.5 -49t-0.5 -49q21 5 41.5 16.5t36 29t25.5 39t10 45.5zM147 220q-8 0 -21.5 -10t-19.5 -16q-2 -2 -6.5 -6t-7.5 -4q-5 0 -7.5 4t-2.5 9q1 5 10.5 15t29.5 20v1v2
q-19 -5 -32.5 -17.5t-22.5 -29.5t-13 -37t-4 -41q0 -42 22 -63t64 -23l4.5 90t6.5 106z" />
    <glyph glyph-name="afii10087" unicode="&#x445;" horiz-adv-x="278" 
d="M62 -14q-1 -4 -4 -4t-12.5 5.5t-9.5 10.5q0 3 2 7q17 31 33.5 61t34.5 61q-6 7 -14 17t-17 20.5t-18.5 19.5t-17.5 15q-3 2 -9.5 7t-6.5 10q0 7 11 13t17 6q8 0 19 -11t34 -43l20 -28q14 22 31 45t34 42q26 28 44.5 40t38.5 12q34 0 34 -32q0 -23 -13 -23q-11 0 -11 17
q0 13 -10 13q-19 0 -45 -26q-26 -25 -46.5 -53t-39.5 -58q14 -17 27 -33.5t28 -31.5q11 -12 23 -23l24 -22q6 -6 6 -8q0 -5 -9 -12t-14 -7q-6 0 -15.5 10t-13.5 15q-19 21 -39.5 45.5t-33.5 40.5z" />
    <glyph glyph-name="afii10088" unicode="&#x446;" horiz-adv-x="310" 
d="M259 12q-3 -2 -6 -3q-5 -3 -9 -3q-11 0 -19.5 9.5t-11.5 26.5q-3 13 -6 32.5t-5 41.5q-23 -29 -45 -55t-49 -50q-13 -11 -20 -15t-15 -4q-18 0 -23 13.5t-5 27.5q0 10 0.5 25t1.5 33t2 36.5t2 35.5v10t0.5 14t1 13t1.5 8q2 8 13 14t19 6q12 0 12 -9q0 -1 -2 -7
q-2 -7 -3.5 -10.5t-3.5 -17.5q-6 -37 -9 -70.5t-3 -71.5q0 -15 8 -15q3 0 8.5 4.5t11.5 10.5t11 11.5t7 7.5q8 8 20.5 21.5t24 29t20 30.5t8.5 27v14.5t-1 19.5q-1 10 -2 20.5t-1 20.5q0 9 12.5 16.5t20.5 7.5q9 0 9 -11v-4.5t-1 -5.5q-2 -11 -3 -30t-1 -36q0 -29 2 -55.5
t5 -46.5t7.5 -32t10.5 -12q10 0 13 15q2 13 6 13q5 0 12.5 -5t7.5 -10q0 -7 -3 -19t-7 -24.5t-9 -24.5t-8 -19q-5 -11 -14.5 -26t-20 -29t-20.5 -24t-16 -10q-5 0 -12.5 8.5t-7.5 11.5q0 8 8.5 12.5t14.5 9.5q10 9 20 22t18 27t14.5 27t8.5 22z" />
    <glyph glyph-name="afii10089" unicode="&#x447;" horiz-adv-x="222" 
d="M22 239q6 14 10 24t6 21q-7 12 -7 21q0 13 8.5 22.5t20.5 9.5q8 0 14 -4.5t6 -12.5q0 -4 -2 -6l-4 -4t-4 -5t-2 -9t4.5 -12.5t10.5 -12.5t13 -11t12 -8q15 -8 26 -12.5t32 -5.5q6 0 17.5 -1.5t11.5 -11.5q0 -11 -8 -15t-17 -5q-7 -16 -14.5 -49.5t-7.5 -68.5q0 -5 1 -17
t3.5 -25.5t7 -23.5t11.5 -10t14 4t10 4q8 0 8 -8q0 -5 -4 -9t-10 -7t-12 -4.5t-10 -1.5q-16 0 -26 11t-15 26.5t-7 32t-2 27.5q0 12 2 29t5 35t7 34.5t7 28.5q-26 11 -44 21t-38 30q-2 -8 -5 -15.5t-8 -19.5q-5 -13 -12 -25.5t-16 -15.5q-11 -3 -16 -3q-3 0 -6 1t-3 4
q0 4 4 8q6 8 14 19.5t14 25.5z" />
    <glyph glyph-name="afii10090" unicode="&#x448;" horiz-adv-x="423" 
d="M324 163q-2 23 -3 43t-1 33q0 10 13 17t20 7q9 0 9 -11q0 -3 -1.5 -13t-1.5 -13q-2 -17 -2 -28v-22q0 -18 1.5 -43t4.5 -48t7.5 -39t11.5 -16l8 2q8 0 8 -7q0 -4 -7.5 -14t-18.5 -10q-10 0 -17 9t-12 23.5t-8.5 33.5t-5.5 39q-23 -29 -39.5 -48t-43.5 -42
q-16 -14 -23 -16.5t-12 -2.5q-21 0 -24.5 14.5t-3.5 26.5q0 2 0.5 18t2.5 39q-20 -26 -36.5 -44t-41.5 -40q-16 -14 -23 -16.5t-12 -2.5q-21 0 -24.5 14.5t-3.5 26.5q0 3 1 29.5t2.5 58t3 59t1.5 34.5q1 16 14 23t20 7q12 0 12 -9q0 -4 -3 -14.5t-4 -13.5q-2 -11 -5 -29
t-5 -40.5t-3.5 -47.5t-1.5 -48q0 -4 1 -9.5t7 -5.5q3 0 10.5 7t16 15t15.5 15.5t9 9.5q7 9 16 19t17 21t13.5 21.5t5.5 20.5l3 63q1 16 14 23t20 7q12 0 12 -9q0 -4 -3 -14.5t-4 -13.5q-2 -11 -5 -29t-5 -40.5t-3.5 -47.5t-1.5 -48q0 -4 1 -9.5t7 -5.5q3 0 10.5 7t16 15
t15.5 15.5t9 9.5q7 8 16 18.5t17 21.5t13 22t4 22z" />
    <glyph glyph-name="afii10091" unicode="&#x449;" horiz-adv-x="433" 
d="M419 30q0 -10 -5 -25t-13 -31t-18 -32t-20 -29q-8 -11 -19 -22.5t-22 -21.5t-21 -16.5t-16 -6.5q-5 0 -10 10t-5 13q0 7 9 10t17 7q11 6 24 19t24.5 28t21 30.5t13.5 27.5q-7 -5 -12 -5q-10 0 -17 11.5t-12 29t-8.5 38.5t-5.5 41q-23 -29 -39.5 -48t-43.5 -42
q-16 -14 -23 -16.5t-12 -2.5q-21 0 -24.5 14.5t-3.5 26.5q0 2 0.5 18t1.5 39q-10 -13 -18.5 -24t-17.5 -20.5t-19 -19t-22 -20.5q-16 -14 -23 -16.5t-12 -2.5q-21 0 -24.5 14.5t-3.5 26.5q0 2 0.5 16.5t1.5 34.5t2.5 44t2.5 45t2 36.5t1 20.5q1 16 14 23t20 7q12 0 12 -9
q0 -4 -3 -14.5t-4 -13.5q-2 -11 -5 -31.5t-5.5 -46t-4.5 -53t-2 -50.5q0 -4 1 -9.5t7 -5.5q3 0 10.5 7t16 15t15.5 15.5t9 9.5q7 9 16 19t17 21t13.5 21.5t5.5 20.5l3 63q1 16 14 23t20 7q12 0 12 -9q0 -4 -3 -14.5t-4 -13.5q-2 -11 -5 -29t-5 -40.5t-3.5 -47.5t-1.5 -48
q0 -4 1 -9.5t7 -5.5q3 0 10.5 7t16 15t15.5 15.5t9 9.5q7 8 16 18.5t17 21.5t13 22t4 22q-2 23 -3 35.5t-1 25.5q0 10 13 17t20 7q9 0 9 -11q0 -3 -1.5 -13t-1.5 -13q-2 -17 -2 -25v-19q0 -18 1.5 -44t4.5 -50t7.5 -41t11.5 -17q6 0 10 7.5t6 15.5q1 9 6 9q6 0 13 -5t7 -12z
" />
    <glyph glyph-name="afii10092" unicode="&#x44a;" horiz-adv-x="310" 
d="M180 -8q-9 0 -19 6t-18 21t-13 40t-5 63q0 32 7.5 59t15.5 44q-21 -8 -44 -14t-46 -6q-9 0 -20 1.5t-21.5 6t-17.5 12t-7 19.5q0 11 6.5 21t17.5 10q5 0 11 -3.5t5 -9.5q0 -3 -1 -6t-1 -6q0 -18 32 -18q31 -1 62.5 11.5t56.5 30.5q18 12 22 12q12 0 12 -16
q0 -8 -4.5 -12.5l-9.5 -9.5q-6 -2 -9 -4q-14 -23 -25.5 -49.5t-11.5 -54.5q20 23 47.5 37.5t47.5 14.5t28.5 -12.5t8.5 -32.5q0 -18 -11.5 -44t-28.5 -50.5t-35.5 -42.5t-31.5 -18zM242 163q-15 0 -30 -7t-27.5 -18t-20 -24.5t-7.5 -27.5q0 -7 1.5 -17.5t5 -20.5t8 -17.5
t10.5 -7.5q9 0 22 13t25.5 31.5t21 39.5t8.5 37q0 19 -17 19z" />
    <glyph glyph-name="afii10093" unicode="&#x44b;" horiz-adv-x="320" 
d="M196 111q0 -15 -11 -35.5t-27.5 -39t-35.5 -31.5t-36 -13q-9 0 -18.5 7t-17 23t-12.5 43t-5 66q0 16 1 32.5t2 30t2 23t2 11.5q2 5 13 10t16 5q6 0 8.5 -3.5t3.5 -7.5l-4 -14q-2 -6 -3 -11.5t-1 -7.5q-4 -17 -6.5 -39t-2.5 -47q0 -7 0.5 -23t3 -32.5t8 -29t15.5 -12.5
q7 0 20 9.5t25 23.5t21 30t9 29q0 5 -3.5 10t-11.5 5q-3 0 -11 -7t-13 -7t-10 1.5t-5 10.5q0 15 20 22q12 8 30.5 20t35.5 25.5t29 27.5t12 25q0 8 9 17.5t23 9.5q8 0 10 -11q0 -3 -2 -13t-2 -13q-2 -11 -2 -25v-25q0 -18 1.5 -43t4.5 -48t7.5 -39t11.5 -16l8 2q8 0 8 -7
q0 -4 -7.5 -14t-17.5 -10q-14 0 -22.5 15t-12.5 37q-4 23 -8.5 55t-4.5 86q-13 -16 -34.5 -31t-35.5 -24q23 -10 23 -33z" />
    <glyph glyph-name="afii10094" unicode="&#x44c;" horiz-adv-x="233" 
d="M99 -8q-9 0 -18 6t-16.5 22t-12.5 42.5t-5 68.5q0 16 1.5 37t3 40.5t3 34t2.5 16.5q2 5 12 10t16 5t8.5 -3.5t2.5 -7.5q-1 -8 -3 -14q-2 -5 -3 -10.5t-2 -7.5q-3 -16 -5.5 -28t-3.5 -22t-2 -19.5t-1 -21.5q8 10 19.5 20t25 17.5t27 12t25.5 4.5q20 0 29 -12.5t9 -32.5
q0 -18 -12.5 -44.5t-30 -51.5t-37 -43t-32.5 -18zM166 165q-23 0 -38.5 -9t-20.5 -13q-27 -24 -27 -60q0 -7 1 -17t3.5 -19.5t6.5 -16.5t10 -7q10 0 23.5 13t26.5 32t22 40t9 38q0 19 -16 19z" />
    <glyph glyph-name="afii10095" unicode="&#x44d;" horiz-adv-x="220" 
d="M48 -12q-8 0 -20.5 3.5t-12.5 14.5q0 5 6.5 12t11.5 7q6 0 9 -3.5t8 -3.5q11 0 23.5 7t24 17.5t21 22t15.5 20.5q10 14 16 29.5t12 31.5q-17 -3 -33.5 -6.5t-33.5 -9.5q-6 -2 -11 -4t-12 -2q-5 0 -9.5 2.5t-4.5 8.5q0 9 14 15.5t32.5 11t36.5 7.5t25 4q1 7 1.5 13.5
t0.5 13.5q0 8 -1.5 18t-5.5 18.5t-10.5 14t-16.5 5.5q-17 0 -32.5 -7t-28 -16t-21 -16t-10.5 -7q-5 0 -9.5 2.5t-4.5 7.5q0 6 4.5 11t8.5 9q9 9 21 17t26 14t28 9.5t27 3.5q18 0 29 -7.5t17 -19.5t8 -27t2 -29q0 -35 -12.5 -71t-33.5 -65q-11 -15 -25.5 -29t-29 -24.5
t-28 -17t-22.5 -6.5z" />
    <glyph glyph-name="afii10096" unicode="&#x44e;" horiz-adv-x="371" 
d="M179 188q-8 -8 -11.5 -28t-3.5 -43q1 -43 13.5 -65t43.5 -22q21 0 40 13t33.5 33.5t23 45t8.5 47.5q0 29 -10 46.5t-37 17.5q-25 0 -43 -13.5t-35 -37.5q-2 -3 -6.5 -8.5t-8.5 -5.5q-5 0 -7 3t-2 6t1 6t1 5zM215 5q-23 0 -39 9.5t-25.5 25t-13.5 35.5t-4 42v12t1 13
q-8 -5 -19 -11t-19 -11v-24.5t1 -30t3 -29.5t6 -23q2 -5 7 -10t5 -10t-9.5 -10.5t-12.5 -5.5q-13 0 -20 14t-10 32.5t-3 36.5v26v22l-16 -6q-9 -4 -22 -4q-7 0 -9 5.5t-2 7.5q0 3 5 7t11 6l34 13q0 29 1 56t4 56q1 9 10 13q2 2 10 4.5t12 2.5q9 0 9 -10q0 -4 -2.5 -18.5
t-4.5 -24.5q-2 -17 -4 -33.5t-3 -33.5q11 5 23.5 12.5t22.5 14.5q2 5 6 13.5t9.5 17t11.5 15t12 6.5t9 -6t4 -11q16 21 36.5 34.5t49.5 13.5q36 0 57.5 -21t21.5 -58q0 -33 -12 -64.5t-32 -56t-46 -39.5t-54 -15z" />
    <glyph glyph-name="afii10097" unicode="&#x44f;" horiz-adv-x="289" 
d="M181 142q-10 -31 -28 -60.5t-38.5 -54.5t-39 -43t-30.5 -25q-10 -6 -15.5 -9t-11.5 -3q-5 0 -9.5 3t-4.5 8q0 4 4.5 8.5t10.5 9t12 8.5l9 6q22 17 37.5 32.5t26.5 30.5t19.5 31t17.5 34q-35 -16 -69 -16q-20 1 -34 12t-14 31q0 17 11.5 39t29.5 41.5t39 33t39 13.5
q15 0 24.5 -7.5t14.5 -18.5t6.5 -24.5t1.5 -25.5q0 -5 -0.5 -9.5t-1.5 -9.5l11 5q0 5 1 7q2 7 11.5 12.5t14.5 5.5q2 0 5 -1t3 -7q0 -5 -2 -11q-6 -22 -7.5 -44.5t-1.5 -45.5q0 -11 1 -25t4 -27t8.5 -21.5t15.5 -8.5q11 0 11 -5q0 -4 -6.5 -11.5t-17.5 -7.5t-19 7.5
t-13.5 20t-8.5 28t-3 29.5v28.5t3 46.5zM139 247q-13 0 -28 -8t-27.5 -21.5t-21 -32t-8.5 -39.5q0 -9 6 -14.5t11 -5.5q16 0 38 6t45 20q5 14 6.5 25t1.5 17v12t-2 18t-7 16t-14 7z" />
    <glyph glyph-name="afii10071" unicode="&#x451;" horiz-adv-x="222" 
d="M67 96q0 -11 1 -24t5.5 -24.5t13.5 -19t24 -7.5q23 0 46 16t40 29q19 15 24 15q7 0 7 -8q0 -5 -4.5 -11t-15.5 -16q-31 -27 -55.5 -39.5t-48.5 -12.5q-34 0 -52 25t-18 70q0 39 8 74t22 61.5t32.5 42t38.5 15.5q33 0 33 -35q0 -18 -8 -38.5t-21.5 -41t-32 -39
t-39.5 -32.5zM67 129q11 7 16 12t13 14q20 23 31.5 46t11.5 37q0 16 -12 16t-22 -16.5t-18.5 -37.5t-13.5 -41.5t-6 -29.5zM126 361q-2 -8 -6.5 -21t-14.5 -13q-12 0 -12 12q0 10 10 43q5 14 8.5 19t10.5 5q12 0 12 -12q0 -2 -1.5 -7.5l-3 -11t-2.5 -10zM176 335
q-3 -13 -6.5 -17t-10.5 -4q-12 0 -12 11q0 3 2 11l12 48q2 10 5 13t10 3q13 0 13 -12q0 -5 -1 -8l-12 -45v0z" />
    <glyph glyph-name="afii10099" unicode="&#x452;" 
d="M68 8q-8 0 -12.5 1t-4.5 8q0 20 5 84t12 152q-8 -5 -15.5 -9t-13.5 -7q-7 -4 -13 -7q-5 0 -8.5 6t-3.5 11q0 4 7 9q11 7 24 14t25 14q1 21 2.5 41t3 36.5t2.5 28t2 15.5q2 8 15 13t18 5q2 0 4.5 -1t2.5 -6l-4 -24q-4 -23 -7 -48.5t-6 -42.5q12 6 27.5 12.5t32 11.5
t31 8.5t25.5 3.5q2 0 6 -0.5t4 -5.5t-4 -9.5t-9 -9t-9.5 -7t-5.5 -2.5q-2 0 -5.5 1t-5.5 1q-6 0 -17.5 -3.5t-25 -8.5t-26.5 -11t-21 -11q-5 -34 -7.5 -68.5t-6.5 -68.5q27 33 58.5 56.5t54.5 23.5q26 0 38.5 -17t12.5 -46q0 -28 -10 -58t-23.5 -57t-28 -48t-23.5 -30
t-21.5 -17t-21.5 -8q-5 0 -8.5 2t-3.5 7q0 6 6.5 10.5t11.5 7.5q7 4 16 11.5t19 22.5q7 11 17.5 28t19.5 38t15.5 43.5t6.5 43.5q0 17 -8 27.5t-24 10.5q-11 0 -25 -7.5t-28.5 -19.5t-28 -26.5t-23.5 -27.5q-1 -12 -1.5 -23t-1.5 -18q-2 -26 -2.5 -40.5t-11.5 -14.5z" />
    <glyph glyph-name="afii10100" unicode="&#x453;" horiz-adv-x="215" 
d="M210 73q0 -6 -5.5 -12.5t-14.5 -14.5q-35 -32 -66.5 -42t-51.5 -10q-32 0 -44 13t-11 32q0 8 2 15t8 17.5t16.5 26.5t27.5 41q4 7 15 22.5t21.5 32.5t19 31.5t8.5 19.5t-4 6t-6 1q-5 0 -15 -2.5t-20.5 -8t-20 -13t-15.5 -17.5q-8 -14 -10 -17t-7 -3q-4 0 -12.5 5t-7.5 13
q1 10 12 22t28 22t38 16.5t42 6.5q19 0 26.5 -7t7.5 -18q0 -9 -3 -18t-11.5 -23.5t-23 -35.5t-36.5 -52q-5 -7 -13 -18.5t-16 -23.5t-13.5 -23t-5.5 -17q0 -8 7 -14t21 -6q12 0 26.5 5t28.5 12t26.5 15t20.5 14q5 4 12 9.5t12 5.5q7 0 7 -8zM118 324q-7 -5 -12 -5t-8 3.5
t-3 7.5q0 5 5 11t18 16l49 37q11 8 19 8q12 0 12 -10q0 -7 -9 -13l-71 -55v0z" />
    <glyph glyph-name="afii10101" unicode="&#x454;" horiz-adv-x="204" 
d="M165 148q0 -7 -6 -9.5t-11 -3.5q-14 -2 -25 -4t-21.5 -5t-21 -7t-23.5 -11q-3 -17 -3 -33q0 -54 28 -54q9 0 19.5 6t20.5 15t18.5 18.5t14.5 16.5q7 8 14 17t13 18q4 6 10 6q8 0 8 -8q0 -9 -14 -30q-30 -45 -57 -65.5t-54 -20.5q-55 0 -55 75q0 42 18 87t49 80
q34 37 63 37q11 0 17.5 -5t6.5 -13t-10 -20t-19 -12q-7 0 -7 5q0 3 3.5 7.5t3.5 9.5q0 3 -4 3q-7 0 -25 -19q-34 -37 -51 -90q20 9 40 15t40 6q6 0 13 -2t7 -10z" />
    <glyph glyph-name="afii10102" unicode="&#x455;" horiz-adv-x="241" 
d="M102 159q-5 8 -12 18.5t-13.5 22t-11 22.5t-4.5 20q0 24 33 24q18 0 38.5 -5.5t37.5 -15.5q19 -11 31.5 -24.5t12.5 -23.5q0 -5 -7.5 -10.5t-12.5 -5.5q-8 0 -13 12q-9 20 -30.5 34.5t-41.5 14.5q-10 0 -10 -7q0 -3 1 -7t4 -9l56 -90q5 -8 14.5 -20.5t18.5 -26.5
t15.5 -28t6.5 -25q0 -20 -15.5 -32.5t-40.5 -12.5q-20 0 -45 7.5t-47 21t-37.5 32t-15.5 40.5q0 12 7 21t17 9q9 0 9 -9q0 -5 -3 -10t-3 -12q0 -15 14 -28.5t33 -24t39 -16.5t32 -6q25 0 25 15q0 8 -13 30.5t-37 57.5l-32 47v0z" />
    <glyph glyph-name="afii10103" unicode="&#x456;" horiz-adv-x="148" 
d="M69 129q0 -67 11 -98q7 -16 23 -17q11 0 11 -7q0 -9 -11.5 -13.5t-18.5 -4.5q-24 0 -34 34q-9 33 -10.5 71t-1.5 73q0 23 1 45t5 27q5 5 13.5 13t17.5 3q10 -4 10 -9q0 -4 -1 -7q-8 -32 -11.5 -58t-3.5 -52zM84 389q-5 -18 -5 -36v-14.5t1 -8.5l1.5 -4.5t0.5 -3.5
q0 -9 -16 -9q-10 0 -13 5t-4 22q-1 11 -1.5 22t-0.5 22q0 9 2 12t9 6q10 4 21 4q8 0 8 -6q0 -2 -2 -6q-1 -3 -1 -5z" />
    <glyph glyph-name="afii10104" unicode="&#x457;" horiz-adv-x="148" 
d="M69 129q0 -67 11 -98q7 -16 23 -17q11 0 11 -7q0 -9 -11.5 -13.5t-18.5 -4.5q-24 0 -34 34q-9 33 -10.5 71t-1.5 73q0 23 1 45t5 27q5 5 13.5 10.5t17.5 5.5q10 0 10 -9q0 -4 -1 -7q-11 -24 -13 -54t-2 -56zM74 361q-2 -8 -6.5 -21t-14.5 -13q-12 0 -12 12q0 10 10 43
q5 14 8.5 19t10.5 5q12 0 12 -12q0 -2 -1.5 -7.5l-3 -11t-2.5 -10zM124 335q-3 -13 -6.5 -17t-10.5 -4q-12 0 -12 11q0 3 2 11l12 48q2 10 5 13t10 3q13 0 13 -12q0 -5 -1 -8l-12 -45v0z" />
    <glyph glyph-name="afii10105" unicode="&#x458;" horiz-adv-x="167" 
d="M113 2q0 -228 -85 -228q-21 0 -39.5 13t-29.5 36q-10 20 -17 45.5t-7 42.5q0 15 12 15q8 0 11 -13q5 -20 10 -39t14 -37q19 -36 46 -36q13 0 21.5 10t14 24.5t7.5 29.5t4 26q4 25 5.5 45.5t1.5 52.5q0 27 -1 59t-3.5 64t-7 62t-12.5 53q-2 4 -3 7t-1 7q0 8 12.5 11.5
t18.5 3.5q7 0 9 -11q11 -60 15 -121t4 -122zM64 353q2 -8 2.5 -16t0.5 -12q0 -12 -15 -12q-12 0 -13 10q-3 16 -7 31.5t-12 29.5l-4 6t-2 7q0 10 20 10q16 0 20 -13q3 -11 5.5 -20.5t4.5 -20.5z" />
    <glyph glyph-name="afii10106" unicode="&#x459;" horiz-adv-x="298" 
d="M282 139q0 -18 -9 -43t-22.5 -48t-29.5 -39.5t-29 -16.5q-22 0 -33 20t-15 46.5t-3.5 53t0.5 39.5q-6 -15 -17.5 -42t-29 -53.5t-40.5 -46t-51 -19.5q-22 0 -31.5 10.5t-9.5 21.5q0 10 6 17.5t15 7.5q7 0 7 -5q0 -3 -1 -6t-1 -7t3 -8.5t13 -4.5q27 0 50.5 29t42.5 69
t33 80.5t20 64.5q2 5 9.5 10t18.5 5q6 0 8.5 -3.5t2.5 -7.5q-6 -22 -13 -57t-7 -66q16 20 35.5 32t39.5 12t29 -12.5t9 -32.5zM253 136q0 19 -16 19q-14 0 -25.5 -6.5t-20 -17t-13.5 -23.5t-5 -25q0 -7 1 -17t3.5 -19.5t6.5 -16.5t10 -7t16 12.5t19.5 30.5t16.5 37t7 33z
" />
    <glyph glyph-name="afii10107" unicode="&#x45a;" horiz-adv-x="341" 
d="M318 139q0 -18 -9 -43t-22.5 -48t-29.5 -39.5t-29 -16.5q-17 0 -33.5 27.5t-16.5 71.5q0 11 -0.5 22t1.5 22q-27 -3 -52.5 -10.5t-51.5 -18.5q-2 -20 -2.5 -35.5t-1.5 -23.5q-1 -20 -2 -39t-6 -19q-1 0 -5 1.5t-8.5 3.5t-8 5.5t-3.5 6.5q0 5 2 29.5t6 56.5
q-15 -6 -27 -11t-14 -5q-5 1 -8.5 6.5t-3.5 9.5q1 3 6.5 7t14 8t17.5 8t16 7q2 21 4 41.5t3.5 37t3 27t2.5 11.5q1 2 6 5t10.5 5.5t10.5 4l5 1.5q2 0 4 -2.5t2 -7.5q0 -3 -6 -28.5t-12 -68.5l-2 -14q25 10 51 17t53 9l1 11q4 44 8.5 61.5t9.5 21.5q8 5 14 9t14 4q10 0 10 -9
q0 -2 -3.5 -13t-7.5 -24.5l-8 -27t-5 -20.5l-4 -26q15 17 33 27t36 10q20 0 29 -12.5t9 -32.5zM289 136q0 19 -16 19q-11 0 -22.5 -5.5t-20.5 -14.5t-15 -20t-6 -22q0 -8 0.5 -19.5t3 -23t6.5 -19.5t11 -8q6 0 16 12.5t19.5 30.5t16.5 37t7 33z" />
    <glyph glyph-name="afii10108" unicode="&#x45b;" 
d="M287 15q0 -9 -13 -19.5t-29 -10.5q-17 0 -31.5 16t-25.5 41.5t-17.5 58.5t-7.5 68q-15 -36 -24 -56t-16 -35.5t-14 -33l-19 -47.5q-10 -25 -14 -29.5t-15 -4.5q-8 0 -12.5 1t-4.5 8q0 10 1.5 38.5t4.5 68t6.5 85t6.5 89.5l-27.5 -16.5t-13.5 -7.5q-5 0 -8.5 6t-3.5 11
t7 9q11 8 24 15t24 14q2 21 3.5 41t2.5 36.5t2 28t2 15.5q2 8 15.5 13t18.5 5q2 0 4.5 -1t2.5 -6l-3 -24q-3 -23 -7 -48t-6 -42q12 6 27.5 13t32 12t31 8.5t25.5 3.5q2 0 6 -0.5t4 -5.5t-4 -9.5t-9 -9t-9.5 -7t-5.5 -2.5q-2 0 -5.5 1t-5.5 1q-6 0 -17.5 -3.5t-25 -9
t-26.5 -11.5t-22 -11q-3 -23 -5 -47.5t-6 -70.5q-1 -8 -2.5 -27.5t-3.5 -41.5t-3.5 -41t-2.5 -26q3 9 10 27t16 40.5t19 45.5t19 43.5t16 34.5t10 17q5 6 14.5 8.5t11.5 2.5q6 0 6 -4q0 -1 -0.5 -6t-0.5 -12t-0.5 -13t-0.5 -8q0 -33 3.5 -62t11.5 -55q0 -2 4 -13t10 -23.5
t13.5 -22.5t15.5 -10q11 0 16 7t12 7q2 0 5 -1.5t3 -5.5z" />
    <glyph glyph-name="afii10109" unicode="&#x45c;" horiz-adv-x="278" 
d="M104 99q-8 -8 -15.5 -16.5t-12.5 -15.5q-2 -14 1 -26t7 -18q2 -2 8.5 -8t6.5 -8q0 -3 -5 -9.5t-15 -6.5q-7 0 -11.5 4t-7.5 9t-4.5 10t-2.5 8q-5 21 -6 49.5t-1 48.5q0 47 1.5 77.5t1.5 41.5q0 13 1.5 17.5t12.5 9.5q4 2 8 4.5t9 2.5q7 0 7 -7q-6 -38 -9.5 -80t-4.5 -84
q36 39 57.5 72.5t36.5 62.5q4 8 15 11t18 3q5 0 7 -3t2 -5q0 -3 -12 -20.5t-27 -37.5t-29 -38t-18 -24q26 -20 58.5 -43t83.5 -53q7 -4 15 -9t8 -6q0 -2 -7 -11.5t-13 -9.5q-4 0 -26.5 14t-49.5 32.5t-52.5 36.5t-35.5 25zM118 324q-7 -5 -12 -5t-8 3.5t-3 7.5q0 5 5 11
t18 16l49 37q11 8 19 8q12 0 12 -10q0 -7 -9 -13l-71 -55v0z" />
    <glyph glyph-name="afii10110" unicode="&#x45e;" 
d="M237 -11q0 -29 -3.5 -64t-15 -65t-34 -50.5t-60.5 -20.5q-30 0 -60 16t-54 46q-16 20 -27.5 42.5t-11.5 35.5q0 16 13 16q7 0 9.5 -7.5t4.5 -12.5q9 -21 22 -41.5t29.5 -36.5t36.5 -25.5t41 -9.5q28 0 43.5 17t23.5 41t10 51t2 47v73.5t-4 74.5q-23 -29 -45 -55t-49 -50
q-13 -11 -20 -15t-15 -4q-18 0 -23 13.5t-5 27.5q0 10 0.5 26t1.5 35t2 38.5t2 36.5q0 3 0.5 11.5t1 17.5t1 16.5t1.5 9.5q2 8 13 14t19 6q12 0 12 -9q0 -1 -2 -7q-2 -7 -4 -15.5t-4 -22.5q-12 -74 -12 -148q0 -15 8 -15q5 0 18.5 13.5t28.5 31t28 33t16 19.5q8 11 14 21
t6 24v14.5t-1 19.5q-1 10 -4 20.5t-3 20.5q0 9 12.5 16.5t20.5 7.5q9 0 9 -11q0 -2 -0.5 -4.5t-0.5 -5.5q0 -13 -0.5 -31t0.5 -35q1 -26 2.5 -49t2.5 -46t2 -46.5t1 -50.5zM254 399q0 -5 -5 -12.5t-12 -15t-13.5 -13.5t-10.5 -9q-14 -11 -31 -20.5t-37 -9.5
q-32 0 -46.5 20.5t-14.5 48.5q0 11 4.5 17.5t15.5 6.5q8 0 9 -5t1 -11q0 -26 6 -38t23 -12q28 0 47.5 15.5t27.5 28.5q5 8 11 15.5t16 7.5q5 0 7 -4.5t2 -9.5z" />
    <glyph glyph-name="afii10193" unicode="&#x45f;" 
d="M159 63q0 -5 -0.5 -8t-0.5 -5q0 -3 -5 -24t-11 -45.5t-11.5 -45t-7.5 -21.5q-4 -2 -7 -2q-12 0 -12 14q0 4 2 16t5.5 27t8 31t8.5 29q-11 -9 -26 -23t-29 -14q-18 0 -23 13.5t-5 27.5q0 10 0.5 26t1.5 35t2 38.5t2 36.5q0 3 0.5 11.5t1 17.5t1 16.5t1.5 9.5q2 8 13 14
t19 6q12 0 12 -9q0 -1 -2 -7q-2 -7 -4 -15.5t-4 -22.5q-12 -74 -12 -148q0 -15 8 -15q5 0 18.5 13.5t28.5 31t28 33t16 19.5q8 11 14 21t6 24v14.5t-1 19.5q-1 10 -2 20.5t-1 20.5q0 9 12.5 16.5t20.5 7.5q9 0 9 -11v-4.5t-1 -5.5q-2 -11 -3 -30t-1 -36q0 -29 2 -55.5
t5.5 -46.5t8 -32t9.5 -12q2 0 4 1t4 1q8 0 8 -8q0 -7 -9.5 -15t-16.5 -8q-14 0 -21.5 14t-12 32t-6 36.5t-2.5 27.5q-3 -5 -8.5 -12t-11.5 -15t-12.5 -15t-10.5 -11z" />
    <glyph glyph-name="afii10050" unicode="&#x490;" horiz-adv-x="444" 
d="M250 131q0 -14 -1.5 -42t-8.5 -56.5t-22 -50t-42 -21.5t-44.5 20.5t-27.5 47t-14 51.5t-4 34q0 5 2 10.5t9 5.5q6 0 7.5 -3t3.5 -17q6 -38 15 -62t18 -38.5t17.5 -20t15.5 -5.5q15 0 24 17t13.5 40t6 46t1.5 36q0 38 -4 79t-11 82t-18 80.5t-24 75.5q-38 -12 -73.5 -26
t-70.5 -33q-5 -2 -8.5 -5t-8.5 -3q-8 0 -11 8.5t-3 10.5t5 6t12.5 9t16 9.5t14.5 6.5q42 16 83 30t76 24q26 7 55 15t55 15t47 12.5t31 8.5q15 4 20 9.5t5 8.5q0 5 -11 12.5t-25 13.5q-2 1 -7.5 2.5t-5.5 5.5q0 5 7.5 14.5t12.5 9.5q10 0 32 -14q16 -11 25 -25.5t9 -23.5
q0 -11 -11.5 -19.5t-30.5 -16t-43.5 -14.5t-49.5 -13q-29 -7 -57.5 -14t-57.5 -15q6 -19 15.5 -51.5t18.5 -74.5t15.5 -91.5t6.5 -100.5z" />
    <glyph glyph-name="afii10098" unicode="&#x491;" horiz-adv-x="231" 
d="M270 306q0 -12 -13 -31q-17 -25 -28.5 -31.5t-33.5 -6.5q-12 0 -19 -3t-11 -8.5t-6 -14t-4 -18.5q-6 -25 -15 -58.5t-22.5 -63.5t-32 -51t-44.5 -21q-11 0 -21 7t-10 17q0 14 5.5 31.5t15.5 41.5q3 7 4.5 9t6.5 4t13 4t14 2q5 0 5 -4q0 -2 -4.5 -7t-9.5 -16
q-8 -17 -14.5 -30t-6.5 -21q0 -2 3.5 -4t5.5 -2q12 0 23.5 16t21 40t16.5 52.5t11 53.5q2 12 5 23.5t9 21.5t16.5 16t26.5 6q5 0 11 0.5t16 0.5q22 0 45 45q5 11 12 11q9 0 9 -11z" />
    <glyph glyph-name="Euro" unicode="&#x20ac;" horiz-adv-x="640" 
d="M477 279q0 -7 -8 -7q-12 0 -34 -3t-49.5 -7.5t-58.5 -11.5t-61 -14.5t-56.5 -16.5t-45.5 -18q-5 -17 -8 -33t-3 -32q0 -20 5 -39.5t17.5 -35t34.5 -25.5t56 -10q40 0 86.5 16t89.5 38.5t78.5 46.5t53.5 39q9 8 20 16t16 8t8 -3t3 -6q0 -8 -16 -24.5t-43 -37.5t-63.5 -43
t-77.5 -40.5t-84.5 -30t-85.5 -11.5q-14 0 -41.5 3t-50.5 17q-16 10 -26 23.5t-16 27.5t-8 26.5t-2 20.5q0 29 9 67q-8 -5 -16 -9.5t-16 -9.5q-7 -5 -12.5 -8.5t-10.5 -3.5q-8 0 -12.5 5t-4.5 9q0 7 9 12.5t15 9.5q15 9 30 17.5t31 16.5q5 12 9.5 24.5t10.5 25.5
q-16 -8 -30 -16t-27 -16q-7 -5 -12.5 -8.5t-10.5 -3.5q-8 0 -12.5 5t-4.5 9q0 7 9 12.5t15 9.5q23 14 46 26t50 23q20 33 45.5 67t59.5 67q31 30 61 51.5t57.5 35t50.5 20t39 6.5q25 0 45 -9t20 -20q0 -6 -4.5 -11t-10.5 -9t-12 -6.5t-9 -2.5q-4 0 -6.5 1.5t-10.5 9.5
q-6 6 -14 7.5t-13 1.5q-31 0 -78.5 -27t-95.5 -76q-17 -17 -35 -39t-35 -48q21 7 58 16t76 17t72 14t46 6q5 0 6 -2.5t1 -10.5v-13q0 -7 -8 -7q-16 0 -50.5 -5t-75 -13.5t-81 -19t-69.5 -21.5q-7 -12 -13 -25t-11 -26q16 7 41.5 14.5t54.5 15t59.5 14t57.5 12t48.5 8.5
t31.5 3q5 0 6 -2.5t1 -10.5v-13z" />
    <glyph glyph-name="afii61352" unicode="&#x2116;" horiz-adv-x="876" 
d="M385 357q-14 -57 -31 -123t-43 -126q-20 -47 -42.5 -79t-46.5 -51.5t-49.5 -28t-51.5 -8.5q-54 0 -84 38t-30 106q0 13 1.5 28.5t3.5 28.5q4 20 13 20q7 0 7 -8q0 -5 -2 -21.5t-2 -30.5q0 -24 4.5 -48t15.5 -43t29.5 -31t47.5 -12q28 0 51.5 12.5t43.5 33.5t36 48.5
t28 58.5q10 25 21.5 61t22.5 75t19.5 77.5t11.5 68.5q-5 9 -12 20t-18 23q-5 5 -6 7t-1 4t4.5 5.5t10 6.5t11 5.5t7.5 2.5q4 0 10 -11.5t8 -14.5q32 -59 58.5 -110.5t55.5 -111.5q21 -42 42 -83t45 -81q-2 15 -2.5 23.5t-0.5 25.5q0 37 3 79.5t8.5 84.5t12 79t12.5 64
q3 14 5 22.5t3.5 13.5t3 9t3.5 9q4 9 16 11.5t21 2.5q5 0 5 -3q0 -1 -5 -15q-11 -26 -18.5 -56.5t-16.5 -82.5q-11 -62 -15.5 -117.5t-4.5 -118.5q0 -23 0.5 -43.5t2.5 -28.5t8 -16q2 -4 2 -5q0 -2 -4 -6t-9 -7.5t-10 -6t-7 -2.5q-4 0 -10 9q-31 55 -60 109t-58 111
q-19 37 -36.5 74t-37.5 73zM749 275q4 1 7.5 2t9.5 1q11 0 23 -5t22 -14.5t16.5 -23t6.5 -30.5q0 -15 -6 -31.5t-17.5 -30.5t-28.5 -23t-39 -9q-34 0 -52.5 23.5t-18.5 55.5q0 18 5.5 34t15 28t21.5 19t25 7q4 0 10 -3zM757 252q-2 -2 -5.5 -7.5t-11.5 -5.5q-4 0 -8 3
q-2 1 -3 2q-1 0 -1 0.5t-1 0.5t-1 1q-2 0 -11 -12t-9 -36q0 -30 15 -44.5t29 -14.5q17 0 33.5 16t16.5 42t-14 41t-29 14zM652 20q-1 8 0.5 9t7.5 1t16 -0.5t21 -0.5t20.5 -0.5t14.5 -0.5q17 0 41.5 1t41.5 0q9 0 11 -2.5t2 -13.5q0 -10 -4 -11.5t-21 -1.5q-13 0 -31 0.5
t-36.5 0.5h-36h-28.5q-14 0 -16.5 3t-2.5 16z" />
    <glyph glyph-name="uni2219" unicode="&#x2219;" horiz-adv-x="185" 
d="M96 236q11 0 19.5 -8.5t8.5 -19.5q0 -12 -8 -20t-20 -8q-11 0 -19.5 8t-8.5 20q0 11 8.5 19.5t19.5 8.5z" />
    <glyph glyph-name="afii10064" horiz-adv-x="249" 
d="M102 402q0 -12 13 -30t22 -31q17 -24 32 -45.5t26 -43.5t17.5 -46.5t6.5 -55.5q0 -27 -14.5 -55t-36.5 -50t-47.5 -36t-46.5 -14q-26 0 -39 17t-13 47q0 26 12 61.5t30 68.5t39 58.5t39 32.5l-31 45q-4 5 -12.5 16.5t-17 23.5t-15 23.5t-6.5 16.5q0 6 4.5 11.5t11.5 9.5
t13.5 6.5t11.5 4.5q7 2 26.5 7t41 10.5t40.5 9.5t27 4q16 0 27 -3t11 -20q0 -4 -3.5 -10.5t-8.5 -12.5t-10.5 -10.5t-8.5 -4.5q-5 0 -6.5 4t-2.5 8q-2 9 -7 11.5t-26 -0.5q-17 -2 -34.5 -5.5t-32 -7.5t-23.5 -8t-9 -7zM190 148q0 11 -2.5 28.5t-7.5 34t-12.5 28t-18.5 11.5
q-12 0 -29 -21.5t-32.5 -51.5t-26 -62t-10.5 -53q0 -17 8 -27.5t23 -10.5q20 0 39.5 12.5t34.5 31.5t24.5 40.5t9.5 39.5z" />
    <glyph glyph-name="afii10832" horiz-adv-x="423" 
d="M324 163q-2 23 -3 43t-1 33q0 10 13 17t20 7q9 0 9 -11q0 -3 -1.5 -13t-1.5 -13q-2 -17 -2 -28v-22q0 -18 1.5 -43t4.5 -48t7.5 -39t11.5 -16l8 2q8 0 8 -7q0 -4 -7.5 -14t-18.5 -10q-10 0 -17 9t-12 23.5t-8.5 33.5t-5.5 39q-23 -29 -39.5 -48t-43.5 -42
q-16 -14 -23 -16.5t-12 -2.5q-21 0 -24.5 14.5t-3.5 26.5q0 2 0.5 18t2.5 39q-20 -26 -36.5 -44t-41.5 -40q-16 -14 -23 -16.5t-12 -2.5q-21 0 -24.5 14.5t-3.5 26.5q0 3 1 29.5t2.5 58t3 59t1.5 34.5q1 16 14 23t20 7q12 0 12 -9q0 -4 -3 -14.5t-4 -13.5q-2 -11 -5 -29
t-5 -40.5t-3.5 -47.5t-1.5 -48q0 -4 1 -9.5t7 -5.5q3 0 10.5 7t16 15t15.5 15.5t9 9.5q7 9 16 19t17 21t13.5 21.5t5.5 20.5l3 63q1 16 14 23t20 7q12 0 12 -9q0 -4 -3 -14.5t-4 -13.5q-2 -11 -5 -29t-5 -40.5t-3.5 -47.5t-1.5 -48q0 -4 1 -9.5t7 -5.5q3 0 10.5 7t16 15
t15.5 15.5t9 9.5q7 8 16 18.5t17 21.5t13 22t4 22zM327 376q21 0 21 -16q0 -11 -23 -11h-76q-5 0 -25 -0.5t-45 -0.5t-49 -0.5t-37 -0.5q-28 0 -28 14t29 14h20.5t34.5 0.5t38 0.5h33h107v0z" />
    <glyph glyph-name="afii10063" horiz-adv-x="148" 
d="M69 129q0 -67 11 -98q7 -16 23 -17q11 0 11 -7q0 -9 -11.5 -13.5t-18.5 -4.5q-24 0 -34 34q-9 33 -10.5 71t-1.5 73q0 23 1 45t5 27q5 5 13.5 10.5t17.5 5.5q10 0 10 -9q0 -4 -1 -7q-11 -24 -13 -54t-2 -56zM142 376q21 0 21 -16q0 -11 -23 -11h-26q-5 0 -17.5 -0.5
t-27.5 -0.5t-31.5 -0.5t-29.5 -0.5q-28 0 -28 14t29 14q11 0 30 0.5t46 0.5h57v0z" />
    <glyph glyph-name="afii10831" 
d="M195 107q-11 -14 -17.5 -22t-8.5 -11q-14 -17 -28.5 -31.5t-32.5 -31.5q-13 -11 -20 -15t-15 -4q-11 0 -18 7q-6 5 -8 11t-2 23q0 10 0.5 26t1.5 35t2 38.5t2 36.5q1 10 1.5 19.5t0.5 19.5q0 8 0.5 11t1.5 5q2 8 13 14t19 6q12 0 12 -9q0 -1 -2 -7q-2 -7 -4 -15.5
t-4 -22.5q-12 -74 -12 -148q0 -15 8 -15q3 0 8.5 4.5t11.5 10.5t11 11.5t7 7.5q13 13 27 29.5t26 33.5q8 11 14 21t6 24v14.5t-1 19.5t-1 18.5t-1 12.5q-1 4 -1 10q0 9 12.5 16.5t20.5 7.5q9 0 9 -11v-4.5t-1 -5.5q-2 -11 -3 -30t-1 -36q0 -29 2 -55.5t5.5 -46.5t8 -32
t9.5 -12q2 0 4 1t4 1q8 0 8 -8q0 -7 -9.5 -15t-16.5 -8q-11 0 -19.5 9.5t-11.5 26.5q-3 13 -6 32.5t-5 41.5zM222 376q21 0 21 -16q0 -11 -23 -11h-26q-5 0 -17.5 -0.5t-27.5 -0.5t-31.5 -0.5t-29.5 -0.5q-28 0 -28 14t29 14q11 0 30 0.5t46 0.5h57v0z" />
    </font>
</defs>
</svg>
